<?xml version="1.0" standalone="no"?>
<!DOCTYPE svg PUBLIC "-//W3C//DTD SVG 1.1//EN" "http://www.w3.org/Graphics/SVG/1.1/DTD/svg11.dtd" >
<svg>
<metadata>
Created by FontForge 20090622 at Thu Mar 24 12:45:14 2016
 By deploy user
Copyright (c) 2015 by Artimasa. All rights reserved.
</metadata>
<defs>
<font id="Hamster" horiz-adv-x="341" >
  <font-face 
    font-family="Hamster"
    font-weight="400"
    font-stretch="normal"
    units-per-em="1000"
    panose-1="0 0 0 0 0 0 0 0 0 0"
    ascent="800"
    descent="-200"
    x-height="488"
    cap-height="723"
    bbox="-166.656 -344 1021 957"
    underline-thickness="50"
    underline-position="-50"
    unicode-range="U+0020-U+FB02"
  />
<missing-glyph horiz-adv-x="210" 
 />
    <glyph glyph-name="f_i" unicode="fi" horiz-adv-x="465" 
d="M124 95q16 -5 31 -5.5t29.5 5.5t26.5 12t25 21t22 24t20.5 29l17 29t16 30t12.5 26t11 24l23 -10q-54 -138 -100 -205.5t-100 -73.5q15 -83 0 -168q-23 -134 -107 -134q-31 0 -44.5 43.5t-9 124t14.5 157t28 176.5q53 303 109.5 435.5t143.5 132.5q43 0 53.5 -63
t-9.5 -167q-60 -343 -203 -391q-3 -14 -10 -52zM287 700q-39 0 -125 -416q-8 -35 -19 -91q34 35 72.5 137t59.5 224q13 72 16 108.5t-4 37.5zM98 -206q12 0 17 34q19 106 2 177q-1 1 -4 1.5t-4 0.5q-8 -47 -12.5 -84t-7 -67t-0.5 -46t9 -16zM526 290l23 -10
q-49 -126 -105 -217.5t-101 -91.5q-36 0 -46 56t6 142q9 51 35 163.5t35 155.5h111l-15 -65t-18 -72l-18 -71.5l-15.5 -67t-10 -53.5t-2.5 -37.5t8 -13.5q27 0 113 182zM440 584q-34 0 -43.5 32t4.5 78q13 47 41 78.5t61 31.5t43 -32.5t-3 -77.5q-14 -48 -42 -79t-61 -31z
" />
    <glyph glyph-name="f_l" unicode="fl" horiz-adv-x="466" 
d="M124 95q16 -5 31 -5.5t29.5 5.5t26.5 12t25 21t22 24t20.5 29l17 29t16 30t12.5 26t11 24l23 -10q-54 -138 -100 -205.5t-100 -73.5q15 -83 0 -168q-23 -134 -107 -134q-31 0 -44.5 43.5t-9 124t14.5 157t28 176.5q53 303 109.5 435.5t143.5 132.5q43 0 53.5 -63
t-9.5 -167q-60 -343 -203 -391q-3 -14 -10 -52zM287 700q-39 0 -125 -416q-8 -35 -19 -91q34 35 72.5 137t59.5 224q13 72 16 108.5t-4 37.5zM98 -206q12 0 17 34q19 106 2 177q-1 1 -4 1.5t-4 0.5q-8 -47 -12.5 -84t-7 -67t-0.5 -46t9 -16zM419 108q25 0 108 182l23 -10
q-49 -126 -105 -217.5t-100 -91.5q-37 0 -49 44.5t3 126.5q11 66 64 315t63 362h128q-20 -75 -34 -133t-34 -152l-37 -169q-42 -176 -44 -214q-3 -43 14 -43z" />
    <glyph glyph-name="b_r" unicode="br" horiz-adv-x="607" 
d="M555 108q30 0 113 182l23 -10q-49 -126 -105 -217.5t-101 -91.5q-36 0 -52 38t-5 97q4 20 11.5 48.5l15 55.5l16 55.5t15 52.5t10 43.5t1.5 31t-9 12.5l-14 3l-20 -60.5t-22 -62.5t-27 -56q-51 -90 -120 -125q-32 -64 -72 -99t-79 -35q-41 0 -64.5 19.5t-30.5 61.5
t-3.5 93.5t16.5 127.5q11 64 56 276t54 271h120l-32 -116.5l-38.5 -141.5l-32.5 -129q23 41 50 67t47 26q48 0 66 -69.5t0 -167.5q-10 -61 -31 -120q43 31 80 98q21 37 55 151q-52 24 -40 95q5 31 20 67t27 57l12 20l96 -3l-60 -171q41 18 51 18q76 0 55 -119
q-4 -25 -15.5 -64.5l-22 -73.5t-19 -66t-8 -50.5t12.5 -18.5zM226 414q-14 1 -33 -33.5t-27 -85.5q-8 -44 2.5 -78.5t34.5 -53.5q12 39 20 77q10 46 13.5 86.5t0.5 64t-11 23.5zM155 70q11 0 27 34q-37 23 -50 78q-4 -51 2.5 -81.5t20.5 -30.5z" />
    <glyph glyph-name="o_r" unicode="or" horiz-adv-x="620" 
d="M568 108q30 0 113 182l23 -10q-49 -126 -105 -217.5t-101 -91.5q-36 0 -52 38t-5 97q4 20 11.5 48.5l15 55.5l16 55.5t15 52.5t10 43.5t1.5 31t-9 12.5l-14 3q-27 -95 -67 -171q-27 -50 -63 -86t-70 -50q-32 -63 -71 -97t-78 -34q-62 0 -90.5 70t-6.5 195
q19 107 57 180.5t68 73.5q21 0 40 -21q42 57 74 57q49 0 67 -69.5t-1 -167.5q-12 -69 -32 -126q51 30 91 107q34 66 54 148q-52 24 -40 95q5 31 20 67t27 57l12 20l96 -3l-60 -171q40 18 51 18q76 0 55 -119q-4 -25 -15.5 -64.5l-22 -73.5t-19 -66t-8 -50.5t12.5 -18.5z
M230 414q-14 1 -32.5 -33t-26.5 -86q-8 -43 2.5 -77t34.5 -53q9 28 19 75q15 71 16 122.5t-13 51.5zM150 70q16 0 35 37q-51 33 -54 122q-12 -71 -6 -115t25 -44z" />
    <glyph glyph-name="v_r" unicode="vr" horiz-adv-x="576" 
d="M524 108q30 0 113 182l23 -10q-49 -126 -105 -217.5t-101 -91.5q-36 0 -52 38t-5 97q4 20 11.5 48.5l15 55.5l16 55.5t15 52.5t10 43.5t1.5 31t-9 12.5q-11 2 -14 3q-90 -265 -199 -311q-35 -68 -64 -97t-67 -29q-40 0 -59 46.5t-16.5 123.5t16.5 164.5t38 182.5h111
q-11 -33 -23.5 -81.5t-22 -100t-14.5 -96.5t-2.5 -73.5t14.5 -28.5q13 0 32 31q-3 13 -3 29t2.5 35.5t5.5 39t9 44t11.5 44.5t13.5 46.5l14 45l14.5 45.5t12.5 41l90 -1q-44 -231 -91 -355q41 34 81.5 109.5t67.5 154.5q-52 24 -40 95q5 31 20 67t27 57l12 20l96 -3
l-60 -171q40 18 51 18q76 0 55 -119q-4 -25 -15.5 -64.5l-22 -73.5t-19 -66t-8 -50.5t12.5 -18.5z" />
    <glyph glyph-name="w_r" unicode="wr" horiz-adv-x="751" 
d="M699 108q30 0 113 182l23 -10q-49 -126 -105 -217.5t-101 -91.5q-36 0 -52 38t-5 97q4 20 11.5 48.5l15 55.5l16 55.5t15 52.5t10 43.5t1.5 31t-9 12.5l-14 3l-23 -86q-27 -104 -78.5 -161.5t-97.5 -63.5q-60 -126 -131 -126q-75 0 -75 161q-63 -161 -131 -161
q-38 0 -52 55.5t4 168.5q22 123 67 293h111q-40 -124 -69.5 -252t-1.5 -128q16 0 41.5 61.5t47.5 142.5q15 96 37 176h110q-11 -33 -23 -81.5t-21.5 -100t-14.5 -96.5t-2.5 -73.5t13.5 -28.5q14 0 33 31q-3 13 -3 29t2.5 35.5t5.5 39t9 44t11.5 44.5t13.5 46.5l14 45
l14.5 45.5t12.5 41l90 -1q-44 -231 -91 -355q22 6 48 32.5t47 67.5q8 16 16 38t13 39l13 45l12 42q-52 24 -40 95q5 31 20 67t27 57l12 20l96 -3l-60 -171q41 18 51 18q76 0 55 -119q-4 -25 -15.5 -64.5l-22 -73.5t-19 -66t-8 -50.5t12.5 -18.5z" />
    <glyph glyph-name="t_t" unicode="tt" horiz-adv-x="412" 
d="M360 108q29 0 112 182l24 -10q-49 -126 -105 -217.5t-101 -91.5q-37 0 -53.5 45.5t-1.5 125.5l2 15q-90 -186 -153 -186q-37 0 -53.5 45.5t-1.5 125.5q12 73 58 301l-39 -2l15 64h37q38 196 57 314h118l-68 -314h99q38 196 57 314h118l-68 -314h54l-17 -53l-50 -3
q-2 -11 -9 -39l-11 -45q-13 -56 -20.5 -95t-13 -79.5t-2.5 -61.5t16 -21zM154 108q16 0 46.5 52t58.5 116l34 167l-99 6q-3 -11 -9.5 -39l-10.5 -45q-13 -56 -20.5 -95t-13 -79.5t-2.5 -61.5t16 -21z" />
    <glyph glyph-name="b_s" unicode="bs" horiz-adv-x="642" 
d="M593 94q45 53 110 196l23 -10q-31 -84 -64.5 -144.5t-85.5 -106t-112 -52.5q-24 -7 -46 -7q-51 0 -77.5 36t-19.5 74q6 33 57 74q37 29 41 17q1 -1 0 -4q-31 -125 14 -125q15 0 28.5 23.5t20.5 61.5q7 27 5 66t-5 61t-9.5 59t-9.5 59q-21 -72 -57 -140q-47 -91 -121 -128
q-32 -64 -72 -99t-79 -35q-41 0 -64.5 19.5t-30.5 61.5t-3.5 93.5t16.5 127.5q11 64 56 276t54 271h120l-32 -116.5l-38.5 -141.5l-32.5 -129q23 41 50 67t47 26q48 0 66 -69.5t0 -167.5q-10 -61 -31 -120q47 32 87 111q35 71 65 197l2 9q7 37 22 68t27 43l12 12l88 -15
q-32 -49 -41 -102q-9 -52 17.5 -168.5t15.5 -181.5q-5 -28 -13 -47zM226 414q-14 1 -33 -33.5t-27 -85.5q-8 -44 2.5 -78.5t34.5 -53.5q12 39 20 77q10 46 13.5 86.5t0.5 64t-11 23.5zM155 70q11 0 27 34q-37 23 -50 78q-4 -51 2.5 -81.5t20.5 -30.5z" />
    <glyph glyph-name="o_s" unicode="os" horiz-adv-x="655" 
d="M606 94q45 53 110 196l23 -10q-31 -84 -64.5 -144.5t-85.5 -106t-112 -52.5q-24 -7 -46 -7q-51 0 -77.5 36t-19.5 74q6 33 57 74q37 29 41 17q1 -1 0 -4q-31 -125 14 -125q15 0 28.5 23.5t20.5 61.5q7 27 5 66t-5 61t-9.5 59t-9.5 59q-24 -86 -57 -140
q-60 -102 -132 -131q-32 -63 -71 -97t-78 -34q-62 0 -90.5 70t-6.5 195q19 107 57 180.5t68 73.5q21 0 40 -21q42 57 74 57q49 0 67 -69.5t-1 -167.5q-12 -69 -32 -126q54 32 96 113q32 61 66 201l2 9q7 37 22 68t27 43l12 12l88 -15q-32 -49 -41 -102q-9 -52 17.5 -168.5
t15.5 -181.5q-5 -28 -13 -47zM230 414q-14 1 -32.5 -33t-26.5 -86q-8 -43 2.5 -77t34.5 -53q9 28 19 75q15 71 16 122.5t-13 51.5zM150 70q16 0 35 37q-51 33 -54 122q-12 -71 -6 -115t25 -44z" />
    <glyph glyph-name="v_s" unicode="vs" horiz-adv-x="611" 
d="M562 94q45 53 110 196l23 -10q-31 -84 -64.5 -144.5t-85.5 -106t-112 -52.5q-24 -7 -46 -7q-51 0 -77.5 36t-19.5 74q6 33 57 74q37 29 41 17q1 -1 0 -4q-31 -125 14 -125q15 0 28.5 23.5t20.5 61.5q7 27 5 66t-5 61t-9.5 59t-9.5 59q-33 -98 -57 -140
q-62 -111 -131 -135q-60 -126 -131 -126q-40 0 -59 46.5t-16.5 123.5t16.5 164.5t38 182.5h111q-11 -33 -23.5 -81.5t-22 -100t-14.5 -96.5t-2.5 -73.5t14.5 -28.5q13 0 32 31q-3 13 -3 29t2.5 35.5t5.5 39t9 44t11.5 44.5t13.5 46.5l14 45l14.5 45.5t12.5 41l90 -1
q-44 -231 -91 -355q21 6 44.5 31.5t40.5 58.5q48 89 81 233l2 9q7 37 22 68t27 43l12 12l88 -15q-32 -49 -41 -102q-9 -52 17.5 -168.5t15.5 -181.5q-5 -28 -13 -47z" />
    <glyph glyph-name="w_s" unicode="ws" horiz-adv-x="786" 
d="M737 94q45 53 110 196l23 -10q-31 -84 -64.5 -144.5t-85.5 -106t-112 -52.5q-24 -7 -46 -7q-51 0 -77.5 36t-19.5 74q6 33 57 74q37 29 41 17q1 -1 0 -4q-31 -125 14 -125q15 0 28.5 23.5t20.5 61.5q7 27 5 66t-5 61t-9.5 59t-9.5 59q-19 -77 -55 -141q-31 -55 -62 -87
t-71 -47q-60 -126 -131 -126q-75 0 -75 161q-63 -161 -131 -161q-38 0 -52 55.5t4 168.5q22 123 67 293h111q-40 -124 -69.5 -252t-1.5 -128q16 0 41.5 61.5t47.5 142.5q15 96 37 176h110q-11 -33 -23 -81.5t-21.5 -100t-14.5 -96.5t-2.5 -73.5t13.5 -28.5q14 0 33 31
q-3 13 -3 29t2.5 35.5t5.5 39t9 44t11.5 44.5t13.5 46.5l14 45l14.5 45.5t12.5 41l90 -1q-44 -231 -91 -355q20 6 43.5 31t41.5 59q47 85 81 233l2 9q7 37 22 68t27 43l12 12l88 -15q-32 -49 -41 -102q-9 -52 17.5 -168.5t15.5 -181.5q-5 -28 -13 -47z" />
    <glyph glyph-name="b_z" unicode="b&#x7a;" horiz-adv-x="633" 
d="M717 280q-59 -156 -136 -243q-2 -29 -6 -58q-23 -129 -86 -226t-119 -97q-44 0 -65.5 40.5t-12.5 88.5q3 19 11.5 38t17 33.5t25 33l25.5 28t30.5 27l28 22.5t29.5 21.5t24 17.5q8 78 -22 78q-17 0 -35 -13.5t-30 -29.5t-24.5 -29.5t-19.5 -13.5q-26 0 -16 44q9 46 37 68
q13 10 25 7q9 -1 35.5 43t54 110.5t36.5 118.5q11 61 -6 61q-10 0 -31 -40t-46 -93.5t-68 -115.5t-88 -97q-32 -64 -72 -99t-79 -35q-41 0 -64.5 19.5t-30.5 61.5t-3.5 93.5t16.5 127.5q11 64 56 276t54 271h120l-32 -116.5l-38.5 -141.5l-32.5 -129q23 41 50 67t47 26
q48 0 66 -69.5t0 -167.5q-10 -61 -31 -120q36 31 71.5 99.5t59.5 128.5t59 107t73 47q41 0 62.5 -35.5t8.5 -107.5q-28 -158 -130 -260q3 1 7 1q42 0 55 -55q59 68 117 197zM226 414q-14 1 -33 -33.5t-27 -85.5q-8 -44 2.5 -78.5t34.5 -53.5q12 39 20 77q10 46 13.5 86.5
t0.5 64t-11 23.5zM348 -276q24 0 62 63t59 140q-127 -119 -137 -174q-5 -29 16 -29zM155 70q11 0 27 34q-37 23 -50 78q-4 -51 2.5 -81.5t20.5 -30.5z" />
    <glyph glyph-name="o_z" unicode="o&#x7a;" horiz-adv-x="646" 
d="M730 280q-59 -156 -136 -243q-2 -29 -6 -58q-23 -129 -86 -226t-119 -97q-44 0 -65.5 40.5t-12.5 88.5q3 19 11.5 38t17 33.5t25 33l25.5 28t30.5 27l28 22.5t29.5 21.5t24 17.5q8 78 -22 78q-17 0 -35 -13.5t-30 -29.5t-24.5 -29.5t-19.5 -13.5q-26 0 -16 44q9 46 37 68
q13 10 25 7q9 -1 35.5 43t54 110.5t36.5 118.5q11 61 -6 61q-9 0 -30.5 -42.5t-47 -98.5t-71 -117t-95.5 -91q-32 -63 -71 -97t-78 -34q-62 0 -90.5 70t-6.5 195q19 107 57 180.5t68 73.5q21 0 40 -21q42 57 74 57q49 0 67 -69.5t-1 -167.5q-12 -69 -32 -126q34 20 64 68.5
t52 101l44.5 103t51 83t61.5 32.5q41 0 62.5 -35.5t8.5 -107.5q-28 -158 -130 -260q3 1 7 1q42 0 55 -55q59 68 117 197zM230 414q-14 1 -32.5 -33t-26.5 -86q-8 -43 2.5 -77t34.5 -53q9 28 19 75q15 71 16 122.5t-13 51.5zM361 -276q24 0 62 63t59 140q-127 -119 -137 -174
q-5 -29 16 -29zM150 70q16 0 35 37q-51 33 -54 122q-12 -71 -6 -115t25 -44z" />
    <glyph glyph-name="v_z" unicode="v&#x7a;" horiz-adv-x="602" 
d="M686 280q-59 -156 -136 -243q-2 -29 -6 -58q-23 -129 -86 -226t-119 -97q-44 0 -65.5 40.5t-12.5 88.5q3 19 11.5 38t17 33.5t25 33l25.5 28t30.5 27l28 22.5t29.5 21.5t24 17.5q8 78 -22 78q-17 0 -35 -13.5t-30 -29.5t-24.5 -29.5t-19.5 -13.5q-26 0 -16 44q9 46 37 68
q13 10 25 7q9 -1 35.5 43t54 110.5t36.5 118.5q11 61 -6 61q-5 0 -17.5 -27.5l-32.5 -70.5t-45.5 -90t-65 -93t-82.5 -72q-60 -126 -131 -126q-40 0 -59 46.5t-16.5 123.5t16.5 164.5t38 182.5h111q-11 -33 -23.5 -81.5t-22 -100t-14.5 -96.5t-2.5 -73.5t14.5 -28.5
q13 0 32 31q-3 13 -3 29t2.5 35.5t5.5 39t9 44t11.5 44.5t13.5 46.5l14 45l14.5 45.5t12.5 41l90 -1q-44 -231 -91 -355q35 11 96 121q15 29 35 74l34.5 76.5t32 62.5t37.5 47t42 16q41 0 62.5 -35.5t8.5 -107.5q-28 -158 -130 -260q3 1 7 1q42 0 55 -55q59 68 117 197z
M317 -276q24 0 62 63t59 140q-127 -119 -137 -174q-5 -29 16 -29z" />
    <glyph glyph-name="w_z" unicode="w&#x7a;" horiz-adv-x="777" 
d="M861 280q-59 -156 -136 -243q-2 -29 -6 -58q-23 -129 -86 -226t-119 -97q-44 0 -65.5 40.5t-12.5 88.5q3 19 11.5 38t17 33.5t25 33l25.5 28t30.5 27l28 22.5t29.5 21.5t24 17.5q8 78 -22 78q-17 0 -35 -13.5t-30 -29.5t-24.5 -29.5t-19.5 -13.5q-26 0 -16 44q9 46 37 68
q13 10 25 7q9 -1 35.5 43t54 110.5t36.5 118.5q11 61 -6 61q-8 0 -28 -43l-45.5 -99.5t-71.5 -118.5t-98 -92q-60 -126 -131 -126q-75 0 -75 161q-63 -161 -131 -161q-38 0 -52 55.5t4 168.5q22 123 67 293h111q-40 -124 -69.5 -252t-1.5 -128q16 0 41.5 61.5t47.5 142.5
q15 96 37 176h110q-11 -33 -23 -81.5t-21.5 -100t-14.5 -96.5t-2.5 -73.5t13.5 -28.5q14 0 33 31q-3 13 -3 29t2.5 35.5t5.5 39t9 44t11.5 44.5t13.5 46.5l14 45l14.5 45.5t12.5 41l90 -1q-44 -231 -91 -355q36 11 97 116q16 27 49.5 109t63.5 127t67 45q41 0 62.5 -35.5
t8.5 -107.5q-28 -158 -130 -260q3 1 7 1q42 0 55 -55q59 68 117 197zM492 -276q24 0 62 63t59 140q-127 -119 -137 -174q-5 -29 16 -29z" />
    <glyph glyph-name="f_b" unicode="fb" horiz-adv-x="616" 
d="M124 95q16 -5 31 -5.5t29.5 5.5t26.5 12t25 21t22 24t20.5 29l17 29t16 30t12.5 26t11 24l23 -10q-54 -138 -100 -205.5t-100 -73.5q15 -83 0 -168q-23 -134 -107 -134q-31 0 -44.5 43.5t-9 124t14.5 157t28 176.5q53 303 109.5 435.5t143.5 132.5q43 0 53.5 -63
t-9.5 -167q-60 -343 -203 -391q-3 -14 -10 -52zM287 700q-39 0 -125 -416q-8 -35 -19 -91q34 35 72.5 137t59.5 224q13 72 16 108.5t-4 37.5zM98 -206q12 0 17 34q19 106 2 177q-1 1 -4 1.5t-4 0.5q-8 -47 -12.5 -84t-7 -67t-0.5 -46t9 -16zM585 168q53 36 92 122l23 -10
q-54 -133 -141 -176q-32 -64 -72 -99t-79 -35q-41 0 -64.5 19.5t-30.5 61.5t-3.5 93.5t16.5 127.5q11 64 56 276t54 271h120l-32 -116.5l-38.5 -141.5l-32.5 -129q23 41 50 67t47 26q48 0 66 -69.5t0 -167.5q-10 -61 -31 -120zM500 414q-14 1 -33 -33.5t-27 -85.5
q-8 -44 2.5 -78.5t34.5 -53.5q12 39 20 77q10 46 13.5 86.5t0.5 64t-11 23.5zM429 70q11 0 27 34q-37 23 -50 78q-4 -51 2.5 -81.5t20.5 -30.5z" />
    <glyph glyph-name="f_h" unicode="fh" horiz-adv-x="635" 
d="M124 95q16 -5 31 -5.5t29.5 5.5t26.5 12t25 21t22 24t20.5 29l17 29t16 30t12.5 26t11 24l23 -10q-54 -138 -100 -205.5t-100 -73.5q15 -83 0 -168q-23 -134 -107 -134q-31 0 -44.5 43.5t-9 124t14.5 157t28 176.5q53 303 109.5 435.5t143.5 132.5q43 0 53.5 -63
t-9.5 -167q-60 -343 -203 -391q-3 -14 -10 -52zM287 700q-39 0 -125 -416q-8 -35 -19 -91q34 35 72.5 137t59.5 224q13 72 16 108.5t-4 37.5zM98 -206q12 0 17 34q19 106 2 177q-1 1 -4 1.5t-4 0.5q-8 -47 -12.5 -84t-7 -67t-0.5 -46t9 -16zM583 108q29 0 112 182l24 -10
q-49 -126 -105 -217.5t-101 -91.5q-35 0 -49.5 36t-5.5 87q4 20 11 49.5t15 57.5l16 58.5t14 56t9.5 46t2 32t-9.5 11.5q-24 0 -70 -144t-59 -261h-120q41 154 85.5 392t72.5 427h127q-54 -205 -121 -517q27 98 69 161t86 63q76 0 55 -119q-3 -19 -10.5 -46.5l-15.5 -54.5
l-17 -56.5t-15.5 -54t-10 -44.5t-1 -31.5t11.5 -11.5z" />
    <glyph glyph-name="f_j" unicode="fj" horiz-adv-x="450" 
d="M124 95q16 -5 31 -5.5t29.5 5.5t26.5 12t25 21t22 24t20.5 29l17 29t16 30t12.5 26t11 24l23 -10q-54 -138 -100 -205.5t-100 -73.5q15 -83 0 -168q-23 -134 -107 -134q-31 0 -44.5 43.5t-9 124t14.5 157t28 176.5q53 303 109.5 435.5t143.5 132.5q43 0 53.5 -63
t-9.5 -167q-60 -343 -203 -391q-3 -14 -10 -52zM287 700q-39 0 -125 -416q-8 -35 -19 -91q34 35 72.5 137t59.5 224q13 72 16 108.5t-4 37.5zM98 -206q12 0 17 34q19 106 2 177q-1 1 -4 1.5t-4 0.5q-8 -47 -12.5 -84t-7 -67t-0.5 -46t9 -16zM511 290l23 -10
q-39 -105 -74.5 -160.5t-87.5 -109.5q-6 -39 -15 -71q-31 -132 -75 -207.5t-94 -75.5q-44 0 -65.5 40.5t-12.5 88.5q16 95 160 199q0 4 1.5 12l2.5 13q21 95 47 245.5t45 233.5h106q-27 -107 -84 -401q61 67 123 203zM165 -276q43 0 83 166q-89 -89 -98 -137q-5 -29 15 -29z
M433 584q-34 0 -44 32t5 78q13 47 40.5 78.5t61.5 31.5q33 0 43 -32.5t-4 -77.5q-14 -48 -41.5 -79t-60.5 -31z" />
    <glyph glyph-name="f_k" unicode="fk" horiz-adv-x="631" 
d="M124 95q16 -5 31 -5.5t29.5 5.5t26.5 12t25 21t22 24t20.5 29l17 29t16 30t12.5 26t11 24l23 -10q-54 -138 -100 -205.5t-100 -73.5q15 -83 0 -168q-23 -134 -107 -134q-31 0 -44.5 43.5t-9 124t14.5 157t28 176.5q53 303 109.5 435.5t143.5 132.5q43 0 53.5 -63
t-9.5 -167q-60 -343 -203 -391q-3 -14 -10 -52zM287 700q-39 0 -125 -416q-8 -35 -19 -91q34 35 72.5 137t59.5 224q13 72 16 108.5t-4 37.5zM98 -206q12 0 17 34q19 106 2 177q-1 1 -4 1.5t-4 0.5q-8 -47 -12.5 -84t-7 -67t-0.5 -46t9 -16zM579 108q29 0 112 182l24 -10
q-49 -126 -105 -217.5t-101 -91.5q-37 0 -55 30.5t-18 70t-1.5 78.5t-4.5 56q-2 -1 -8 -3q-38 -126 -39 -203h-120q41 154 85.5 392t72.5 427h127q-54 -205 -121 -517q27 99 77 166.5t103 67.5q35 0 51.5 -27t8.5 -73q-15 -94 -131 -174q10 -17 13 -39q2 -13 3 -32.5t2 -32
t3.5 -25.5t8 -19t13.5 -6zM556 463q-19 0 -48 -50.5t-58 -128.5q11 4 14 5q80 77 97 144q8 30 -5 30z" />
    <glyph glyph-name="f_r" unicode="fr" horiz-adv-x="539" 
d="M124 95q16 -5 31 -5.5t29.5 5.5t26.5 12t25 21t22 24t20.5 29l17 29t16 30t12.5 26t11 24l23 -10q-54 -138 -100 -205.5t-100 -73.5q15 -83 0 -168q-23 -134 -107 -134q-31 0 -44.5 43.5t-9 124t14.5 157t28 176.5q53 303 109.5 435.5t143.5 132.5q43 0 53.5 -63
t-9.5 -167q-60 -343 -203 -391q-3 -14 -10 -52zM287 700q-39 0 -125 -416q-8 -35 -19 -91q34 35 72.5 137t59.5 224q13 72 16 108.5t-4 37.5zM98 -206q12 0 17 34q19 106 2 177q-1 1 -4 1.5t-4 0.5q-8 -47 -12.5 -84t-7 -67t-0.5 -46t9 -16zM487 108q30 0 113 182l23 -10
q-49 -126 -105 -217.5t-101 -91.5q-36 0 -52 38t-5 97q4 20 11.5 48.5l15 55.5l16 55.5t15 52.5t10 43.5t1.5 31t-9 12.5q-2 1 -7 2t-7 1q-44 -123 -69 -179l-24 14q39 87 65 174q-22 10 -25.5 33.5t5.5 61.5q5 31 20 67t27 57l12 20l76 -3l-60 -171q41 18 51 18
q76 0 55 -119q-4 -25 -15.5 -64.5l-22 -73.5t-19 -66t-8 -50.5t12.5 -18.5z" />
    <glyph glyph-name="f_t" unicode="ft" horiz-adv-x="480" 
d="M428 108q29 0 112 182l24 -10q-49 -126 -105 -217.5t-101 -91.5q-37 0 -53.5 45.5t-1.5 125.5l2 15q-73 -148 -147 -156q15 -83 0 -168q-23 -134 -107 -134q-31 0 -44.5 43.5t-9 124t14.5 157t28 176.5q53 303 109.5 435.5t143.5 132.5q43 0 53.5 -63t-9.5 -167
q-1 -4 -3 -15.5l-3 -17.5h43q38 196 57 314h118l-68 -314h54l-17 -53l-50 -3q-2 -11 -9 -39l-11 -45q-13 -56 -20.5 -95t-13 -79.5t-2.5 -61.5t16 -21zM124 95q15 -8 31.5 -5.5t29.5 5t27.5 14t25 21t22.5 26t20 29t17.5 30.5l15.5 30l13 27l35 171l-44 -2
q-60 -254 -183 -294q-3 -14 -10 -52zM287 700q-39 0 -125 -416l-19 -91q34 35 72.5 137t59.5 224q13 72 16 108.5t-4 37.5zM98 -206q12 0 17 34q19 106 2 177l-8 2q-8 -47 -12.5 -84t-7 -67t-0.5 -46t9 -16z" />
    <glyph glyph-name=".notdef" horiz-adv-x="210" 
 />
    <glyph glyph-name=".null" horiz-adv-x="0" 
 />
    <glyph glyph-name="nonmarkingreturn" horiz-adv-x="333" 
 />
    <glyph glyph-name="space" unicode=" " horiz-adv-x="210" 
 />
    <glyph glyph-name="exclam" unicode="!" horiz-adv-x="233" 
d="M135 164q44 429 56 565l134 -1l-151 -564h-39zM149 110q30 0 42.5 -19.5t7.5 -50.5q-6 -30 -25.5 -50t-49.5 -20t-43 20t-7 50q5 30 25 50t50 20z" />
    <glyph glyph-name="quotedbl" unicode="&#x22;" horiz-adv-x="331" 
d="M117 657l112 -1q-14 -93 -29 -135q-10 -32 -34 -58t-48 -36l-27 44q20 8 37.5 26.5t19.5 28.5q-18 0 -34.5 12.5t-13.5 33.5q2 8 6 28l7 35t4 22zM249 657l112 -1q-14 -93 -29 -135q-10 -32 -34 -58t-48 -36l-27 44q20 8 37.5 26.5t19.5 28.5q-18 0 -34.5 12.5
t-13.5 33.5q2 8 6 28l7 35t4 22z" />
    <glyph glyph-name="numbersign" unicode="#" horiz-adv-x="425" 
d="M385 416l-34 -81h54l-30 -68h-52l-16 -38h52l-30 -68h-51l-35 -82h-73l34 82h-49l-34 -82h-74l35 82h-54l30 68h52l16 38h-52l30 68h51l34 81h73l-33 -81h49l33 81h74zM233 229l16 38h-49l-16 -38h49z" />
    <glyph glyph-name="dollar" unicode="$" horiz-adv-x="426" 
d="M198 468q-8 -45 5.5 -82.5t38 -64.5l48.5 -53.5t38 -63t6 -80.5q-9 -56 -48.5 -93.5t-94.5 -50.5l-6 -56h-70l14 52q-59 8 -85.5 64.5t-11.5 142.5l108 6l-12 -54q-12 -85 31 -85q18 0 34 16.5t22 47.5q5 29 -9.5 58t-37.5 56t-45 56.5t-34 71t-4 88.5q11 64 55.5 113.5
t101.5 61.5l4 50h70l-12 -49q45 -11 70 -46t15 -89q-5 -29 -18 -57.5t-23 -43.5l-11 -14l-78 36q10 31 16.5 54.5t10.5 49t-1.5 39.5t-20.5 14q-21 0 -40 -27t-26 -68z" />
    <glyph glyph-name="percent" unicode="%" horiz-adv-x="642" 
d="M210 329q-48 0 -77.5 34.5t-18.5 98.5q11 65 52.5 99t89.5 34q47 0 76.5 -34t18.5 -99q-11 -64 -52.5 -98.5t-88.5 -34.5zM252 569q-28 0 -46 -103q-19 -104 9 -104t47 104q18 103 -10 103zM403 269q48 0 77.5 -34t17.5 -99q-11 -65 -52.5 -99t-89.5 -34t-77 34t-18 99
q12 65 53 99t89 34zM362 36q28 0 46 103q18 104 -10 104t-46 -104q-18 -103 10 -103zM30 106l522 440l29 -62l-518 -432z" />
    <glyph glyph-name="ampersand" unicode="&#x26;" horiz-adv-x="549" 
d="M370 283l10 53h190l-10 -53h-47q-9 -63 -38 -131t-74 -116q31 -112 15 -198h-100q11 64 0 136q-36 -15 -78 -15q-88 0 -136 47.5t-34 124.5q12 66 45.5 112.5t87.5 87.5q-32 109 -17 192q18 100 77 154t132 54q69 0 108 -39t27 -105q-6 -35 -21.5 -65.5t-41.5 -57.5
t-47 -45t-57 -46l-53 -42q9 -42 66 -209q33 65 38 161h-42zM299 525q-10 -61 -4 -123q108 84 128 196q13 81 -34 81q-63 0 -90 -154zM266 33q20 0 35 7q-12 44 -72 205q-24 -36 -33 -84q-22 -128 70 -128z" />
    <glyph glyph-name="quotesingle" unicode="'" horiz-adv-x="199" 
d="M117 657l112 -1q-14 -93 -29 -135q-10 -32 -34 -58t-48 -36l-27 44q20 8 37.5 26.5t19.5 28.5q-18 0 -34.5 12.5t-13.5 33.5q2 8 6 28l7 35t4 22z" />
    <glyph glyph-name="parenleft" unicode="(" horiz-adv-x="282" 
d="M347 799l23 -49q-31 -32 -53.5 -60t-50 -75.5t-49.5 -115.5t-37 -154q-31 -182 -20 -271t68 -128l-40 -49q-51 26 -85.5 78.5t-51 145.5t8.5 222q23 127 66.5 219.5t96 145t124.5 91.5z" />
    <glyph glyph-name="parenright" unicode=")" horiz-adv-x="409" 
d="M220 799q91 -59 125.5 -164.5t1.5 -291.5q-33 -183 -112 -294t-174 -152l-21 49q70 40 113 130t74 269q15 86 17.5 154t-8.5 115t-23 76t-32 60z" />
    <glyph glyph-name="asterisk" unicode="*" horiz-adv-x="256" 
d="M262 538q-17 -7 -52 -20q27 -11 47 -22l-35 -53q-7 7 -40 44q0 -7 0.5 -27.5t-0.5 -43.5h-53l9 29.5l7.5 22.5t4.5 15l-51 -41l-16 53q21 9 39.5 15t20.5 7l-16 7l-33 17l36 53q13 -13 31 -37q0 27 2 54h53q-8 -27 -21 -61q3 3 11 9.5l18 15t22 17.5z" />
    <glyph glyph-name="plus" unicode="+" horiz-adv-x="448" 
d="M308 422l-13 -74h74l-16 -90h-74l-13 -74h-90l13 74h-74l16 90h74l13 74h90z" />
    <glyph glyph-name="comma" unicode="," horiz-adv-x="184" 
d="M104 110q62 0 49 -81q-8 -44 -36 -84t-63 -57l-23 36q18 10 32.5 24.5t15.5 21.5q-29 0 -42 20t-7 50q5 30 24.5 50t49.5 20z" />
    <glyph glyph-name="hyphen" unicode="-" horiz-adv-x="448" 
d="M369 348l-16 -90h-238l16 90h238z" />
    <glyph glyph-name="period" unicode="." horiz-adv-x="185" 
d="M104 110q30 0 43 -19.5t8 -50.5q-6 -30 -26 -50t-50 -20q-29 0 -42 20t-7 50q5 30 24.5 50t49.5 20z" />
    <glyph glyph-name="slash" unicode="/" horiz-adv-x="616" 
d="M-7 -41q179 208 624 775l64 -65l-660 -750z" />
    <glyph glyph-name="zero" unicode="0" horiz-adv-x="383" 
d="M292 626q180 0 123 -328q-57 -327 -239 -327q-181 0 -124 327q57 328 240 328zM190 51q58 0 102 255q46 256 -11 256q-58 0 -104 -256q-44 -255 13 -255z" />
    <glyph glyph-name="one" unicode="1" horiz-adv-x="254" 
d="M262 327q-28 -133 -54 -328l-126 1q46 180 75 334q5 29 14 64l-95 -116l-34 42q101 121 169 211q21 54 51 87l74 -43q-11 -15 -30 -37q-8 -24 -14.5 -56.5t-15 -81.5t-14.5 -77z" />
    <glyph glyph-name="two" unicode="2" horiz-adv-x="377" 
d="M199 85q29 0 57.5 18t42.5 36l14 18l55 -89q-3 -3 -8.5 -9t-23.5 -20.5t-37 -25.5t-46.5 -20t-53.5 -9q-25 0 -42 6t-29.5 15t-20.5 12q-17 -6 -37.5 -10.5t-32.5 -5.5l-12 -1l-9 95q100 84 182.5 189.5t98.5 192.5q6 37 0 61t-23 24q-18 0 -35.5 -25t-26.5 -65
q-10 -42 -10 -88l-122 -21q-3 21 2 47q17 97 71.5 155t130.5 58t110.5 -44t20.5 -122q-10 -58 -37.5 -112.5t-68 -99t-77.5 -77t-83 -66.5q4 -2 10.5 -6l10 -6t11.5 -3.5t18 -1.5z" />
    <glyph glyph-name="three" unicode="3" horiz-adv-x="365" 
d="M321 286q67 -40 51 -130q-15 -82 -78 -131t-142 -49q-73 0 -107 42.5t-24 102.5q4 25 14.5 49t18.5 35l8 11l90 -39q-21 -21 -28 -58q-5 -31 6 -53.5t37 -22.5q59 0 78 109q9 50 -6 81q-49 -22 -95 -22l40 106q30 0 55 -4q23 30 41.5 76.5t24.5 86.5q7 37 1 61.5
t-23 24.5q-18 0 -35.5 -25t-26.5 -65q-11 -44 -9 -88l-123 -21q-2 21 3 47q17 97 71.5 155t130.5 58t110.5 -44.5t20.5 -122.5q-17 -93 -104 -170z" />
    <glyph glyph-name="four" unicode="4" horiz-adv-x="408" 
d="M385 251q10 7 19.5 14.5t13.5 11.5l4 4l29 -57q-29 -44 -83 -66q-14 -80 -24 -159l-127 1l39 154q-3 1 -16 4.5l-16.5 4.5t-15.5 3.5t-17.5 2.5t-16.5 -0.5t-19.5 -3t-19.5 -6.5t-22 -10l-7 -7l-74 40q69 84 107 197t47 213l123 2q-36 -202 -125 -349q4 1 11 1
q22 0 36 -3t26.5 -8.5t16.5 -6.5q21 85 28 109q18 67 30 119t19.5 90t10.5 50h96q-8 -27 -16.5 -69l-21 -102l-20.5 -98z" />
    <glyph glyph-name="five" unicode="5" horiz-adv-x="365" 
d="M257 355q65 0 100 -44.5t18 -139.5q-18 -98 -79.5 -146.5t-143.5 -48.5q-73 0 -107 42.5t-24 102.5q4 25 14.5 49t18.5 35l8 11l90 -39q-21 -21 -28 -58q-5 -31 6 -53.5t37 -22.5q59 0 78 109q23 132 -31 132q-37 0 -81 -50l-66 42q36 82 57 215l14 115q64 -18 148.5 -16
t151.5 27l-13 -133q-110 -23 -227 -11q-20 -93 -44 -145q39 27 103 27z" />
    <glyph glyph-name="six" unicode="6" horiz-adv-x="396" 
d="M288 355q65 0 100 -44.5t18 -139.5q-17 -93 -79 -144t-143 -51q-68 0 -106 33.5t-44 87.5t4 124q30 165 143.5 284t211.5 119l4 -91q-58 0 -119 -62t-87 -141q42 25 97 25zM196 42q27 0 52 37.5t34 90.5q10 53 -2 90.5t-39 37.5q-26 0 -51 -37.5t-35 -90.5
q-9 -53 3 -90.5t38 -37.5z" />
    <glyph glyph-name="seven" unicode="7" horiz-adv-x="348" 
d="M434 617l-10 -126q-1 0 -3.5 -0.5t-3.5 -0.5q-86 -71 -158.5 -216t-94.5 -272h-129q21 117 100 252.5t176 220.5q-149 -16 -227 6l23 127q71 -18 162 -16.5t165 25.5z" />
    <glyph glyph-name="eight" unicode="8" horiz-adv-x="385" 
d="M354 304q55 -49 38 -149q-16 -90 -75 -137t-138 -47t-121 47t-26 137q17 99 90 149q-37 48 -22 137q16 90 70 137.5t125 47.5t108 -47.5t21 -137.5q-14 -86 -70 -137zM284 550q-20 0 -40.5 -31.5t-28.5 -76.5q-7 -45 2 -76.5t29 -31.5q21 0 41.5 31.5t27.5 76.5
q8 45 -1 76.5t-30 31.5zM195 44q25 0 47.5 32t30.5 77q8 46 -3 78t-36 32q-24 0 -47.5 -32.5t-31.5 -77.5q-7 -45 4.5 -77t35.5 -32z" />
    <glyph glyph-name="nine" unicode="9" horiz-adv-x="396" 
d="M298 624q67 0 105 -33.5t43.5 -88t-4.5 -124.5q-29 -164 -142.5 -283t-211.5 -119l-5 91q58 0 119.5 62t87.5 140q-42 -25 -97 -25q-64 0 -99.5 45t-18.5 140q17 93 79.5 144t143.5 51zM240 302q26 0 51 37.5t34 90.5q10 53 -2 90.5t-38 37.5t-51.5 -37.5t-35.5 -90.5
q-9 -53 3.5 -90.5t38.5 -37.5z" />
    <glyph glyph-name="colon" unicode=":" horiz-adv-x="283" 
d="M161 202q30 0 43 -20t8 -50q-5 -31 -25.5 -50.5t-50.5 -19.5t-42.5 19.5t-6.5 50.5q5 30 24.5 50t49.5 20zM202 434q30 0 43 -20t8 -50q-5 -31 -25.5 -50.5t-50.5 -19.5t-42.5 19.5t-6.5 50.5q5 30 24.5 50t49.5 20z" />
    <glyph glyph-name="semicolon" unicode=";" horiz-adv-x="283" 
d="M177 294q-30 0 -42.5 19.5t-6.5 50.5q5 30 24.5 50t49.5 20t43 -20t8 -50q-5 -31 -25.5 -50.5t-50.5 -19.5zM161 202q63 0 49 -82q-8 -43 -36 -83.5t-63 -57.5l-23 37q18 11 32.5 25t15.5 21q-30 0 -42.5 19.5t-6.5 50.5q5 30 24.5 50t49.5 20z" />
    <glyph glyph-name="less" unicode="&#x3c;" horiz-adv-x="455" 
d="M277 237q39 -36 69 -78t41 -70l-47 -35q-54 84 -147 147q-59 -19 -108 -7l28 124q41 0 85 -23q97 36 196 146l33 -94q-63 -63 -150 -110z" />
    <glyph glyph-name="equal" unicode="=" horiz-adv-x="470" 
d="M391 413l-16 -90h-238l16 90h238zM369 284l-16 -90h-238l16 90h238z" />
    <glyph glyph-name="greater" unicode="&#x3e;" horiz-adv-x="469" 
d="M349 295q49 23 92 23l-16 -124q-53 -12 -105 7q-115 -62 -200 -147l-35 35q20 28 65 70t97 78q-67 45 -110 110l65 94q64 -112 147 -146z" />
    <glyph glyph-name="question" unicode="?" horiz-adv-x="351" 
d="M306 729q77 0 111.5 -39.5t21.5 -116.5q-8 -43 -35 -85t-61 -77l-68.5 -71t-62.5 -81.5t-37 -94.5l-45 1q14 77 43 143t57 103.5t54 83.5t33 88q7 36 0.5 60t-23.5 24q-18 0 -35 -24.5t-27 -65.5q-11 -52 -8 -87l-124 -21q-1 21 3 47q17 96 72 154.5t131 58.5zM148 110
q30 0 43 -19.5t8 -50.5q-6 -30 -26 -50t-50 -20q-29 0 -42 20t-7 50q5 30 24.5 50t49.5 20z" />
    <glyph glyph-name="at" unicode="@" horiz-adv-x="682" 
d="M448 611q135 0 192.5 -92t32.5 -231q-26 -149 -93 -229t-132 -80q-90 0 -92 76q-47 -85 -107 -85q-40 0 -55.5 70t1.5 167q25 143 79 230.5t104 87.5q52 0 57 -93q11 36 21 56h99q-3 -11 -12 -46.5l-15.5 -60.5l-16.5 -66l-17 -71l-15 -66.5t-12 -62t-6.5 -48.5t-1 -34.5
t7.5 -11.5q25 0 61 83t52 171q13 85 11 151.5t-40.5 107.5t-114.5 41q-102 0 -183.5 -98.5t-106.5 -243.5q-16 -97 -9 -170t45.5 -116t105.5 -43q60 0 103 22l9 -42q-43 -27 -121 -27q-35 0 -66.5 6.5t-65 22t-57 41.5t-42 64.5t-20.5 91.5t8 123q16 92 50.5 164.5
t76.5 116.5t93.5 73t98 40t93.5 11zM378 242q14 68 14.5 116t-12.5 49t-32.5 -46t-33.5 -115t-14.5 -115.5t12.5 -49.5q13 -1 32.5 46t33.5 115z" />
    <glyph glyph-name="A" unicode="A" horiz-adv-x="405" 
d="M392 620q-1 -25 -2 -115t-4 -145q-9 -125 -9 -370l-136 1q4 93 12 159h-88q-35 -91 -66 -152h-99l71 151h-41l13 95l68 -6l37.5 81.5l40 86.5l32.5 69.5t37 75.5t32 58q7 72 23 102h103q4 -53 -24 -91zM196 231q34 -3 65 -3q11 108 12 117q3 32 7 99z" />
    <glyph glyph-name="B" unicode="B" horiz-adv-x="474" 
d="M544 508q-9 -52 -34 -94t-53.5 -65t-56 -38t-45.5 -20l-18 -5q6 -1 16 -2.5t34 -10.5t41 -23t28 -41.5t5 -63.5q-16 -90 -88 -136t-160 -46q-48 0 -79 31q-24 -10 -49 -16t-39 -7l-13 -1l60 133q17 -22 38 -41q27 60 43 179.5t37 224t64 153.5l86 -14q-40 -91 -63 -260
t-31 -198q-18 -73 -69 -114q3 -1 7 -1q50 0 82.5 31.5t43.5 90.5q5 32 1 56t-13 38t-18 14l-3 37q32 1 62 52t46 142q16 92 0 142t-59 50q-45 0 -88.5 -45t-71 -106t-38.5 -120q-3 0 -8 1t-17.5 4t-22 7.5t-16 14t-4.5 20.5q20 113 103.5 193.5t185.5 80.5q93 0 142.5 -62.5
t31.5 -164.5z" />
    <glyph glyph-name="C" unicode="C" horiz-adv-x="465" 
d="M280 36q28 0 56 57.5t43 134.5l88 -6q-20 -110 -77 -185t-136 -75q-56 0 -90.5 50t-40 126t7.5 166q15 82 35 140q-50 42 -66 128l71 43q3 -54 24 -96q44 100 104 157.5t120 57.5q59 0 91 -36.5t21 -101.5q-11 -63 -56 -109t-92.5 -65t-86.5 -19q-14 0 -20 1
q-8 -32 -19 -87q-23 -125 -17 -203t40 -78zM418 682q-26 0 -62.5 -63.5t-65.5 -161.5h3q58 0 94.5 51.5t46.5 108.5q12 65 -16 65z" />
    <glyph glyph-name="D" unicode="D" horiz-adv-x="498" 
d="M370 735q94 0 137 -95.5t11 -278.5q-30 -171 -120 -284.5t-185 -113.5q-48 0 -79 31q-24 -10 -49 -16t-39 -7l-13 -1l60 133q17 -22 38 -41q27 60 43 179.5t37 224t64 153.5l86 -14q-40 -91 -63 -260t-31 -198q-18 -73 -69 -114q3 -1 7 -1q59 0 106.5 93t70.5 225
q59 335 -35 335q-45 0 -88.5 -45t-71 -106t-38.5 -120q-3 0 -8 1t-17.5 4t-22 7.5t-16 14t-4.5 20.5q20 113 103.5 193.5t185.5 80.5z" />
    <glyph glyph-name="E" unicode="E" horiz-adv-x="465" 
d="M379 228l88 -6q-2 -65 -27.5 -123t-77 -97.5t-118.5 -39.5q-85 0 -120.5 46t-21.5 126q7 38 23.5 69.5t33 48.5t37.5 30.5t30 17t17 5.5q-4 1 -10 3.5t-18 11.5t-21 22.5t-16 39t-7 58.5q-52 40 -71 132l54 34q3 -50 27 -87q21 92 88 153.5t150 61.5q59 0 91 -36.5
t21 -101.5q-11 -63 -56 -109t-92.5 -65t-86.5 -19h-7q10 -38 38.5 -51.5t50.5 -6.5l-35 -84q-44 0 -76 -34.5t-41 -85.5q-7 -44 4 -74.5t41 -30.5q43 0 76 62.5t32 129.5zM402 682q-34 0 -66 -59t-48 -147l-3 -19h8q59 0 94.5 47t45.5 103q5 30 -3.5 52.5t-27.5 22.5z" />
    <glyph glyph-name="F" unicode="F" horiz-adv-x="482" 
d="M579 683q-3 -9 -9 -23t-29 -42t-51 -40q-11 -55 -31 -227q-2 -27 -5 -40l51 3l-14 -79q-15 1 -48 1q-26 -137 -74.5 -200t-129.5 -63t-112 57t-17 134l94 4q-11 -38 -5.5 -87.5t35.5 -49.5q31 0 51 48t36 156h-22h-24h-18l14 79l60 -3q1 5 2.5 15t2.5 15q18 150 60 235
q-14 4 -35.5 13t-40 14.5t-39.5 5.5q-37 0 -61.5 -18t-29.5 -50q-5 -30 7.5 -47.5t28.5 -19.5l15 -2l-50 -62q-5 0 -12.5 1.5t-27 8.5t-33 18.5t-22.5 35.5t-3 55q10 57 56.5 101.5t111.5 44.5q41 0 97.5 -19.5t71.5 -21.5q53 69 131 89z" />
    <glyph glyph-name="G" unicode="G" horiz-adv-x="497" 
d="M382 279q6 50 8 80l117 -1q-22 -121 -48 -241q-24 -114 -74.5 -169t-116.5 -55q-62 0 -94 36t-31 93l109 31q-6 -37 1 -68.5t29 -31.5q47 0 74 156q-38 -24 -81 -24q-84 0 -118.5 83.5t-13.5 201.5q10 54 18 80q-47 42 -61 122l71 43q3 -44 17 -83q42 98 103 150t128 52
q59 0 91 -36.5t21 -101.5q-11 -63 -56 -109t-92.5 -65t-86.5 -19q-16 0 -23 1q-1 -4 -2 -11t-2 -10q-39 -224 33 -224q42 0 80 120zM418 682q-31 0 -69 -61.5t-64 -163.5h8q58 0 94.5 51.5t46.5 108.5q12 65 -16 65z" />
    <glyph glyph-name="H" unicode="H" horiz-adv-x="598" 
d="M716 701q-25 -74 -67 -112q-23 -83 -49 -237l-35 -209t-31 -183l-108 1q9 52 22.5 143.5l19.5 131.5h-68q-26 -137 -74.5 -200t-128.5 -63q-56 0 -89 29.5t-41 71t1 90.5l94 4q-11 -38 -5.5 -87.5t35.5 -49.5q31 0 51.5 48t36.5 156h-50l14 79q10 0 46 -2l3 29
q16 140 52 234q-12 4 -27 11t-28 11.5t-27 4.5q-24 0 -46.5 -19t-28.5 -50q-5 -30 7.5 -47.5t28.5 -19.5l15 -2l-49 -61q-5 0 -12.5 1t-27 8.5t-33.5 18.5t-22.5 35t-3.5 55q11 57 57 101.5t111 44.5q24 0 68 -10t52 -11q33 55 76 77l59 -22q-23 -69 -62 -108
q-13 -52 -35 -242q-2 -27 -5 -41q66 3 69 3l5 28q57 326 171 382z" />
    <glyph glyph-name="I" unicode="I" horiz-adv-x="414" 
d="M514 701q-25 -73 -65 -111q-28 -98 -55 -263q-39 -259 -49 -367l-132 1q51 267 75 374q34 153 65 238q-13 3 -41.5 16t-48.5 13q-24 0 -46.5 -19t-28.5 -50q-5 -30 7.5 -47.5t28.5 -19.5l15 -2l-49 -61q-5 0 -12.5 1t-27 8.5t-33.5 18.5t-22.5 35t-3.5 55q11 57 57 101.5
t111 44.5q25 0 70.5 -10.5t54.5 -11.5q32 59 71 78z" />
    <glyph glyph-name="J" unicode="J" horiz-adv-x="410" 
d="M514 701q-23 -69 -62 -108q-13 -52 -35 -242q-22 -199 -73.5 -288.5t-146.5 -89.5q-56 0 -89 29.5t-41 71t1 90.5l94 4q-11 -38 -5.5 -87.5t35.5 -49.5q37 0 60 71.5t41 238.5q16 140 52 234q-12 4 -27 11t-28 11.5t-27 4.5q-24 0 -46.5 -19t-28.5 -50q-5 -30 7.5 -47.5
t28.5 -19.5l15 -2l-49 -61q-5 0 -12.5 1t-27 8.5t-33.5 18.5t-22.5 35t-3.5 55q11 57 57 101.5t111 44.5q24 0 68 -10t52 -11q33 55 76 77z" />
    <glyph glyph-name="K" unicode="K" horiz-adv-x="621" 
d="M584 290q-12 -120 -6 -164q9 -57 42 -84l-101 -101q-33 18 -51.5 46.5t-22 67.5t-2 67t7.5 72q1 10 2 15q8 45 1 74.5t-36 28.5q-1 0 -3 -2t-3 -2q-23 -176 -74 -255.5t-141 -79.5q-56 0 -89 29.5t-41 71t1 90.5l94 4q-11 -38 -5.5 -87.5t35.5 -49.5q37 0 60 71.5
t41 238.5q16 140 52 234q-12 4 -27 11t-28 11.5t-27 4.5q-24 0 -46.5 -19t-28.5 -50q-5 -30 7.5 -47.5t28.5 -19.5l15 -2l-49 -61q-5 0 -12.5 1t-27 8.5t-33.5 18.5t-22.5 35t-3.5 55q11 57 57 101.5t111 44.5q24 0 68 -10t52 -11q33 55 76 77l59 -22q-23 -69 -62 -108
q-11 -43 -24 -145q9 12 42 60t47 65.5t40.5 48t49 44t46.5 16.5l27 -100q-25 -9 -47 -23t-43 -37t-34 -39t-36 -48.5t-33 -45.5q55 7 78.5 -19t18.5 -80z" />
    <glyph glyph-name="L" unicode="L" horiz-adv-x="429" 
d="M237 71q36 0 67.5 23t45.5 46l14 23l56 -104l-8.5 -11t-24 -25.5t-39 -32t-51.5 -25t-62 -11.5q-35 0 -57.5 10.5t-40.5 29t-22 20.5q-19 -10 -42.5 -18.5t-37.5 -11.5l-14 -4l-8 95q32 32 85 35q23 40 28.5 92t-0.5 99t-6.5 106t9.5 113q24 108 97 163t160 55
q62 0 89.5 -42.5t10.5 -122.5q-12 -53 -43 -105t-56 -77l-25 -25l-63 71q60 67 82 158q19 73 -9 81q-3 1 -6 1q-36 0 -72.5 -56t-50.5 -125q-13 -58 -13 -141t-7 -149.5t-38 -117.5q30 -17 52 -17z" />
    <glyph glyph-name="M" unicode="M" horiz-adv-x="853" 
d="M797 657q58 0 71 -80t-23 -205q-28 -100 -47 -198.5t-24 -146.5l-5 -48h-122q9 55 21.5 119t24.5 115.5l24 103.5t20 90.5t12.5 69t2.5 46.5t-12 16q-22 0 -52 -60.5t-62 -173.5l-67 -326h-122q9 58 22.5 125.5t26 121.5l25 109t20.5 95.5t13 73t3 49t-12 16.5
q-23 0 -56 -73.5t-70 -211.5q-26 -163 -76 -237t-136 -74q-56 0 -89 29.5t-41 71t1 90.5l94 4q-11 -38 -5.5 -87.5t35.5 -49.5q37 0 60 71.5t41 238.5q15 141 43 237q-8 3 -23 10t-26 10.5t-24 3.5q-24 0 -46.5 -19t-28.5 -50q-5 -30 7.5 -47.5t28.5 -19.5l15 -2l-49 -61
q-5 0 -12.5 1t-27 8.5t-33.5 18.5t-22.5 35t-3.5 55q11 57 57 101.5t111 44.5q26 0 63.5 -11t38.5 -11q25 54 54 78l59 -22q-25 -86 -54 -120q-1 -22 0.5 -68.5t1.5 -67.5q28 111 75 180.5t97 69.5q81 0 70 -170q61 132 133 132z" />
    <glyph glyph-name="N" unicode="N" horiz-adv-x="648" 
d="M594 695q58 0 70 -84.5t-25 -216.5q-29 -106 -49 -210t-26 -154l-5 -51h-122q9 58 22.5 125.5t26 121.5l25 109t20.5 95.5t13 73t3 49t-12 16.5q-23 0 -56 -73.5t-70 -211.5q-26 -163 -76 -237t-136 -74q-56 0 -89 29.5t-41 71t1 90.5l94 4q-11 -38 -5.5 -87.5
t35.5 -49.5q37 0 60 71.5t41 238.5q15 141 43 237q-8 3 -23 10t-26 10.5t-24 3.5q-24 0 -46.5 -19t-28.5 -50q-5 -30 7.5 -47.5t28.5 -19.5l15 -2l-49 -61q-5 0 -12.5 1t-27 8.5t-33.5 18.5t-22.5 35t-3.5 55q11 57 57 101.5t111 44.5q26 0 63.5 -11t38.5 -11q25 54 54 78
l59 -22q-25 -86 -54 -120q-1 -22 0.5 -68.5t1.5 -67.5q28 111 75 180.5t97 69.5z" />
    <glyph glyph-name="O" unicode="O" horiz-adv-x="512" 
d="M511 525q34 -39 3 -212q-26 -148 -89.5 -249t-146.5 -101q-87 0 -121 96.5t-5 259.5q7 43 20 91q-58 44 -75 144l71 45q3 -69 29 -113q45 115 109 185t129 70q54 0 79.5 -45.5t13.5 -116.5q-5 -26 -17 -54zM411 652q-21 0 -50 -62t-54 -156q34 6 60 37.5t38 63.5t19 67
q9 50 -13 50zM295 41q24 0 52 74t47 184q10 57 14 113q-60 -35 -116 -37q-11 -55 -12 -62q-19 -103 -14 -187.5t29 -84.5z" />
    <glyph glyph-name="P" unicode="P" horiz-adv-x="471" 
d="M370 735q93 0 141.5 -67t28.5 -181q-12 -70 -43.5 -124.5t-70.5 -84t-75.5 -44t-68.5 -15.5q-6 -39 -15 -72q-12 -49 -40.5 -85t-60.5 -53t-62.5 -26.5t-50.5 -10.5l-20 -2l60 133q32 -37 38 -43q22 49 37.5 134.5t23 159.5t28.5 150t55 115l86 -14q-9 -19 -16.5 -41
t-12.5 -39.5t-10.5 -43.5l-8.5 -40t-7.5 -43.5t-5.5 -39t-5 -42t-5 -38.5h5q74 4 108 194q18 106 2.5 159.5t-58.5 53.5q-45 0 -88.5 -45t-71 -106t-38.5 -120q-3 0 -8 1t-17.5 4t-22 7.5t-16 14t-4.5 20.5q20 113 103.5 193.5t185.5 80.5z" />
    <glyph glyph-name="Q" unicode="Q" horiz-adv-x="512" 
d="M511 525q34 -39 3 -212q-33 -179 -108 -275q9 -34 50 -42l-63 -93q-57 18 -78 66q-18 -6 -37 -6q-87 0 -121 96.5t-5 259.5q7 43 20 91q-58 44 -75 144l71 45q3 -69 29 -113q45 115 109 185t129 70q54 0 79.5 -45.5t13.5 -116.5q-5 -26 -17 -54zM411 652q-21 0 -50 -62
t-54 -156q34 6 60 37.5t38 63.5t19 67q9 50 -13 50zM295 41q24 0 52 74t47 184q10 57 14 113q-60 -35 -116 -37q-11 -55 -12 -62q-19 -103 -14 -187.5t29 -84.5z" />
    <glyph glyph-name="R" unicode="R" horiz-adv-x="501" 
d="M452 207q0 -3 -1.5 -22.5t-2 -25t-1 -23t0.5 -24.5l3 -21.5t6 -22.5l9.5 -18.5t13.5 -18t19 -13.5l-67 -99q-48 19 -73 55t-26.5 78t3.5 90q9 86 -53 82q-11 -61 -16 -77q-12 -49 -40.5 -85t-60.5 -53t-62.5 -26.5t-50.5 -10.5l-20 -2l60 133q32 -37 38 -43
q22 49 37.5 134.5t23 159.5t28.5 150t55 115l86 -14q-9 -19 -16.5 -41t-12.5 -39.5t-10.5 -43.5l-8.5 -40t-7.5 -43.5t-5.5 -39t-5 -42t-5 -38.5h5q74 4 108 194q18 106 2.5 159.5t-58.5 53.5q-45 0 -88.5 -45t-71 -106t-38.5 -120q-3 0 -8 1t-17.5 4t-22 7.5t-16 14
t-4.5 20.5q20 113 103.5 193.5t185.5 80.5q93 0 141.5 -67t28.5 -181q-24 -141 -123 -211q38 -18 35 -69z" />
    <glyph glyph-name="S" unicode="S" horiz-adv-x="426" 
d="M244 554q-8 -47 7 -90.5t41.5 -78.5l53 -70t43.5 -80.5t11 -95.5q-9 -82 -76.5 -130.5t-151.5 -48.5q-80 0 -117.5 69t-18.5 180l131 8q-1 -2 -1.5 -6t-3 -16t-4.5 -23.5t-3.5 -27.5t-1 -29.5t2.5 -27.5t7 -24t13.5 -16t20.5 -6q20 0 37 24t22 63q5 36 -10 74t-38.5 73
t-46.5 73.5t-35 91t-4 110.5q12 88 71.5 138t140.5 50q66 0 109 -44t30 -121q-6 -35 -22 -70t-29 -52l-12 -17l-94 44q24 38 35 85t4 80.5t-31 33.5q-25 0 -47.5 -33.5t-32.5 -89.5z" />
    <glyph glyph-name="T" unicode="T" horiz-adv-x="469" 
d="M649 651q-2 -3 -6.5 -7t-19 -15.5t-29.5 -20.5t-38 -17.5t-46 -10.5q-33 -66 -51 -229q-22 -199 -73.5 -288.5t-146.5 -89.5q-81 0 -112 57t-17 134l94 4q-11 -38 -5.5 -87.5t35.5 -49.5q37 0 59 70t43 240q18 163 66 248q-93 20 -121 20q-37 0 -61.5 -18t-29.5 -50
q-5 -30 7.5 -47.5t28.5 -19.5l15 -2l-50 -62q-5 0 -12.5 1.5t-27 8.5t-33 18.5t-22.5 35.5t-3 55q10 57 56.5 101.5t111.5 44.5q26 0 56.5 -6t66 -15.5t55.5 -13.5q64 66 184 83z" />
    <glyph glyph-name="U" unicode="U" horiz-adv-x="627" 
d="M742 701q-25 -74 -66 -112q-28 -94 -54 -262q-41 -277 -49 -367h-115q3 13 42 229q-84 -228 -167 -228q-56 0 -77 62t-9.5 159.5t35.5 197.5t58 196l-23.5 10.5t-27.5 11t-25 3.5q-24 0 -46 -19t-28 -49q-5 -30 7.5 -47.5t28.5 -19.5l15 -2l-50 -62q-5 0 -12.5 1.5
t-27 8.5t-33 18.5t-22 35.5t-3.5 55q11 57 57.5 101.5t110.5 44.5q16 0 33 -3t41 -8.5t32 -7.5q12 30 34 74l115 -21q-23 -68 -61 -107q-40 -146 -68 -332t2 -186q12 0 46.5 86t92.5 253t63 179l1 -2q37 104 91 130z" />
    <glyph glyph-name="V" unicode="V" horiz-adv-x="575" 
d="M417 50q10 57 26.5 120.5t29.5 108.5t39.5 117.5l38 103l44.5 112.5t40 101h108q-19 -45 -98.5 -211t-129.5 -295.5t-69 -240.5l-127 -4q4 23 6.5 57.5t3 87.5t0.5 88.5t-1 106t-1 94.5q0 110 12 189q-9 3 -24 10t-26.5 10.5t-24.5 3.5q-24 0 -46.5 -19t-27.5 -50
q-5 -30 7.5 -47.5t28.5 -19.5l15 -2l-50 -61q-5 0 -12.5 1t-27 8.5t-33 18.5t-22.5 35t-3 55q10 57 56 101.5t111 44.5q19 0 94 -14q16 54 35 63l141 -15q-20 -45 -50 -83q-7 -40 -24.5 -247.5t-38.5 -327.5z" />
    <glyph glyph-name="W" unicode="W" horiz-adv-x="853" 
d="M699 50q50 283 214 695h108q-10 -24 -73 -165.5l-94 -215.5t-71 -192.5t-55 -205.5l-127 -4q5 27 7 81t2 99t-0.5 127.5t-0.5 117.5l-68 -137t-54.5 -134t-40.5 -150l-127 -4q4 23 6.5 57.5t3 87.5t0.5 88.5t-1 106t-1 94.5q0 110 12 189q-9 3 -24 10t-26.5 10.5
t-24.5 3.5q-24 0 -46.5 -19t-27.5 -50q-5 -30 7.5 -47.5t28.5 -19.5l15 -2l-50 -61q-5 0 -12.5 1t-27 8.5t-33 18.5t-22.5 35t-3 55q10 57 56 101.5t111 44.5q19 0 94 -14q16 54 35 63l141 -15q-20 -45 -50 -83q-7 -40 -24.5 -247.5t-38.5 -327.5q14 80 38.5 159.5t44 128
t57.5 135.5t56 132q7 39 28 48l140 -15q-19 -43 -48 -81q-3 -23 -7.5 -203.5t-26.5 -303.5z" />
    <glyph glyph-name="X" unicode="X" horiz-adv-x="499" 
d="M579 569q-74 -10 -125 -62.5t-93 -140.5q12 -30 29.5 -68l29.5 -63.5t27 -62.5t20 -63.5t8.5 -68t-5.5 -75.5h-159q21 115 -23 230q-23 -55 -42.5 -92t-47 -73.5t-62.5 -54.5t-77 -18l-38 167q127 0 226 168q-22 50 -34.5 86t-25 92t-12 122t14.5 142h138
q-25 -147 3 -272l36.5 80t35.5 68t41 61.5t43 37t51 18.5z" />
    <glyph glyph-name="Y" unicode="Y" horiz-adv-x="638" 
d="M589 670l116 -2q-58 -343 -116 -524q-40 -125 -91 -188.5t-127 -63.5q-62 0 -93.5 36t-29.5 93l108 31q-5 -34 6 -61.5t34 -27.5q25 0 50.5 55.5t43.5 128.5l22 88q-58 -135 -135 -135q-46 0 -66.5 43.5t-16.5 117t18.5 150.5t39.5 162q-11 3 -39.5 15.5t-48.5 12.5
q-24 0 -46 -19t-28 -49q-5 -30 7.5 -47.5t28.5 -19.5l15 -2l-50 -62q-5 0 -12.5 1.5t-27 8.5t-33 18.5t-22 35.5t-3.5 55q11 57 57.5 101.5t110.5 44.5q17 0 36 -3.5t42.5 -9.5t34.5 -8q5 15 27 76l115 -21q-17 -52 -48 -92q-46 -235 -52 -297q-9 -97 17 -97q32 0 153 428
q1 6 2 15.5t1 11.5z" />
    <glyph glyph-name="Z" unicode="Z" horiz-adv-x="442" 
d="M421 185q-17 -120 -95 -205.5t-167 -85.5q-76 0 -116.5 51t-29.5 132q14 92 66.5 133t115.5 41l4 -54q-28 0 -45.5 -38t-25.5 -93q-6 -49 5.5 -84.5t40.5 -35.5q36 0 71 72.5t51 180.5q6 42 1.5 73.5t-16 46.5t-26 25t-28.5 9t-23 -2l33 84q44 0 74.5 34.5t37.5 85.5
q7 45 -3 75t-40 30q-34 0 -53.5 -49t-17.5 -116l-123 -21q0 102 57.5 181t156.5 79q85 0 122 -46t26 -126q-6 -40 -22.5 -72t-35.5 -50t-37.5 -30t-30.5 -16l-12 -4q1 0 3.5 -0.5t10 -2.5t15 -5t16.5 -10.5t16.5 -17.5t14.5 -26t10.5 -35.5t3.5 -47t-5 -60.5z" />
    <glyph glyph-name="bracketleft" unicode="[" horiz-adv-x="333" 
d="M193 768q28 -3 78.5 -2.5t100.5 2.5l49 2l-14 -83l-107 21q-12 -131 -50.5 -341.5t-75.5 -377.5l113 21l-14 -83q-20 1 -48.5 2t-99.5 2t-79 -2q49 190 91.5 427t55.5 412z" />
    <glyph glyph-name="backslash" unicode="\" horiz-adv-x="280" 
d="M89 699l101 35q-1 -118 22 -798l-52 -17q-46 530 -71 780z" />
    <glyph glyph-name="bracketright" unicode="]" horiz-adv-x="461" 
d="M187 770q20 -1 48.5 -2t100 -2t79.5 2q-49 -176 -90.5 -413.5t-57.5 -425.5q-28 3 -78.5 2.5t-99.5 -2.5l-49 -2l13 83l106 -21q60 450 126 719l-112 -21z" />
    <glyph glyph-name="asciicircum" unicode="^" horiz-adv-x="314" 
d="M274 417q-32 19 -59 71q-47 -57 -96 -74l-36 59q67 32 110 87q-3 25 1 49l77 4q-3 -29 -15 -59q17 -57 64 -92z" />
    <glyph glyph-name="underscore" unicode="_" horiz-adv-x="953" 
d="M39 -35l8 52h888l-9 -52h-887z" />
    <glyph glyph-name="grave" unicode="`" horiz-adv-x="326" 
d="M100 681l73 48l53 -126l-58 -33z" />
    <glyph glyph-name="a" unicode="a" horiz-adv-x="376" 
d="M325 108q29 0 112 182l23 -10q-31 -80 -63.5 -145.5t-71.5 -114.5t-70 -49q-28 0 -43 23.5t-15 61.5q-47 -85 -107 -85q-40 0 -55.5 69.5t1.5 167.5q26 143 79 230t103 87q51 0 58 -93q11 36 21 56h98l-15.5 -57.5l-18.5 -70l-18 -70.5t-15.5 -69.5t-9.5 -56.5
t-2.5 -41.5t9.5 -14.5zM218 242q14 68 14.5 116t-12.5 49t-32.5 -46t-33.5 -114q-14 -68 -14.5 -116t12.5 -49t32.5 46t33.5 114z" />
    <glyph glyph-name="b" unicode="b" horiz-adv-x="342" 
d="M311 168q53 36 92 122l23 -10q-54 -133 -141 -176q-32 -64 -72 -99t-79 -35q-41 0 -64.5 19.5t-30.5 61.5t-3.5 93.5t16.5 127.5q11 64 56 276t54 271h120l-32 -116.5l-38.5 -141.5l-32.5 -129q23 41 50 67t47 26q48 0 66 -69.5t0 -167.5q-10 -61 -31 -120zM226 414
q-14 1 -33 -33.5t-27 -85.5q-8 -44 2.5 -78.5t34.5 -53.5q12 39 20 77q10 46 13.5 86.5t0.5 64t-11 23.5zM155 70q11 0 27 34q-37 23 -50 78q-4 -51 2.5 -81.5t20.5 -30.5z" />
    <glyph glyph-name="c" unicode="c" 
d="M210 59q49 0 95.5 60.5t95.5 170.5l24 -10q-124 -321 -259 -321q-64 0 -106.5 68.5t-19.5 200.5q23 130 83 213.5t123 83.5q69 0 95 -59t-1 -158q-8 -28 -67 -33q-46 -4 -52 10q-1 2 0 5q14 36 18.5 80.5t-7.5 46.5q-19 0 -41.5 -55t-36.5 -132q-13 -76 2.5 -123.5
t53.5 -47.5z" />
    <glyph glyph-name="d" unicode="d" horiz-adv-x="377" 
d="M330 108q23 0 99 163q6 13 9 19l23 -10q-49 -126 -105 -217.5t-101 -91.5q-54 0 -54 93q-47 -93 -111 -93q-40 0 -55.5 69.5t1.5 167.5q26 143 79 230t103 87q42 0 54 -58q42 219 56 352h127q-24 -91 -50 -223.5t-47 -224.5q-42 -181 -43 -223q-2 -40 15 -40zM218 242
q14 68 14.5 116t-12.5 49t-32.5 -46t-33.5 -114q-14 -68 -14.5 -116t12.5 -49t32.5 46t33.5 114z" />
    <glyph glyph-name="e" unicode="e" 
d="M210 59q49 0 95.5 60.5t95.5 170.5l24 -10q-124 -321 -259 -321q-64 0 -106.5 68.5t-19.5 200.5q23 130 83 213.5t123 83.5q69 0 95 -59t-1 -158q-25 -87 -78.5 -140t-109.5 -45q12 -64 58 -64zM232 417q-19 0 -41.5 -55t-36.5 -132q-4 -23 -6 -46q22 11 44.5 48.5
t38.5 95.5q11 39 12 62.5t-11 26.5z" />
    <glyph glyph-name="f" unicode="f" horiz-adv-x="274" 
d="M124 95q16 -5 31 -5.5t29.5 5.5t26.5 12t25 21t22 24t20.5 29l17 29t16 30t12.5 26t11 24l23 -10q-54 -138 -100 -205.5t-100 -73.5q15 -83 0 -168q-23 -134 -107 -134q-31 0 -44.5 43.5t-9 124t14.5 157t28 176.5q53 303 109.5 435.5t143.5 132.5q45 0 63.5 -64
t0.5 -166q-29 -164 -87 -264.5t-136 -126.5q-3 -14 -10 -52zM287 700q-39 0 -125 -416q-8 -35 -19 -91q34 35 72.5 137t59.5 224q13 72 16 108.5t-4 37.5zM98 -206q12 0 17 34q19 106 2 177q-1 1 -4 1.5t-4 0.5q-8 -47 -12.5 -84t-7 -67t-0.5 -46t9 -16z" />
    <glyph glyph-name="g" unicode="g" horiz-adv-x="355" 
d="M416 290l23 -10q-40 -107 -75.5 -162.5t-88.5 -110.5q-2 -10 -7.5 -33.5t-7.5 -34.5q-31 -132 -75 -207.5t-93 -75.5q-45 0 -66 40t-12 89q7 42 38 84t58.5 65.5t68.5 53.5q4 14 5 21t4 20t4 19q-46 -77 -90 -77q-48 0 -66 69.5t0 167.5q26 143 79 230t103 87
q34 0 48 -37h108q-14 -59 -84 -404q63 68 126 206zM218 242q14 68 14.5 116t-12.5 49t-32.5 -46t-33.5 -114q-14 -68 -14.5 -116t12.5 -49t32.5 46t33.5 114zM69 -276q45 0 88 172q-95 -95 -103 -143q-5 -29 15 -29z" />
    <glyph glyph-name="h" unicode="h" horiz-adv-x="361" 
d="M309 108q29 0 112 182l24 -10q-49 -126 -105 -217.5t-101 -91.5q-35 0 -49.5 36t-5.5 87q4 20 11 49.5t15 57.5l16 58.5t14 56t9.5 46t2 32t-9.5 11.5q-24 0 -70 -144t-59 -261h-120q41 154 85.5 392t72.5 427h127q-54 -205 -121 -517q27 98 69 161t86 63q76 0 55 -119
q-3 -19 -10.5 -46.5l-15.5 -54.5l-17 -56.5t-15.5 -54t-10 -44.5t-1 -31.5t11.5 -11.5z" />
    <glyph glyph-name="i" unicode="i" horiz-adv-x="191" 
d="M252 290l23 -10q-49 -126 -105 -217.5t-101 -91.5q-36 0 -46 56t6 142q9 51 35 163.5t35 155.5h111l-15 -65t-18 -72l-18 -71.5l-15.5 -67t-10 -53.5t-2.5 -37.5t8 -13.5q27 0 113 182zM166 584q-34 0 -43.5 32t4.5 78q13 47 41 78.5t61 31.5t43 -32.5t-3 -77.5
q-14 -48 -42 -79t-61 -31z" />
    <glyph glyph-name="j" unicode="j" horiz-adv-x="176" 
d="M237 290l23 -10q-39 -105 -74.5 -160.5t-87.5 -109.5q-6 -39 -15 -71q-31 -132 -75 -207.5t-94 -75.5q-44 0 -65.5 40.5t-12.5 88.5q16 95 160 199q0 4 1.5 12l2.5 13q21 95 47 245.5t45 233.5h106q-27 -107 -84 -401q61 67 123 203zM-109 -276q43 0 83 166
q-89 -89 -98 -137q-5 -29 15 -29zM159 584q-34 0 -44 32t5 78q13 47 40.5 78.5t61.5 31.5q33 0 43 -32.5t-4 -77.5q-14 -48 -41.5 -79t-60.5 -31z" />
    <glyph glyph-name="k" unicode="k" horiz-adv-x="357" 
d="M305 108q29 0 112 182l24 -10q-49 -126 -105 -217.5t-101 -91.5q-37 0 -55 30.5t-18 70t-1.5 78.5t-4.5 56q-2 -1 -8 -3q-38 -126 -39 -203h-120q41 154 85.5 392t72.5 427h127q-54 -205 -121 -517q27 99 77 166.5t103 67.5q35 0 51.5 -27t8.5 -73q-15 -94 -131 -174
q10 -17 13 -39q2 -13 3 -32.5t2 -32t3.5 -25.5t8 -19t13.5 -6zM282 463q-19 0 -48 -50.5t-58 -128.5q11 4 14 5q80 77 97 144q8 30 -5 30z" />
    <glyph glyph-name="l" unicode="l" horiz-adv-x="192" 
d="M145 108q25 0 108 182l23 -10q-49 -126 -105 -217.5t-100 -91.5q-37 0 -49 44.5t3 126.5q11 66 64 315t63 362h128q-20 -75 -34 -133t-34 -152l-37 -169q-42 -176 -44 -214q-3 -43 14 -43z" />
    <glyph glyph-name="m" unicode="m" horiz-adv-x="531" 
d="M479 108q27 0 113 182l23 -10q-49 -126 -105 -217.5t-101 -91.5q-35 0 -49.5 36t-5.5 87q4 20 11 49.5t15 57.5l16 58.5t14 56t9.5 46t2 32t-9.5 11.5q-24 0 -70.5 -144t-59.5 -261h-120q36 108 69.5 256.5t8.5 148.5q-24 0 -70 -144t-59 -261h-120q73 278 88 490l119 2
q-14 -43 -43 -190q27 98 69 161t86 63q35 0 40.5 -62.5t-22.5 -160.5q27 99 68.5 161t85.5 62q76 0 55 -119q-3 -19 -10.5 -46.5l-15.5 -54.5l-17 -56.5t-15.5 -54t-10 -44.5t-1 -31.5t11.5 -11.5z" />
    <glyph glyph-name="n" unicode="n" horiz-adv-x="359" 
d="M307 108q29 0 112 182l24 -10q-49 -126 -105 -217.5t-101 -91.5q-35 0 -49.5 36t-5.5 87q4 20 11 49.5t15 57.5l16 58.5t14 56t9.5 46t2 32t-9.5 11.5q-24 0 -70 -144t-59 -261h-120q73 278 88 490l119 2q-14 -43 -43 -190q27 98 69 161t86 63q76 0 55 -119
q-3 -19 -10.5 -46.5l-15.5 -54.5l-17 -56.5t-15.5 -54t-10 -44.5t-1 -31.5t11.5 -11.5z" />
    <glyph glyph-name="o" unicode="o" horiz-adv-x="355" 
d="M314 162q58 33 102 128l23 -10q-28 -70 -68 -116t-84 -63q-32 -63 -71 -97t-78 -34q-62 0 -90.5 70t-6.5 195q19 107 57 180.5t68 73.5q21 0 40 -21q42 57 74 57q49 0 67 -69.5t-1 -167.5q-12 -69 -32 -126zM230 414q-14 1 -32.5 -33t-26.5 -86q-8 -43 2.5 -77t34.5 -53
q9 28 19 75q15 71 16 122.5t-13 51.5zM150 70q16 0 35 37q-51 33 -54 122q-12 -71 -6 -115t25 -44z" />
    <glyph glyph-name="p" unicode="p" horiz-adv-x="326" 
d="M245 67q44 45 75 94t67 129l23 -10q-31 -82 -70.5 -150.5t-93.5 -116.5t-106 -42h-4q-37 0 -50 47q-11 -68 -24 -198l-98 1q79 338 117 667h110q31 37 61 37q48 0 66 -69.5t0 -167.5q-22 -130 -73 -221zM131 70q13 -1 33 48.5t35 121.5q15 71 16 122.5t-13 51.5
q-13 1 -33 -49t-34 -120q-15 -71 -16 -122t12 -53z" />
    <glyph glyph-name="q" unicode="q" horiz-adv-x="339" 
d="M400 290l23 -10q-78 -208 -162 -333q-12 -104 -14 -127l-99 1q26 111 51 239q-49 -89 -97 -89t-66 69.5t0 167.5q26 143 79 230t103 87q34 0 48 -37h110q-65 -193 -103 -451q44 71 127 253zM218 242q14 68 14.5 116t-12.5 49t-32.5 -46t-33.5 -114q-14 -68 -14.5 -116
t12.5 -49t32.5 46t33.5 114z" />
    <glyph glyph-name="r" unicode="r" horiz-adv-x="265" 
d="M213 108q30 0 113 182l23 -10q-49 -126 -105 -217.5t-101 -91.5q-36 0 -52 38t-5 97q4 20 11.5 48.5l15 55.5l16 55.5t15 52.5t10 43.5t1.5 31t-9 12.5q-3 1 -7 2t-7 1q-44 -123 -69 -179l-24 14q39 87 65 174q-52 24 -40 95q5 31 20 67t27 57l12 20l96 -3l-60 -171
q40 18 51 18q76 0 55 -119q-4 -25 -15.5 -64.5l-22 -73.5t-19 -66t-8 -50.5t12.5 -18.5z" />
    <glyph glyph-name="s" unicode="s" horiz-adv-x="300" 
d="M251 94q45 53 110 196l23 -10q-31 -84 -64.5 -144.5t-85.5 -106t-112 -52.5q-24 -7 -46 -7q-51 0 -77 36t-19 74q6 33 56 73q37 30 41 18q1 -1 0 -4q-31 -125 14 -125q15 0 28.5 23.5t20.5 61.5q7 27 5 66t-5 61t-9.5 59t-9.5 59l-22.5 -56l-20.5 -51.5t-14 -32.5l-24 11
q58 133 81 233v-1q0 2 0.5 5t1.5 5q7 37 22 68t27 43l12 12l88 -15q-32 -49 -41 -102q-9 -52 17.5 -168.5t15.5 -181.5q-5 -28 -13 -47z" />
    <glyph glyph-name="t" unicode="t" horiz-adv-x="206" 
d="M154 108q29 0 112 182l24 -10q-49 -126 -105 -217.5t-101 -91.5q-37 0 -53.5 45.5t-1.5 125.5q12 73 58 301l-39 -2l15 64h37q38 196 57 314h118l-68 -314h54l-17 -53l-50 -3q-3 -11 -9.5 -39l-10.5 -45q-13 -56 -20.5 -95t-13 -79.5t-2.5 -61.5t16 -21z" />
    <glyph glyph-name="u" unicode="u" horiz-adv-x="367" 
d="M315 108q30 0 113 182l23 -10q-49 -126 -105 -217.5t-101 -91.5q-68 0 -50 148q-67 -148 -124 -148q-77 0 -45 181q29 165 75 336h111q-40 -124 -69.5 -252t-1.5 -128q16 0 44.5 69t49.5 155q20 95 41 156h110q-38 -107 -68.5 -243.5t-2.5 -136.5z" />
    <glyph glyph-name="v" unicode="v" horiz-adv-x="311" 
d="M266 153q49 15 115 137l24 -12q-78 -170 -161 -181q-60 -126 -131 -126q-40 0 -59 46.5t-16.5 123.5t16.5 164.5t38 182.5h111q-11 -33 -23.5 -81.5t-22 -100t-14.5 -96.5t-2.5 -73.5t14.5 -28.5q13 0 32 31q-3 13 -3 29t2.5 35.5t5.5 39t9 44t11.5 44.5t13.5 46.5l14 45
l14.5 45.5t12.5 41l90 -1q-44 -231 -91 -355z" />
    <glyph glyph-name="w" unicode="w" horiz-adv-x="486" 
d="M441 153q49 15 115 137l24 -12q-78 -170 -161 -181q-60 -126 -131 -126q-75 0 -75 161q-63 -161 -131 -161q-38 0 -52 55.5t4 168.5q22 123 67 293h111q-40 -124 -69.5 -252t-1.5 -128q16 0 41.5 61.5t47.5 142.5q15 96 37 176h110q-11 -33 -23 -81.5t-21.5 -100
t-14.5 -96.5t-2.5 -73.5t13.5 -28.5q14 0 33 31q-3 13 -3 29t2.5 35.5t5.5 39t9 44t11.5 44.5t13.5 46.5l14 45l14.5 45.5t12.5 41l90 -1q-44 -231 -91 -355z" />
    <glyph glyph-name="x" unicode="x" horiz-adv-x="260" 
d="M209 108q29 0 112 182l23 -10q-31 -80 -63.5 -145.5t-71.5 -114.5t-70 -49q-38 0 -61 76q-55 -78 -128 -78l20 111q50 0 93 40q-12 79 -7.5 181.5t24.5 186.5h98q-23 -104 -25 -205v-3l23.5 58t25 54t30.5 50.5t34 31.5t41 14l-23 -126q-14 0 -29 -9.5t-25.5 -22
t-25.5 -37.5t-23 -41.5l-24 -49.5q13 -94 52 -94z" />
    <glyph glyph-name="y" unicode="y" horiz-adv-x="348" 
d="M432 280q-40 -106 -75 -161.5t-87 -108.5q-8 -42 -15 -71q-30 -131 -75.5 -207t-95.5 -76q-44 0 -65 40t-13 89q7 42 37.5 83.5t57.5 64.5t69 53q0 4 2 11.5t2 11.5l25 118q-69 -156 -128 -156q-77 0 -45 181q29 165 75 336h111q-40 -124 -69.5 -252t-1.5 -128
q17 0 46 74t51 163q4 27 19 143h112q-22 -88 -83 -401q62 70 123 203zM62 -276q43 0 86 169q-92 -90 -101 -140q-5 -29 15 -29z" />
    <glyph glyph-name="z" unicode="z" horiz-adv-x="291" 
d="M375 280q-59 -156 -136 -243q-2 -29 -6 -58q-23 -129 -86 -226t-119 -97q-43 0 -64.5 40.5t-12.5 88.5q3 17 9 33t16 32l18.5 28.5t24 27.5l24 23.5t27 23l25 19.5t25.5 18.5t21 15.5q8 78 -22 78q-17 0 -35 -13.5t-30 -29.5t-24.5 -29.5t-19.5 -13.5q-25 0 -16 44
q10 46 38 68q12 10 24 7q9 -1 35.5 43t54 110.5t36.5 118.5q11 61 -6 61q-8 0 -19.5 -16.5t-25.5 -45.5t-26 -57l-27.5 -65l-23.5 -55l-22 24q12 26 33.5 77.5t37.5 86.5t37 73t44 58t48 20q41 0 62.5 -35.5t8.5 -107.5q-28 -158 -130 -260q3 1 7 1q42 0 55 -55
q59 68 117 197zM6 -276q24 0 62 63t59 140q-126 -117 -136 -174q-5 -29 15 -29z" />
    <glyph glyph-name="braceleft" unicode="{" horiz-adv-x="238" 
d="M326 750q-56 0 -77.5 -33.5t-34.5 -104.5q-2 -12 -6.5 -56.5t-9.5 -76t-19.5 -70.5t-36.5 -61q14 -23 14.5 -62t-5.5 -70t-17 -75t-13 -56q-6 -41 -8 -71.5t15 -49t56 -18.5l-40 -49q-28 0 -53.5 7t-52 27t-33.5 54.5t3 90.5q16 64 52.5 147t37.5 97q-15 -5 -35 -7l10 71
q23 -2 35 -7q4 14 -3.5 96.5t-0.5 146.5q5 53 27.5 90.5t54 55.5t60.5 25.5t57 7.5z" />
    <glyph glyph-name="bar" unicode="|" horiz-adv-x="381" 
d="M123 -124l165 945h39l-166 -945h-38z" />
    <glyph glyph-name="braceright" unicode="}" horiz-adv-x="411" 
d="M357 620q-16 -64 -53 -146.5t-38 -96.5q16 5 37 7l-14 -71q-21 2 -33 7q-4 -14 4 -96.5t1 -147.5q-5 -42 -21 -75t-37.5 -52t-48.5 -31.5t-49 -16.5t-44 -4l-21 49q29 0 48.5 9.5t31.5 31t17.5 42t11.5 56.5q0 1 8 71.5t22.5 116t42.5 75.5q-14 22 -15 61t5.5 71t17 75
t12.5 57q5 29 7 45.5t1 36.5t-8 30.5t-22 18t-39 7.5l39 49q22 0 42.5 -4.5t44 -16t36.5 -31.5t20 -51.5t-6 -75.5z" />
    <glyph glyph-name="asciitilde" unicode="~" horiz-adv-x="381" 
d="M150 340q22 -14 52.5 -7.5t57.5 21t56 12.5t48 -32l-28 -75q-21 20 -53 15.5t-59.5 -20t-58 -14.5t-50.5 32z" />
    <glyph glyph-name="cent" unicode="&#xa2;" 
d="M249 198l85 -5q-13 -75 -48 -133t-85 -77l-6 -59h-70l13 53q-62 11 -86.5 92.5t-4.5 201.5q24 143 80 233.5t124 112.5l5 52h70l-12 -48q39 -8 57.5 -42.5t9.5 -93.5q-4 -26 -9 -48t-8 -31l-4 -9h-94q18 49 26.5 91t5.5 66.5t-18 24.5q-29 0 -62 -88.5t-54 -217.5
q-40 -236 15 -236q40 0 70 161z" />
    <glyph glyph-name="sterling" unicode="&#xa3;" horiz-adv-x="429" 
d="M210 71q29 0 55 19t37 38l12 19l47 -85q-2 -4 -7 -9.5t-20 -20.5t-31.5 -26.5t-42 -21t-51.5 -9.5q-29 0 -48 8.5t-34 23.5t-18 17q-15 -8 -34.5 -15t-30.5 -10l-12 -3l-7 79q26 26 71 28q11 34 7 98h-68l9 53h55q-7 85 7 154q25 114 88 164.5t139 50.5q51 0 74 -35.5
t9 -101.5q-9 -44 -35 -87t-47 -63l-21 -21l-52 59q52 60 70 137q13 61 -14 62q-29 0 -55.5 -42.5t-38.5 -100.5q-11 -48 -22 -176h77l-9 -53h-73q-9 -74 -29 -115q26 -15 43 -15z" />
    <glyph glyph-name="yen" unicode="&#xa5;" horiz-adv-x="638" 
d="M462 623l48 -83l-206 -216h81l-10 -56h-82l-5 -31h82l-9 -56h-81l-31 -206h-115l49 206h-70l10 56h73l8 31h-76l10 56h79q-76 140 -124 206l128 87q12 -69 57 -209z" />
    <glyph glyph-name="dieresis" unicode="&#xa8;" horiz-adv-x="417" 
d="M162 689q25 0 35.5 -16t5.5 -40q-4 -24 -20.5 -40.5t-40.5 -16.5t-34 16t-6 41q5 24 20.5 40t39.5 16zM275 689q24 0 34.5 -16t5.5 -40q-4 -24 -20 -40.5t-40 -16.5t-34.5 16.5t-6.5 40.5q5 24 21 40t40 16z" />
    <glyph glyph-name="acute" unicode="&#xb4;" horiz-adv-x="354" 
d="M100 603l97 126l57 -48l-108 -111z" />
    <glyph glyph-name="cedilla" unicode="&#xb8;" horiz-adv-x="317" 
d="M146 -54q44 9 61 -3t3 -53q-12 -35 -44 -50.5t-64 -15.5l-2 54q45 7 53 28q3 9 -11 12.5t-34 -0.5l32 81l38 2z" />
    <glyph glyph-name="Agrave" unicode="&#xc0;" horiz-adv-x="405" 
d="M392 620q-1 -25 -2 -115t-4 -145q-9 -125 -9 -370l-136 1q4 93 12 159h-88q-35 -91 -66 -152h-99l71 151h-41l13 95l68 -6l37.5 81.5l40 86.5l32.5 69.5t37 75.5t32 58q7 72 23 102h103q4 -53 -24 -91zM196 231q34 -3 65 -3q11 108 12 117q3 32 7 99zM284 890l73 48
l53 -126l-58 -33z" />
    <glyph glyph-name="Aacute" unicode="&#xc1;" horiz-adv-x="405" 
d="M392 620q-1 -25 -2 -115t-4 -145q-9 -125 -9 -370l-136 1q4 93 12 159h-88q-35 -91 -66 -152h-99l71 151h-41l13 95l68 -6l37.5 81.5l40 86.5l32.5 69.5t37 75.5t32 58q7 72 23 102h103q4 -53 -24 -91zM196 231q34 -3 65 -3q11 108 12 117q3 32 7 99zM289 813l97 126
l57 -48l-108 -111z" />
    <glyph glyph-name="Acircumflex" unicode="&#xc2;" horiz-adv-x="405" 
d="M392 620q-1 -25 -2 -115t-4 -145q-9 -125 -9 -370l-136 1q4 93 12 159h-88q-35 -91 -66 -152h-99l71 151h-41l13 95l68 -6l37.5 81.5l40 86.5l32.5 69.5t37 75.5t32 58q7 72 23 102h103q4 -53 -24 -91zM196 231q34 -3 65 -3q11 108 12 117q3 32 7 99zM425 890
q9 -34 50 -63l-46 -51q-26 16 -49 56q-45 -44 -87 -58l-32 52q58 27 97 76q-3 18 1 43h84q-2 -28 -18 -55z" />
    <glyph glyph-name="Atilde" unicode="&#xc3;" horiz-adv-x="405" 
d="M392 620q-1 -25 -2 -115t-4 -145q-9 -125 -9 -370l-136 1q4 93 12 159h-88q-35 -91 -66 -152h-99l71 151h-41l13 95l68 -6l37.5 81.5l40 86.5l32.5 69.5t37 75.5t32 58q7 72 23 102h103q4 -53 -24 -91zM196 231q34 -3 65 -3q11 108 12 117q3 32 7 99zM390 875
q27 11 52.5 1t37.5 -50l-28 -31q-4 10 -12 13.5t-19.5 1t-22.5 -7l-27 -11t-27 -9.5q-68 -16 -83 54l27 31q5 -9 12.5 -12.5t19 -2t21 4.5t25 9t24.5 9z" />
    <glyph glyph-name="Adieresis" unicode="&#xc4;" horiz-adv-x="405" 
d="M392 620q-1 -25 -2 -115t-4 -145q-9 -125 -9 -370l-136 1q4 93 12 159h-88q-35 -91 -66 -152h-99l71 151h-41l13 95l68 -6l37.5 81.5l40 86.5l32.5 69.5t37 75.5t32 58q7 72 23 102h103q4 -53 -24 -91zM196 231q34 -3 65 -3q11 108 12 117q3 32 7 99zM337 896
q25 0 35.5 -16t5.5 -40q-4 -24 -20 -40.5t-41 -16.5q-24 0 -34 16t-6 41q5 24 20.5 40t39.5 16zM450 896q24 0 34.5 -16t5.5 -40q-4 -24 -20 -40.5t-40 -16.5t-34.5 16.5t-6.5 40.5q5 24 21 40t40 16z" />
    <glyph glyph-name="Aring" unicode="&#xc5;" horiz-adv-x="405" 
d="M392 620q-1 -25 -2 -115t-4 -145q-9 -125 -9 -370l-136 1q4 93 12 159h-88q-35 -91 -66 -152h-99l71 151h-41l13 95l68 -6l37.5 81.5l40 86.5l32.5 69.5t37 75.5t32 58q7 72 23 102h103q4 -53 -24 -91zM196 231q34 -3 65 -3q11 108 12 117q3 32 7 99zM380 915
q26 0 47 -17.5t16 -48.5t-32.5 -48.5t-53.5 -17.5q-25 0 -45 17.5t-15 48.5t31.5 48.5t51.5 17.5zM362 800q18 0 26 51q3 26 0.5 39t-12.5 12q-19 0 -26 -52q-4 -26 -1 -38.5t13 -11.5z" />
    <glyph glyph-name="Ccedilla" unicode="&#xc7;" horiz-adv-x="465" 
d="M280 36q28 0 56 57.5t43 134.5l88 -6q-20 -110 -77 -185t-136 -75q-56 0 -90.5 50t-40 126t7.5 166q15 82 35 140q-50 42 -66 128l71 43q3 -54 24 -96q44 100 104 157.5t120 57.5q59 0 91 -36.5t21 -101.5q-11 -63 -56 -109t-92.5 -65t-86.5 -19q-14 0 -20 1
q-8 -32 -19 -87q-23 -125 -17 -203t40 -78zM418 682q-26 0 -62.5 -63.5t-65.5 -161.5h3q58 0 94.5 51.5t46.5 108.5q12 65 -16 65zM230 -74q44 9 61 -3t3 -53q-12 -35 -44 -50.5t-64 -15.5l-2 54q45 7 53 28q3 9 -11 12.5t-34 -0.5l32 81l38 2z" />
    <glyph glyph-name="Egrave" unicode="&#xc8;" horiz-adv-x="465" 
d="M379 228l88 -6q-2 -65 -27.5 -123t-77 -97.5t-118.5 -39.5q-85 0 -120.5 46t-21.5 126q7 38 23.5 69.5t33 48.5t37.5 30.5t30 17t17 5.5q-4 1 -10 3.5t-18 11.5t-21 22.5t-16 39t-7 58.5q-52 40 -71 132l54 34q3 -50 27 -87q21 92 88 153.5t150 61.5q59 0 91 -36.5
t21 -101.5q-11 -63 -56 -109t-92.5 -65t-86.5 -19h-7q10 -38 38.5 -51.5t50.5 -6.5l-35 -84q-44 0 -76 -34.5t-41 -85.5q-7 -44 4 -74.5t41 -30.5q43 0 76 62.5t32 129.5zM402 682q-34 0 -66 -59t-48 -147l-3 -19h8q59 0 94.5 47t45.5 103q5 30 -3.5 52.5t-27.5 22.5z
M330 890l73 48l53 -126l-58 -33z" />
    <glyph glyph-name="Eacute" unicode="&#xc9;" horiz-adv-x="465" 
d="M379 228l88 -6q-2 -65 -27.5 -123t-77 -97.5t-118.5 -39.5q-85 0 -120.5 46t-21.5 126q7 38 23.5 69.5t33 48.5t37.5 30.5t30 17t17 5.5q-4 1 -10 3.5t-18 11.5t-21 22.5t-16 39t-7 58.5q-52 40 -71 132l54 34q3 -50 27 -87q21 92 88 153.5t150 61.5q59 0 91 -36.5
t21 -101.5q-11 -63 -56 -109t-92.5 -65t-86.5 -19h-7q10 -38 38.5 -51.5t50.5 -6.5l-35 -84q-44 0 -76 -34.5t-41 -85.5q-7 -44 4 -74.5t41 -30.5q43 0 76 62.5t32 129.5zM402 682q-34 0 -66 -59t-48 -147l-3 -19h8q59 0 94.5 47t45.5 103q5 30 -3.5 52.5t-27.5 22.5z
M372 806l97 126l57 -48l-108 -111z" />
    <glyph glyph-name="Ecircumflex" unicode="&#xca;" horiz-adv-x="465" 
d="M379 228l88 -6q-2 -65 -27.5 -123t-77 -97.5t-118.5 -39.5q-85 0 -120.5 46t-21.5 126q7 38 23.5 69.5t33 48.5t37.5 30.5t30 17t17 5.5q-4 1 -10 3.5t-18 11.5t-21 22.5t-16 39t-7 58.5q-52 40 -71 132l54 34q3 -50 27 -87q21 92 88 153.5t150 61.5q59 0 91 -36.5
t21 -101.5q-11 -63 -56 -109t-92.5 -65t-86.5 -19h-7q10 -38 38.5 -51.5t50.5 -6.5l-35 -84q-44 0 -76 -34.5t-41 -85.5q-7 -44 4 -74.5t41 -30.5q43 0 76 62.5t32 129.5zM402 682q-34 0 -66 -59t-48 -147l-3 -19h8q59 0 94.5 47t45.5 103q5 30 -3.5 52.5t-27.5 22.5z
M486 896q9 -34 50 -63l-46 -51q-26 16 -49 56q-45 -44 -87 -58l-32 52q58 27 97 76q-3 18 1 43h84q-2 -28 -18 -55z" />
    <glyph glyph-name="Edieresis" unicode="&#xcb;" horiz-adv-x="465" 
d="M379 228l88 -6q-2 -65 -27.5 -123t-77 -97.5t-118.5 -39.5q-85 0 -120.5 46t-21.5 126q7 38 23.5 69.5t33 48.5t37.5 30.5t30 17t17 5.5q-4 1 -10 3.5t-18 11.5t-21 22.5t-16 39t-7 58.5q-52 40 -71 132l54 34q3 -50 27 -87q21 92 88 153.5t150 61.5q59 0 91 -36.5
t21 -101.5q-11 -63 -56 -109t-92.5 -65t-86.5 -19h-7q10 -38 38.5 -51.5t50.5 -6.5l-35 -84q-44 0 -76 -34.5t-41 -85.5q-7 -44 4 -74.5t41 -30.5q43 0 76 62.5t32 129.5zM402 682q-34 0 -66 -59t-48 -147l-3 -19h8q59 0 94.5 47t45.5 103q5 30 -3.5 52.5t-27.5 22.5z
M399 895q25 0 35.5 -16t5.5 -40q-4 -24 -20 -40.5t-41 -16.5q-24 0 -34 16t-6 41q5 24 20.5 40t39.5 16zM512 895q24 0 34.5 -16t5.5 -40q-4 -24 -20 -40.5t-40 -16.5t-34.5 16.5t-6.5 40.5q5 24 21 40t40 16z" />
    <glyph glyph-name="Igrave" unicode="&#xcc;" horiz-adv-x="414" 
d="M514 701q-25 -73 -65 -111q-28 -98 -55 -263q-39 -259 -49 -367l-132 1q51 267 75 374q34 153 65 238q-13 3 -41.5 16t-48.5 13q-24 0 -46.5 -19t-28.5 -50q-5 -30 7.5 -47.5t28.5 -19.5l15 -2l-49 -61q-5 0 -12.5 1t-27 8.5t-33.5 18.5t-22.5 35t-3.5 55q11 57 57 101.5
t111 44.5q25 0 70.5 -10.5t54.5 -11.5q32 59 71 78zM394 878l73 48l53 -126l-58 -33z" />
    <glyph glyph-name="Iacute" unicode="&#xcd;" horiz-adv-x="414" 
d="M514 701q-25 -73 -65 -111q-28 -98 -55 -263q-39 -259 -49 -367l-132 1q51 267 75 374q34 153 65 238q-13 3 -41.5 16t-48.5 13q-24 0 -46.5 -19t-28.5 -50q-5 -30 7.5 -47.5t28.5 -19.5l15 -2l-49 -61q-5 0 -12.5 1t-27 8.5t-33.5 18.5t-22.5 35t-3.5 55q11 57 57 101.5
t111 44.5q25 0 70.5 -10.5t54.5 -11.5q32 59 71 78zM406 803l97 126l57 -48l-108 -111z" />
    <glyph glyph-name="Icircumflex" unicode="&#xce;" horiz-adv-x="414" 
d="M514 701q-25 -73 -65 -111q-28 -98 -55 -263q-39 -259 -49 -367l-132 1q51 267 75 374q34 153 65 238q-13 3 -41.5 16t-48.5 13q-24 0 -46.5 -19t-28.5 -50q-5 -30 7.5 -47.5t28.5 -19.5l15 -2l-49 -61q-5 0 -12.5 1t-27 8.5t-33.5 18.5t-22.5 35t-3.5 55q11 57 57 101.5
t111 44.5q25 0 70.5 -10.5t54.5 -11.5q32 59 71 78zM514 886q9 -34 50 -63l-46 -51q-26 16 -49 56q-45 -44 -87 -58l-32 52q58 27 97 76q-3 18 1 43h84q-2 -28 -18 -55z" />
    <glyph glyph-name="Idieresis" unicode="&#xcf;" horiz-adv-x="414" 
d="M514 701q-25 -73 -65 -111q-28 -98 -55 -263q-39 -259 -49 -367l-132 1q51 267 75 374q34 153 65 238q-13 3 -41.5 16t-48.5 13q-24 0 -46.5 -19t-28.5 -50q-5 -30 7.5 -47.5t28.5 -19.5l15 -2l-49 -61q-5 0 -12.5 1t-27 8.5t-33.5 18.5t-22.5 35t-3.5 55q11 57 57 101.5
t111 44.5q25 0 70.5 -10.5t54.5 -11.5q32 59 71 78zM433 892q25 0 35.5 -16t5.5 -40q-4 -24 -20 -40.5t-41 -16.5q-24 0 -34 16t-6 41q5 24 20.5 40t39.5 16zM546 892q24 0 34.5 -16t5.5 -40q-4 -24 -20 -40.5t-40 -16.5t-34.5 16.5t-6.5 40.5q5 24 21 40t40 16z" />
    <glyph glyph-name="Eth" unicode="&#xd0;" horiz-adv-x="498" 
d="M336 332l-16 -90h-36q-9 -63 -17 -95q-18 -73 -69 -114q3 -1 7 -1q59 0 106.5 93t70.5 225q59 335 -35 335q-45 0 -88.5 -45t-71 -106t-38.5 -120q-3 0 -8 1t-17.5 4t-22 7.5t-16 14t-4.5 20.5q20 113 103.5 193.5t185.5 80.5q94 0 137 -95.5t11 -278.5
q-30 -171 -120 -284.5t-185 -113.5q-48 0 -79 31q-24 -10 -49 -16t-39 -7l-13 -1l60 133q17 -22 38 -41q26 58 44 180h-93l16 90h89q10 71 18 114t26.5 93.5t43.5 79.5l86 -14q-41 -91 -65 -273h40z" />
    <glyph glyph-name="Ntilde" unicode="&#xd1;" horiz-adv-x="648" 
d="M594 695q58 0 70 -84.5t-25 -216.5q-29 -106 -49 -210t-26 -154l-5 -51h-122q9 58 22.5 125.5t26 121.5l25 109t20.5 95.5t13 73t3 49t-12 16.5q-23 0 -56 -73.5t-70 -211.5q-26 -163 -76 -237t-136 -74q-56 0 -89 29.5t-41 71t1 90.5l94 4q-11 -38 -5.5 -87.5
t35.5 -49.5q37 0 60 71.5t41 238.5q15 141 43 237q-8 3 -23 10t-26 10.5t-24 3.5q-24 0 -46.5 -19t-28.5 -50q-5 -30 7.5 -47.5t28.5 -19.5l15 -2l-49 -61q-5 0 -12.5 1t-27 8.5t-33.5 18.5t-22.5 35t-3.5 55q11 57 57 101.5t111 44.5q26 0 63.5 -11t38.5 -11q25 54 54 78
l59 -22q-25 -86 -54 -120q-1 -22 0.5 -68.5t1.5 -67.5q28 111 75 180.5t97 69.5zM563 868q27 11 52.5 1t37.5 -50l-28 -31q-4 10 -12 13.5t-19.5 1t-22.5 -7l-27 -11t-27 -9.5q-68 -16 -83 54l27 31q5 -9 12.5 -12.5t19 -2t21 4.5t25 9t24.5 9z" />
    <glyph glyph-name="Ograve" unicode="&#xd2;" horiz-adv-x="512" 
d="M511 525q34 -39 3 -212q-26 -148 -89.5 -249t-146.5 -101q-87 0 -121 96.5t-5 259.5q7 43 20 91q-58 44 -75 144l71 45q3 -69 29 -113q45 115 109 185t129 70q54 0 79.5 -45.5t13.5 -116.5q-5 -26 -17 -54zM411 652q-21 0 -50 -62t-54 -156q34 6 60 37.5t38 63.5t19 67
q9 50 -13 50zM295 41q24 0 52 74t47 184q10 57 14 113q-60 -35 -116 -37q-11 -55 -12 -62q-19 -103 -14 -187.5t29 -84.5zM354 907l73 48l53 -126l-58 -33z" />
    <glyph glyph-name="Oacute" unicode="&#xd3;" horiz-adv-x="512" 
d="M511 525q34 -39 3 -212q-26 -148 -89.5 -249t-146.5 -101q-87 0 -121 96.5t-5 259.5q7 43 20 91q-58 44 -75 144l71 45q3 -69 29 -113q45 115 109 185t129 70q54 0 79.5 -45.5t13.5 -116.5q-5 -26 -17 -54zM411 652q-21 0 -50 -62t-54 -156q34 6 60 37.5t38 63.5t19 67
q9 50 -13 50zM295 41q24 0 52 74t47 184q10 57 14 113q-60 -35 -116 -37q-11 -55 -12 -62q-19 -103 -14 -187.5t29 -84.5zM406 819l97 126l57 -48l-108 -111z" />
    <glyph glyph-name="Ocircumflex" unicode="&#xd4;" horiz-adv-x="512" 
d="M511 525q34 -39 3 -212q-26 -148 -89.5 -249t-146.5 -101q-87 0 -121 96.5t-5 259.5q7 43 20 91q-58 44 -75 144l71 45q3 -69 29 -113q45 115 109 185t129 70q54 0 79.5 -45.5t13.5 -116.5q-5 -26 -17 -54zM411 652q-21 0 -50 -62t-54 -156q34 6 60 37.5t38 63.5t19 67
q9 50 -13 50zM295 41q24 0 52 74t47 184q10 57 14 113q-60 -35 -116 -37q-11 -55 -12 -62q-19 -103 -14 -187.5t29 -84.5zM510 902q9 -34 50 -63l-46 -51q-26 16 -49 56q-45 -44 -87 -58l-32 52q58 27 97 76q-3 18 1 43h84q-2 -28 -18 -55z" />
    <glyph glyph-name="Otilde" unicode="&#xd5;" horiz-adv-x="512" 
d="M511 525q34 -39 3 -212q-26 -148 -89.5 -249t-146.5 -101q-87 0 -121 96.5t-5 259.5q7 43 20 91q-58 44 -75 144l71 45q3 -69 29 -113q45 115 109 185t129 70q54 0 79.5 -45.5t13.5 -116.5q-5 -26 -17 -54zM411 652q-21 0 -50 -62t-54 -156q34 6 60 37.5t38 63.5t19 67
q9 50 -13 50zM295 41q24 0 52 74t47 184q10 57 14 113q-60 -35 -116 -37q-11 -55 -12 -62q-19 -103 -14 -187.5t29 -84.5zM485 891q27 11 52.5 1t37.5 -50l-28 -31q-4 10 -12 13.5t-19.5 1t-22.5 -7l-27 -11t-27 -9.5q-68 -16 -83 54l27 31q5 -9 12.5 -12.5t19 -2t21 4.5
t25 9t24.5 9z" />
    <glyph glyph-name="Odieresis" unicode="&#xd6;" horiz-adv-x="512" 
d="M511 525q34 -39 3 -212q-26 -148 -89.5 -249t-146.5 -101q-87 0 -121 96.5t-5 259.5q7 43 20 91q-58 44 -75 144l71 45q3 -69 29 -113q45 115 109 185t129 70q54 0 79.5 -45.5t13.5 -116.5q-5 -26 -17 -54zM411 652q-21 0 -50 -62t-54 -156q34 6 60 37.5t38 63.5t19 67
q9 50 -13 50zM295 41q24 0 52 74t47 184q10 57 14 113q-60 -35 -116 -37q-11 -55 -12 -62q-19 -103 -14 -187.5t29 -84.5zM413 905q25 0 35.5 -16t5.5 -40q-4 -24 -20 -40.5t-41 -16.5q-24 0 -34 16t-6 41q5 24 20.5 40t39.5 16zM526 905q24 0 34.5 -16t5.5 -40
q-4 -24 -20 -40.5t-40 -16.5t-34.5 16.5t-6.5 40.5q5 24 21 40t40 16z" />
    <glyph glyph-name="Ugrave" unicode="&#xd9;" horiz-adv-x="627" 
d="M742 701q-25 -74 -66 -112q-28 -94 -54 -262q-41 -277 -49 -367h-115q3 13 42 229q-84 -228 -167 -228q-56 0 -77 62t-9.5 159.5t35.5 197.5t58 196l-23.5 10.5t-27.5 11t-25 3.5q-24 0 -46 -19t-28 -49q-5 -30 7.5 -47.5t28.5 -19.5l15 -2l-50 -62q-5 0 -12.5 1.5
t-27 8.5t-33 18.5t-22 35.5t-3.5 55q11 57 57.5 101.5t110.5 44.5q16 0 33 -3t41 -8.5t32 -7.5q12 30 34 74l115 -21q-23 -68 -61 -107q-40 -146 -68 -332t2 -186q12 0 46.5 86t92.5 253t63 179l1 -2q37 104 91 130zM500 891l73 48l53 -126l-58 -33z" />
    <glyph glyph-name="Uacute" unicode="&#xda;" horiz-adv-x="627" 
d="M742 701q-25 -74 -66 -112q-28 -94 -54 -262q-41 -277 -49 -367h-115q3 13 42 229q-84 -228 -167 -228q-56 0 -77 62t-9.5 159.5t35.5 197.5t58 196l-23.5 10.5t-27.5 11t-25 3.5q-24 0 -46 -19t-28 -49q-5 -30 7.5 -47.5t28.5 -19.5l15 -2l-50 -62q-5 0 -12.5 1.5
t-27 8.5t-33 18.5t-22 35.5t-3.5 55q11 57 57.5 101.5t110.5 44.5q16 0 33 -3t41 -8.5t32 -7.5q12 30 34 74l115 -21q-23 -68 -61 -107q-40 -146 -68 -332t2 -186q12 0 46.5 86t92.5 253t63 179l1 -2q37 104 91 130zM528 799l97 126l57 -48l-108 -111z" />
    <glyph glyph-name="Ucircumflex" unicode="&#xdb;" horiz-adv-x="627" 
d="M742 701q-25 -74 -66 -112q-28 -94 -54 -262q-41 -277 -49 -367h-115q3 13 42 229q-84 -228 -167 -228q-56 0 -77 62t-9.5 159.5t35.5 197.5t58 196l-23.5 10.5t-27.5 11t-25 3.5q-24 0 -46 -19t-28 -49q-5 -30 7.5 -47.5t28.5 -19.5l15 -2l-50 -62q-5 0 -12.5 1.5
t-27 8.5t-33 18.5t-22 35.5t-3.5 55q11 57 57.5 101.5t110.5 44.5q16 0 33 -3t41 -8.5t32 -7.5q12 30 34 74l115 -21q-23 -68 -61 -107q-40 -146 -68 -332t2 -186q12 0 46.5 86t92.5 253t63 179l1 -2q37 104 91 130zM633 889q9 -34 50 -63l-46 -51q-26 16 -49 56
q-45 -44 -87 -58l-32 52q58 27 97 76q-3 18 1 43h84q-2 -28 -18 -55z" />
    <glyph glyph-name="Udieresis" unicode="&#xdc;" horiz-adv-x="627" 
d="M742 701q-25 -74 -66 -112q-28 -94 -54 -262q-41 -277 -49 -367h-115q3 13 42 229q-84 -228 -167 -228q-56 0 -77 62t-9.5 159.5t35.5 197.5t58 196l-23.5 10.5t-27.5 11t-25 3.5q-24 0 -46 -19t-28 -49q-5 -30 7.5 -47.5t28.5 -19.5l15 -2l-50 -62q-5 0 -12.5 1.5
t-27 8.5t-33 18.5t-22 35.5t-3.5 55q11 57 57.5 101.5t110.5 44.5q16 0 33 -3t41 -8.5t32 -7.5q12 30 34 74l115 -21q-23 -68 -61 -107q-40 -146 -68 -332t2 -186q12 0 46.5 86t92.5 253t63 179l1 -2q37 104 91 130zM539 885q25 0 35.5 -16t5.5 -40q-4 -24 -20 -40.5
t-41 -16.5q-24 0 -34 16t-6 41q5 24 20.5 40t39.5 16zM652 885q24 0 34.5 -16t5.5 -40q-4 -24 -20 -40.5t-40 -16.5t-34.5 16.5t-6.5 40.5q5 24 21 40t40 16z" />
    <glyph glyph-name="Yacute" unicode="&#xdd;" horiz-adv-x="638" 
d="M589 670l116 -2q-58 -343 -116 -524q-40 -125 -91 -188.5t-127 -63.5q-62 0 -93.5 36t-29.5 93l108 31q-5 -34 6 -61.5t34 -27.5q25 0 50.5 55.5t43.5 128.5l22 88q-58 -135 -135 -135q-46 0 -66.5 43.5t-16.5 117t18.5 150.5t39.5 162q-11 3 -39.5 15.5t-48.5 12.5
q-24 0 -46 -19t-28 -49q-5 -30 7.5 -47.5t28.5 -19.5l15 -2l-50 -62q-5 0 -12.5 1.5t-27 8.5t-33 18.5t-22 35.5t-3.5 55q11 57 57.5 101.5t110.5 44.5q17 0 36 -3.5t42.5 -9.5t34.5 -8q5 15 27 76l115 -21q-17 -52 -48 -92q-46 -235 -52 -297q-9 -97 17 -97q32 0 153 428
q1 6 2 15.5t1 11.5zM525 790l97 126l57 -48l-108 -111z" />
    <glyph glyph-name="agrave" unicode="&#xe0;" horiz-adv-x="376" 
d="M325 108q29 0 112 182l23 -10q-31 -80 -63.5 -145.5t-71.5 -114.5t-70 -49q-28 0 -43 23.5t-15 61.5q-47 -85 -107 -85q-40 0 -55.5 69.5t1.5 167.5q26 143 79 230t103 87q51 0 58 -93q11 36 21 56h98l-15.5 -57.5l-18.5 -70l-18 -70.5t-15.5 -69.5t-9.5 -56.5
t-2.5 -41.5t9.5 -14.5zM218 242q14 68 14.5 116t-12.5 49t-32.5 -46t-33.5 -114q-14 -68 -14.5 -116t12.5 -49t32.5 46t33.5 114zM194 681l73 48l53 -126l-58 -33z" />
    <glyph glyph-name="aacute" unicode="&#xe1;" horiz-adv-x="376" 
d="M325 108q29 0 112 182l23 -10q-31 -80 -63.5 -145.5t-71.5 -114.5t-70 -49q-28 0 -43 23.5t-15 61.5q-47 -85 -107 -85q-40 0 -55.5 69.5t1.5 167.5q26 143 79 230t103 87q51 0 58 -93q11 36 21 56h98l-15.5 -57.5l-18.5 -70l-18 -70.5t-15.5 -69.5t-9.5 -56.5
t-2.5 -41.5t9.5 -14.5zM218 242q14 68 14.5 116t-12.5 49t-32.5 -46t-33.5 -114q-14 -68 -14.5 -116t12.5 -49t32.5 46t33.5 114zM210 603l97 126l57 -48l-108 -111z" />
    <glyph glyph-name="acircumflex" unicode="&#xe2;" horiz-adv-x="376" 
d="M325 108q29 0 112 182l23 -10q-31 -80 -63.5 -145.5t-71.5 -114.5t-70 -49q-28 0 -43 23.5t-15 61.5q-47 -85 -107 -85q-40 0 -55.5 69.5t1.5 167.5q26 143 79 230t103 87q51 0 58 -93q11 36 21 56h98l-15.5 -57.5l-18.5 -70l-18 -70.5t-15.5 -69.5t-9.5 -56.5
t-2.5 -41.5t9.5 -14.5zM218 242q14 68 14.5 116t-12.5 49t-32.5 -46t-33.5 -114q-14 -68 -14.5 -116t12.5 -49t32.5 46t33.5 114zM344 680q9 -34 50 -63l-46 -51q-26 16 -49 56q-45 -44 -87 -58l-32 52q58 27 97 76q-3 18 1 43h84q-2 -28 -18 -55z" />
    <glyph glyph-name="atilde" unicode="&#xe3;" horiz-adv-x="376" 
d="M325 108q29 0 112 182l23 -10q-31 -80 -63.5 -145.5t-71.5 -114.5t-70 -49q-28 0 -43 23.5t-15 61.5q-47 -85 -107 -85q-40 0 -55.5 69.5t1.5 167.5q26 143 79 230t103 87q51 0 58 -93q11 36 21 56h98l-15.5 -57.5l-18.5 -70l-18 -70.5t-15.5 -69.5t-9.5 -56.5
t-2.5 -41.5t9.5 -14.5zM218 242q14 68 14.5 116t-12.5 49t-32.5 -46t-33.5 -114q-14 -68 -14.5 -116t12.5 -49t32.5 46t33.5 114zM329 672q27 11 52.5 1t37.5 -50l-28 -31q-4 10 -12 13.5t-19.5 1t-22.5 -7l-27 -11t-27 -9.5q-68 -16 -83 54l27 31q5 -9 12.5 -12.5t19 -2
t21 4.5t25 9t24.5 9z" />
    <glyph glyph-name="adieresis" unicode="&#xe4;" horiz-adv-x="376" 
d="M325 108q29 0 112 182l23 -10q-31 -80 -63.5 -145.5t-71.5 -114.5t-70 -49q-28 0 -43 23.5t-15 61.5q-47 -85 -107 -85q-40 0 -55.5 69.5t1.5 167.5q26 143 79 230t103 87q51 0 58 -93q11 36 21 56h98l-15.5 -57.5l-18.5 -70l-18 -70.5t-15.5 -69.5t-9.5 -56.5
t-2.5 -41.5t9.5 -14.5zM218 242q14 68 14.5 116t-12.5 49t-32.5 -46t-33.5 -114q-14 -68 -14.5 -116t12.5 -49t32.5 46t33.5 114zM253 689q25 0 35.5 -16t5.5 -40q-4 -24 -20 -40.5t-41 -16.5q-24 0 -34 16t-6 41q5 24 20.5 40t39.5 16zM366 689q24 0 34.5 -16t5.5 -40
q-4 -24 -20 -40.5t-40 -16.5t-34.5 16.5t-6.5 40.5q5 24 21 40t40 16z" />
    <glyph glyph-name="aring" unicode="&#xe5;" horiz-adv-x="376" 
d="M325 108q29 0 112 182l23 -10q-31 -80 -63.5 -145.5t-71.5 -114.5t-70 -49q-28 0 -43 23.5t-15 61.5q-47 -85 -107 -85q-40 0 -55.5 69.5t1.5 167.5q26 143 79 230t103 87q51 0 58 -93q11 36 21 56h98l-15.5 -57.5l-18.5 -70l-18 -70.5t-15.5 -69.5t-9.5 -56.5
t-2.5 -41.5t9.5 -14.5zM218 242q14 68 14.5 116t-12.5 49t-32.5 -46t-33.5 -114q-14 -68 -14.5 -116t12.5 -49t32.5 46t33.5 114zM301 708q26 0 47 -17.5t16 -48.5t-32.5 -48.5t-53.5 -17.5q-25 0 -45 17.5t-15 48.5t31.5 48.5t51.5 17.5zM283 593q18 0 26 51q3 26 0.5 39
t-12.5 12q-19 0 -26 -52q-4 -26 -1 -38.5t13 -11.5z" />
    <glyph glyph-name="ccedilla" unicode="&#xe7;" 
d="M210 59q49 0 95.5 60.5t95.5 170.5l24 -10q-124 -321 -259 -321q-64 0 -106.5 68.5t-19.5 200.5q23 130 83 213.5t123 83.5q69 0 95 -59t-1 -158q-8 -28 -67 -33q-46 -4 -52 10q-1 2 0 5q14 36 18.5 80.5t-7.5 46.5q-19 0 -41.5 -55t-36.5 -132q-13 -76 2.5 -123.5
t53.5 -47.5zM128 -74q44 9 61 -3t3 -53q-12 -35 -44 -50.5t-64 -15.5l-2 54q45 7 53 28q3 9 -11 12.5t-34 -0.5l32 81l38 2z" />
    <glyph glyph-name="egrave" unicode="&#xe8;" 
d="M210 59q49 0 95.5 60.5t95.5 170.5l24 -10q-124 -321 -259 -321q-64 0 -106.5 68.5t-19.5 200.5q23 130 83 213.5t123 83.5q69 0 95 -59t-1 -158q-25 -87 -78.5 -140t-109.5 -45q12 -64 58 -64zM232 417q-19 0 -41.5 -55t-36.5 -132q-4 -23 -6 -46q22 11 44.5 48.5
t38.5 95.5q11 39 12 62.5t-11 26.5zM173 681l73 48l53 -126l-58 -33z" />
    <glyph glyph-name="eacute" unicode="&#xe9;" 
d="M210 59q49 0 95.5 60.5t95.5 170.5l24 -10q-124 -321 -259 -321q-64 0 -106.5 68.5t-19.5 200.5q23 130 83 213.5t123 83.5q69 0 95 -59t-1 -158q-25 -87 -78.5 -140t-109.5 -45q12 -64 58 -64zM232 417q-19 0 -41.5 -55t-36.5 -132q-4 -23 -6 -46q22 11 44.5 48.5
t38.5 95.5q11 39 12 62.5t-11 26.5zM203 603l97 126l57 -48l-108 -111z" />
    <glyph glyph-name="ecircumflex" unicode="&#xea;" 
d="M210 59q49 0 95.5 60.5t95.5 170.5l24 -10q-124 -321 -259 -321q-64 0 -106.5 68.5t-19.5 200.5q23 130 83 213.5t123 83.5q69 0 95 -59t-1 -158q-25 -87 -78.5 -140t-109.5 -45q12 -64 58 -64zM232 417q-19 0 -41.5 -55t-36.5 -132q-4 -23 -6 -46q22 11 44.5 48.5
t38.5 95.5q11 39 12 62.5t-11 26.5zM307 680q9 -34 50 -63l-46 -51q-26 16 -49 56q-45 -44 -87 -58l-32 52q58 27 97 76q-3 18 1 43h84q-2 -28 -18 -55z" />
    <glyph glyph-name="edieresis" unicode="&#xeb;" 
d="M210 59q49 0 95.5 60.5t95.5 170.5l24 -10q-124 -321 -259 -321q-64 0 -106.5 68.5t-19.5 200.5q23 130 83 213.5t123 83.5q69 0 95 -59t-1 -158q-25 -87 -78.5 -140t-109.5 -45q12 -64 58 -64zM232 417q-19 0 -41.5 -55t-36.5 -132q-4 -23 -6 -46q22 11 44.5 48.5
t38.5 95.5q11 39 12 62.5t-11 26.5zM239 689q25 0 35.5 -16t5.5 -40q-4 -24 -20 -40.5t-41 -16.5q-24 0 -34 16t-6 41q5 24 20.5 40t39.5 16zM352 689q24 0 34.5 -16t5.5 -40q-4 -24 -20 -40.5t-40 -16.5t-34.5 16.5t-6.5 40.5q5 24 21 40t40 16z" />
    <glyph glyph-name="igrave" unicode="&#xec;" horiz-adv-x="191" 
d="M252 290l23 -10q-49 -126 -105 -217.5t-101 -91.5q-36 0 -46 56t6 142q9 51 35 163.5t35 155.5h111l-15 -65t-18 -72l-18 -71.5l-15.5 -67t-10 -53.5t-2.5 -37.5t8 -13.5q27 0 113 182zM99 681l73 48l53 -126l-58 -33z" />
    <glyph glyph-name="iacute" unicode="&#xed;" horiz-adv-x="191" 
d="M252 290l23 -10q-49 -126 -105 -217.5t-101 -91.5q-36 0 -46 56t6 142q9 51 35 163.5t35 155.5h111l-15 -65t-18 -72l-18 -71.5l-15.5 -67t-10 -53.5t-2.5 -37.5t8 -13.5q27 0 113 182zM121 603l97 126l57 -48l-108 -111z" />
    <glyph glyph-name="icircumflex" unicode="&#xee;" horiz-adv-x="191" 
d="M252 290l23 -10q-49 -126 -105 -217.5t-101 -91.5q-36 0 -46 56t6 142q9 51 35 163.5t35 155.5h111l-15 -65t-18 -72l-18 -71.5l-15.5 -67t-10 -53.5t-2.5 -37.5t8 -13.5q27 0 113 182zM255 680q9 -34 50 -63l-46 -51q-26 16 -49 56q-45 -44 -87 -58l-32 52q58 27 97 76
q-3 18 1 43h84q-2 -28 -18 -55z" />
    <glyph glyph-name="idieresis" unicode="&#xef;" horiz-adv-x="191" 
d="M252 290l23 -10q-49 -126 -105 -217.5t-101 -91.5q-36 0 -46 56t6 142q9 51 35 163.5t35 155.5h111l-15 -65t-18 -72l-18 -71.5l-15.5 -67t-10 -53.5t-2.5 -37.5t8 -13.5q27 0 113 182zM144 689q25 0 35.5 -16t5.5 -40q-4 -24 -20.5 -40.5t-40.5 -16.5t-34 16t-6 41
q5 24 20.5 40t39.5 16zM257 689q24 0 34.5 -16t5.5 -40q-4 -24 -20 -40.5t-40 -16.5t-34.5 16.5t-6.5 40.5q5 24 21 40t40 16z" />
    <glyph glyph-name="ntilde" unicode="&#xf1;" horiz-adv-x="359" 
d="M307 108q29 0 112 182l24 -10q-49 -126 -105 -217.5t-101 -91.5q-35 0 -49.5 36t-5.5 87q4 20 11 49.5t15 57.5l16 58.5t14 56t9.5 46t2 32t-9.5 11.5q-24 0 -70 -144t-59 -261h-120q73 278 88 490l119 2q-14 -43 -43 -190q27 98 69 161t86 63q76 0 55 -119
q-3 -19 -10.5 -46.5l-15.5 -54.5l-17 -56.5t-15.5 -54t-10 -44.5t-1 -31.5t11.5 -11.5zM275 672q27 11 52.5 1t37.5 -50l-28 -31q-4 10 -12 13.5t-19.5 1t-22.5 -7l-27 -11t-27 -9.5q-68 -16 -83 54l27 31q5 -9 12.5 -12.5t19 -2t21 4.5t25 9t24.5 9z" />
    <glyph glyph-name="ograve" unicode="&#xf2;" horiz-adv-x="355" 
d="M314 162q58 33 102 128l23 -10q-28 -70 -68 -116t-84 -63q-32 -63 -71 -97t-78 -34q-62 0 -90.5 70t-6.5 195q19 107 57 180.5t68 73.5q21 0 40 -21q42 57 74 57q49 0 67 -69.5t-1 -167.5q-12 -69 -32 -126zM230 414q-14 1 -32.5 -33t-26.5 -86q-8 -43 2.5 -77t34.5 -53
q9 28 19 75q15 71 16 122.5t-13 51.5zM150 70q16 0 35 37q-51 33 -54 122q-12 -71 -6 -115t25 -44zM163 681l73 48l53 -126l-58 -33z" />
    <glyph glyph-name="oacute" unicode="&#xf3;" horiz-adv-x="355" 
d="M314 162q58 33 102 128l23 -10q-28 -70 -68 -116t-84 -63q-32 -63 -71 -97t-78 -34q-62 0 -90.5 70t-6.5 195q19 107 57 180.5t68 73.5q21 0 40 -21q42 57 74 57q49 0 67 -69.5t-1 -167.5q-12 -69 -32 -126zM230 414q-14 1 -32.5 -33t-26.5 -86q-8 -43 2.5 -77t34.5 -53
q9 28 19 75q15 71 16 122.5t-13 51.5zM150 70q16 0 35 37q-51 33 -54 122q-12 -71 -6 -115t25 -44zM199 603l97 126l57 -48l-108 -111z" />
    <glyph glyph-name="ocircumflex" unicode="&#xf4;" horiz-adv-x="355" 
d="M314 162q58 33 102 128l23 -10q-28 -70 -68 -116t-84 -63q-32 -63 -71 -97t-78 -34q-62 0 -90.5 70t-6.5 195q19 107 57 180.5t68 73.5q21 0 40 -21q42 57 74 57q49 0 67 -69.5t-1 -167.5q-12 -69 -32 -126zM230 414q-14 1 -32.5 -33t-26.5 -86q-8 -43 2.5 -77t34.5 -53
q9 28 19 75q15 71 16 122.5t-13 51.5zM150 70q16 0 35 37q-51 33 -54 122q-12 -71 -6 -115t25 -44zM311 680q9 -34 50 -63l-46 -51q-26 16 -49 56q-45 -44 -87 -58l-32 52q58 27 97 76q-3 18 1 43h84q-2 -28 -18 -55z" />
    <glyph glyph-name="otilde" unicode="&#xf5;" horiz-adv-x="355" 
d="M314 162q58 33 102 128l23 -10q-28 -70 -68 -116t-84 -63q-32 -63 -71 -97t-78 -34q-62 0 -90.5 70t-6.5 195q19 107 57 180.5t68 73.5q21 0 40 -21q42 57 74 57q49 0 67 -69.5t-1 -167.5q-12 -69 -32 -126zM230 414q-14 1 -32.5 -33t-26.5 -86q-8 -43 2.5 -77t34.5 -53
q9 28 19 75q15 71 16 122.5t-13 51.5zM150 70q16 0 35 37q-51 33 -54 122q-12 -71 -6 -115t25 -44zM289 672q27 11 52.5 1t37.5 -50l-28 -31q-4 10 -12 13.5t-19.5 1t-22.5 -7l-27 -11t-27 -9.5q-68 -16 -83 54l27 31q5 -9 12.5 -12.5t19 -2t21 4.5t25 9t24.5 9z" />
    <glyph glyph-name="odieresis" unicode="&#xf6;" horiz-adv-x="355" 
d="M314 162q58 33 102 128l23 -10q-28 -70 -68 -116t-84 -63q-32 -63 -71 -97t-78 -34q-62 0 -90.5 70t-6.5 195q19 107 57 180.5t68 73.5q21 0 40 -21q42 57 74 57q49 0 67 -69.5t-1 -167.5q-12 -69 -32 -126zM230 414q-14 1 -32.5 -33t-26.5 -86q-8 -43 2.5 -77t34.5 -53
q9 28 19 75q15 71 16 122.5t-13 51.5zM150 70q16 0 35 37q-51 33 -54 122q-12 -71 -6 -115t25 -44zM221 689q25 0 35.5 -16t5.5 -40q-4 -24 -20 -40.5t-41 -16.5q-24 0 -34 16t-6 41q5 24 20.5 40t39.5 16zM334 689q24 0 34.5 -16t5.5 -40q-4 -24 -20 -40.5t-40 -16.5
t-34.5 16.5t-6.5 40.5q5 24 21 40t40 16z" />
    <glyph glyph-name="ugrave" unicode="&#xf9;" horiz-adv-x="367" 
d="M315 108q30 0 113 182l23 -10q-49 -126 -105 -217.5t-101 -91.5q-68 0 -50 148q-67 -148 -124 -148q-77 0 -45 181q29 165 75 336h111q-40 -124 -69.5 -252t-1.5 -128q16 0 44.5 69t49.5 155q20 95 41 156h110q-38 -107 -68.5 -243.5t-2.5 -136.5zM186 681l73 48l53 -126
l-58 -33z" />
    <glyph glyph-name="uacute" unicode="&#xfa;" horiz-adv-x="367" 
d="M315 108q30 0 113 182l23 -10q-49 -126 -105 -217.5t-101 -91.5q-68 0 -50 148q-67 -148 -124 -148q-77 0 -45 181q29 165 75 336h111q-40 -124 -69.5 -252t-1.5 -128q16 0 44.5 69t49.5 155q20 95 41 156h110q-38 -107 -68.5 -243.5t-2.5 -136.5zM218 603l97 126l57 -48
l-108 -111z" />
    <glyph glyph-name="ucircumflex" unicode="&#xfb;" horiz-adv-x="367" 
d="M315 108q30 0 113 182l23 -10q-49 -126 -105 -217.5t-101 -91.5q-68 0 -50 148q-67 -148 -124 -148q-77 0 -45 181q29 165 75 336h111q-40 -124 -69.5 -252t-1.5 -128q16 0 44.5 69t49.5 155q20 95 41 156h110q-38 -107 -68.5 -243.5t-2.5 -136.5zM330 680q9 -34 50 -63
l-46 -51q-26 16 -49 56q-45 -44 -87 -58l-32 52q58 27 97 76q-3 18 1 43h84q-2 -28 -18 -55z" />
    <glyph glyph-name="udieresis" unicode="&#xfc;" horiz-adv-x="367" 
d="M315 108q30 0 113 182l23 -10q-49 -126 -105 -217.5t-101 -91.5q-68 0 -50 148q-67 -148 -124 -148q-77 0 -45 181q29 165 75 336h111q-40 -124 -69.5 -252t-1.5 -128q16 0 44.5 69t49.5 155q20 95 41 156h110q-38 -107 -68.5 -243.5t-2.5 -136.5zM229 689q25 0 35.5 -16
t5.5 -40q-4 -24 -20 -40.5t-41 -16.5q-24 0 -34 16t-6 41q5 24 20.5 40t39.5 16zM342 689q24 0 34.5 -16t5.5 -40q-4 -24 -20 -40.5t-40 -16.5t-34.5 16.5t-6.5 40.5q5 24 21 40t40 16z" />
    <glyph glyph-name="yacute" unicode="&#xfd;" horiz-adv-x="348" 
d="M432 280q-40 -106 -75 -161.5t-87 -108.5q-8 -42 -15 -71q-30 -131 -75.5 -207t-95.5 -76q-44 0 -65 40t-13 89q7 42 37.5 83.5t57.5 64.5t69 53q0 4 2 11.5t2 11.5l25 118q-69 -156 -128 -156q-77 0 -45 181q29 165 75 336h111q-40 -124 -69.5 -252t-1.5 -128
q17 0 46 74t51 163q4 27 19 143h112q-22 -88 -83 -401q62 70 123 203zM62 -276q43 0 86 169q-92 -90 -101 -140q-5 -29 15 -29zM202 603l97 126l57 -48l-108 -111z" />
    <glyph glyph-name="ydieresis" unicode="&#xff;" horiz-adv-x="348" 
d="M432 280q-40 -106 -75 -161.5t-87 -108.5q-8 -42 -15 -71q-30 -131 -75.5 -207t-95.5 -76q-44 0 -65 40t-13 89q7 42 37.5 83.5t57.5 64.5t69 53q0 4 2 11.5t2 11.5l25 118q-69 -156 -128 -156q-77 0 -45 181q29 165 75 336h111q-40 -124 -69.5 -252t-1.5 -128
q17 0 46 74t51 163q4 27 19 143h112q-22 -88 -83 -401q62 70 123 203zM62 -276q43 0 86 169q-92 -90 -101 -140q-5 -29 15 -29zM219 689q25 0 35.5 -16t5.5 -40q-4 -24 -20 -40.5t-41 -16.5q-24 0 -34 16t-6 41q5 24 20.5 40t39.5 16zM332 689q24 0 34.5 -16t5.5 -40
q-4 -24 -20 -40.5t-40 -16.5t-34.5 16.5t-6.5 40.5q5 24 21 40t40 16z" />
    <glyph glyph-name="Scaron" unicode="&#x160;" horiz-adv-x="426" 
d="M244 554q-8 -47 7 -90.5t41.5 -78.5l53 -70t43.5 -80.5t11 -95.5q-9 -82 -76.5 -130.5t-151.5 -48.5q-80 0 -117.5 69t-18.5 180l131 8q-1 -2 -1.5 -6t-3 -16t-4.5 -23.5t-3.5 -27.5t-1 -29.5t2.5 -27.5t7 -24t13.5 -16t20.5 -6q20 0 37 24t22 63q5 36 -10 74t-38.5 73
t-46.5 73.5t-35 91t-4 110.5q12 88 71.5 138t140.5 50q66 0 109 -44t30 -121q-6 -35 -22 -70t-29 -52l-12 -17l-94 44q24 38 35 85t4 80.5t-31 33.5q-25 0 -47.5 -33.5t-32.5 -89.5zM351 892q44 43 87 58l32 -52q-57 -26 -96 -76q2 -28 -1 -43h-85q1 28 18 55q-9 35 -50 64
l47 50q27 -17 48 -56z" />
    <glyph glyph-name="scaron" unicode="&#x161;" horiz-adv-x="300" 
d="M251 94q45 53 110 196l23 -10q-31 -84 -64.5 -144.5t-85.5 -106t-112 -52.5q-24 -7 -46 -7q-51 0 -77 36t-19 74q6 33 56 73q37 30 41 18q1 -1 0 -4q-31 -125 14 -125q15 0 28.5 23.5t20.5 61.5q7 27 5 66t-5 61t-9.5 59t-9.5 59l-22.5 -56l-20.5 -51.5t-14 -32.5l-24 11
q58 133 81 233v-1q0 2 0.5 5t1.5 5q7 37 22 68t27 43l12 12l88 -15q-32 -49 -41 -102q-9 -52 17.5 -168.5t15.5 -181.5q-5 -28 -13 -47zM254 786q44 43 87 58l32 -52q-57 -26 -96 -76q2 -28 -1 -43h-85q1 28 18 55q-9 35 -50 64l47 50q27 -17 48 -56z" />
    <glyph glyph-name="Ydieresis" unicode="&#x178;" horiz-adv-x="638" 
d="M589 670l116 -2q-58 -343 -116 -524q-40 -125 -91 -188.5t-127 -63.5q-62 0 -93.5 36t-29.5 93l108 31q-5 -34 6 -61.5t34 -27.5q25 0 50.5 55.5t43.5 128.5l22 88q-58 -135 -135 -135q-46 0 -66.5 43.5t-16.5 117t18.5 150.5t39.5 162q-11 3 -39.5 15.5t-48.5 12.5
q-24 0 -46 -19t-28 -49q-5 -30 7.5 -47.5t28.5 -19.5l15 -2l-50 -62q-5 0 -12.5 1.5t-27 8.5t-33 18.5t-22 35.5t-3.5 55q11 57 57.5 101.5t110.5 44.5q17 0 36 -3.5t42.5 -9.5t34.5 -8q5 15 27 76l115 -21q-17 -52 -48 -92q-46 -235 -52 -297q-9 -97 17 -97q32 0 153 428
q1 6 2 15.5t1 11.5zM537 884q25 0 35.5 -16t5.5 -40q-4 -24 -20 -40.5t-41 -16.5q-24 0 -34 16t-6 41q5 24 20.5 40t39.5 16zM650 884q24 0 34.5 -16t5.5 -40q-4 -24 -20 -40.5t-40 -16.5t-34.5 16.5t-6.5 40.5q5 24 21 40t40 16z" />
    <glyph glyph-name="Zcaron" unicode="&#x17d;" horiz-adv-x="442" 
d="M421 185q-17 -120 -95 -205.5t-167 -85.5q-76 0 -116.5 51t-29.5 132q14 92 66.5 133t115.5 41l4 -54q-28 0 -45.5 -38t-25.5 -93q-6 -49 5.5 -84.5t40.5 -35.5q36 0 71 72.5t51 180.5q6 42 1.5 73.5t-16 46.5t-26 25t-28.5 9t-23 -2l33 84q44 0 74.5 34.5t37.5 85.5
q7 45 -3 75t-40 30q-34 0 -53.5 -49t-17.5 -116l-123 -21q0 102 57.5 181t156.5 79q85 0 122 -46t26 -126q-6 -40 -22.5 -72t-35.5 -50t-37.5 -30t-30.5 -16l-12 -4q1 0 3.5 -0.5t10 -2.5t15 -5t16.5 -10.5t16.5 -17.5t14.5 -26t10.5 -35.5t3.5 -47t-5 -60.5zM370 897
q44 43 87 58l32 -52q-57 -26 -96 -76q2 -28 -1 -43h-85q1 28 18 55q-9 35 -50 64l47 50q27 -17 48 -56z" />
    <glyph glyph-name="zcaron" unicode="&#x17e;" horiz-adv-x="291" 
d="M375 280q-59 -156 -136 -243q-2 -29 -6 -58q-23 -129 -86 -226t-119 -97q-43 0 -64.5 40.5t-12.5 88.5q3 17 9 33t16 32l18.5 28.5t24 27.5l24 23.5t27 23l25 19.5t25.5 18.5t21 15.5q8 78 -22 78q-17 0 -35 -13.5t-30 -29.5t-24.5 -29.5t-19.5 -13.5q-25 0 -16 44
q10 46 38 68q12 10 24 7q9 -1 35.5 43t54 110.5t36.5 118.5q11 61 -6 61q-8 0 -19.5 -16.5t-25.5 -45.5t-26 -57l-27.5 -65l-23.5 -55l-22 24q12 26 33.5 77.5t37.5 86.5t37 73t44 58t48 20q41 0 62.5 -35.5t8.5 -107.5q-28 -158 -130 -260q3 1 7 1q42 0 55 -55
q59 68 117 197zM6 -276q24 0 62 63t59 140q-126 -117 -136 -174q-5 -29 15 -29zM257 694q44 43 87 58l32 -52q-57 -26 -96 -76q2 -28 -1 -43h-85q1 28 18 55q-9 35 -50 64l47 50q27 -17 48 -56z" />
    <glyph glyph-name="circumflex" unicode="&#x2c6;" horiz-adv-x="414" 
d="M264 680q9 -34 50 -63l-46 -51q-26 16 -49 56q-45 -44 -87 -58l-32 52q58 27 97 76q-3 18 1 43h84q-2 -28 -18 -55z" />
    <glyph glyph-name="caron" unicode="&#x2c7;" horiz-adv-x="414" 
d="M195 677q44 43 87 58l32 -52q-57 -26 -96 -76q2 -28 -1 -43h-85q1 28 18 55q-9 35 -50 64l47 50q27 -17 48 -56z" />
    <glyph glyph-name="breve" unicode="&#x2d8;" horiz-adv-x="371" 
d="M177 597q20 2 29 66l65 -3q-14 -84 -100 -84q-82 0 -68 84l63 2q-10 -67 11 -65z" />
    <glyph glyph-name="ring" unicode="&#x2da;" horiz-adv-x="349" 
d="M185 708q26 0 47 -17.5t16 -48.5t-32.5 -48.5t-53.5 -17.5q-25 0 -45 17.5t-15 48.5t31.5 48.5t51.5 17.5zM167 593q19 0 26 51q3 26 0.5 39t-12.5 12q-19 0 -26 -52q-4 -26 -1 -38.5t13 -11.5z" />
    <glyph glyph-name="tilde" unicode="&#x2dc;" horiz-adv-x="419" 
d="M229 672q27 11 52.5 1t37.5 -50l-28 -31q-4 10 -12 13.5t-19.5 1t-22.5 -7l-27 -11t-27 -9.5q-68 -16 -83 54l27 31q5 -9 12.5 -12.5t19 -2t21 4.5t25 9t24.5 9z" />
    <glyph glyph-name="Euro" unicode="&#x20ac;" horiz-adv-x="383" 
d="M285 198l85 -5q-16 -92 -63 -155t-113 -63q-67 0 -97.5 71t-18.5 185h-36l9 53h35q2 15 6 30h-37l9 53h41q36 122 96 189t125 67q51 0 77 -35t14 -103q-4 -26 -9 -48t-8 -31l-4 -9h-94q18 49 26.5 91t5.5 66.5t-17 24.5q-24 0 -51.5 -59t-49.5 -153h82l-9 -53h-85
q-4 -20 -5 -30h86l-10 -53h-85q-25 -194 25 -194q40 0 70 161z" />
    <glyph glyph-name="b_calt" horiz-adv-x="342" 
d="M276 525q48 0 66 -69.5t0 -167.5q-25 -145 -84.5 -231.5t-123.5 -86.5q-41 0 -64.5 19.5t-30.5 61.5t-3.5 93.5t16.5 127.5q12 65 56.5 276.5t53.5 270.5h120q-11 -42 -32.5 -118l-38 -139.5l-32.5 -129.5q23 41 50 67t47 26zM223 240q14 70 15 121.5t-12 52.5
q-14 1 -33 -33.5t-28 -86.5q-7 -42 5 -81q2 -8 -20 -36q-12 -15 -14 -10l-4 9q-3 -49 3.5 -77.5t19.5 -28.5t33 49.5t35 120.5z" />
    <glyph glyph-name="o_calt" horiz-adv-x="355" 
d="M280 525q49 0 67 -69.5t-1 -167.5q-25 -146 -84.5 -232t-123.5 -86q-62 0 -90.5 69.5t-6.5 194.5q19 107 57 180.5t68 73.5q23 0 40 -21q42 58 74 58zM227 240q14 71 15 121.5t-12 52.5q-14 1 -32.5 -33.5t-27.5 -86.5q-6 -34 1 -67q1 -6 -21 -32q-13 -15 -14 -9
q-5 15 -5 43q-12 -71 -6 -115t25 -44q20 0 40.5 48t36.5 122z" />
    <glyph glyph-name="p_calt" horiz-adv-x="326" 
d="M252 525q48 0 66 -69.5t0 -167.5q-25 -143 -78.5 -230.5t-103.5 -87.5q-37 0 -50 48q-11 -68 -24 -198l-98 1q79 335 117 667h110q31 37 61 37zM199 240q14 71 15 121.5t-12 52.5q-13 1 -33 -49.5t-34 -120.5q-15 -71 -16 -122t12 -52t33 48.5t35 121.5z" />
    <glyph glyph-name="q_calt" horiz-adv-x="339" 
d="M266 488h110q-88 -259 -129 -668l-99 1q27 111 51 239q-50 -90 -97 -90q-48 0 -66 70t0 167q25 143 78.5 230.5t103.5 87.5q34 0 48 -37zM218 242q14 68 14.5 116t-12.5 49t-32.5 -46t-33.5 -115t-14.5 -116t12.5 -49t32.5 46t33.5 115z" />
    <glyph glyph-name="s_calt" horiz-adv-x="300" 
d="M231 491q-9 -51 18 -168t15 -182q-8 -48 -32 -84t-54 -53.5t-55.5 -25t-46.5 -7.5q-51 0 -77 36t-19 74q6 33 57 73q38 30 40 17v-3q-31 -126 14 -126q15 0 28.5 23.5t20.5 61.5q7 27 5 66t-5 61t-9.5 59t-9.5 59q-36 -99 -56 -143l-24 15q60 143 80 232l2 9q7 38 22 69
t27 43l12 12l88 -16q-32 -49 -41 -102z" />
    <glyph glyph-name="r_calt" horiz-adv-x="265" 
d="M326 290l23 -10q-49 -126 -105 -217.5t-101 -91.5q-36 0 -52 38t-5 97q4 21 11.5 49.5l15 55l16 55.5l15 53t10 43.5t1.5 31t-9 12.5q-5 0 -7 1q-89 -259 -173 -386l-29 31q43 70 90.5 177t74.5 189q-50 26 -38 94q5 32 20 68t27 56l12 20l96 -2l-53 -168q30 14 44 14
q76 0 55 -119q-4 -25 -16 -64.5l-22.5 -73.5t-18.5 -66t-7.5 -50.5t12.5 -18.5q30 0 113 182z" />
    </font>
</defs>
</svg>
