<?xml version="1.0" standalone="no"?>
<!DOCTYPE svg PUBLIC "-//W3C//DTD SVG 1.1//EN" "http://www.w3.org/Graphics/SVG/1.1/DTD/svg11.dtd" >
<svg xmlns="http://www.w3.org/2000/svg">
<metadata>
<json>
<![CDATA[
{
	"fontFamily": "langfont",
	"majorVersion": 1,
	"minorVersion": 0,
	"version": "Version 1.0",
	"fontId": "langfont",
	"psName": "langfont",
	"subFamily": "Regular",
	"fullName": "langfont",
	"description": "Font generated by IcoMoon."
}
]]>
</json>
</metadata>
<defs>
<font id="langfont" horiz-adv-x="1024">
<font-face units-per-em="1024" ascent="960" descent="-64" />
<missing-glyph horiz-adv-x="1024" />
<glyph unicode="&#x20;" horiz-adv-x="512" d="" />
<glyph unicode="&#xe900;" glyph-name="bash" data-tags="bash" d="M155.2 367.8l202.4 79.8v1.2l-202.4 80.4v89l309-136.8v-65.6l-309-136.8v88.8zM868.8 272.2v-79.8h-365.4v79.8h365.4zM937.8 959h-851.6c-46.8 0-85.2-38.4-85.2-85.2v-851.6c0-46.8 38.4-85.2 85.2-85.2h851.6c46.8 0 85.2 38.4 85.2 85.2v851.6c0 46.8-38.4 85.2-85.2 85.2zM937.8 22.2h-851.6v724h851.6v-724z" />
<glyph unicode="&#xe901;" glyph-name="basic" data-tags="basic" d="M183 506.2c0 52-24.6 85.2-78.8 85.2h-103.2v-286.6h103.2c46.8 0 78.8 28.4 78.8 76.6 0 27.2-3.4 46.8-24.4 66.6 19.6 17.2 24.4 36.8 24.4 58.2zM104.2 341.4h-66.4v88h66.4c33.6 0 42-17.4 42-48.2 0-28-15.6-39.8-42-39.8zM104.2 466.4h-66.4v88h66.4c33.6 0 42-17.4 42-48.2 0-28-15.6-39.8-42-39.8zM321.2 572.4c-2.6 9.6-7 18.8-19.2 18.8-11.8 0-15.8-8.8-18.8-18.8l-72.2-249.4c-2.6-8.8 7.4-18.4 17.6-18.4 11.4 0 17.4 9.6 19.8 18.4l14 44.2h78.4l13.6-44.2c2.6-8.8 8.4-18.4 20-18.4 10.4 0 20.2 9.6 17.6 18.4l-70.8 249.4zM272.8 404l28.8 99.8h0.8l28.4-99.8h-58zM457.8 549.2c0-3.4 4-7.8 5.6-10l126.8-162.4c7.4-9.6 12.8-18 12.8-30.6 0-27.6-21-41.6-46.4-41.6h-81c-14 0-26.2 2.6-37.2 11.8-10 8.2-17.4 21.4-17.4 34.2 0 11.8 6.6 22.2 19.6 22.2 10.6 0 17.4-8.8 17.4-18.8 0-11 5.8-12.6 16.2-12.6h80c3 0 12.2-1.2 12.2 4.4 0 3-5.2 8.4-6.6 10.6l-126.4 162.4c-7.8 10-12.2 17.4-12.2 30.2 0 14.8 7 27.2 19.6 35.4 10.4 6.6 18.8 6.6 30.6 6.6h78.2c14 0 25.8-3 36.4-12.2 9.6-8.4 17.4-22 17.4-35 0-11.8-5.8-21.4-19.2-21.4-11 0-17.6 7-17.6 17.4 0 12.6-6.2 14.4-17.6 14.4h-78.2c-4.4 0.2-13 1.4-13-5zM740.4 554.4v-213h54.2c9.6 0 18.4-5.2 18.4-18.4s-8.8-18.4-18.4-18.4h-145.2c-9.6 0-18.4 5.2-18.4 18.4s8.8 18.4 18.4 18.4h54.2v213h-54.2c-9.6 0-18.4 5.2-18.4 18.4s8.8 18.4 18.4 18.4h145.2c9.6 0 18.4-5.2 18.4-18.4s-8.8-18.4-18.4-18.4h-54.2zM1023 323c0-13.2-10-18.4-18.4-18.4h-64.6c-27.6 0-43.4 11-55.2 35l-33.8 68.6c-6.2 12.6-10 24.4-10 38.6 0 16.2 3 26.2 10.4 40.8l33.8 68.2c12.6 25.4 28.4 35.4 56.8 35.4h62.6c8 0 18.4-4.4 18.4-18.4 0-13.2-10-18.4-18.4-18.4h-61.6c-15.8 0-18.4-1.4-25.4-15.4l-32-64.2c-4.8-10-7.8-16.6-7.8-28 0-10.4 3.4-16.6 7.8-25.4l31.4-63.8c7.4-15.2 11-16.2 27.6-16.2h60c8 0 18.4-4.4 18.4-18.4z" />
<glyph unicode="&#xe902;" glyph-name="c" data-tags="c" d="M725 358.2l267.6-80.8c-18-75-46.2-137.8-85-188-38.6-50.4-86.6-88.4-144-114s-130.2-38.4-218.8-38.4c-107.4 0-195.2 15.6-263.2 46.8s-126.8 86-176.2 164.8c-49.4 78.4-74 179-74 301.8 0 163.4 43.4 289.2 130.4 377s210 131.6 369 131.6c124.4 0 222.4-25.2 293.6-75.6s124.2-127.6 158.8-231.8l-269.6-60c-9.4 30-19.4 52.2-29.6 66-17 23.4-38 41.4-62.8 54s-52.4 18.8-83 18.8c-69.2 0-122.2-27.8-159.2-83.6-27.8-41.4-41.8-106.2-41.8-194.6 0-109.6 16.6-184.6 49.8-225.2s80-61 140.2-61c58.4 0 102.6 16.4 132.4 49.2 30.2 33 52 80.6 65.4 143z" />
<glyph unicode="&#xe903;" glyph-name="coffe-script" data-tags="coffe-script" d="M285.2 749.2c-20.8 19.4-22.8 39.4-6.2 59.6 7 8.4 15.2 11 70.6 19.4 25 4.2 60.2-8.4 60.2-20.8 0-8.4-7.6-9.6-40.8-5.6-25.6 2.8-45.8 1.4-55.4-3.4-17.4-9.6-18-16.6-2.8-31.8 16.6-16.6 82.4-10.4 121.2 11.8 16.6 9.6 41.6 24.2 56.8 32.6 14.6 8.4 42.2 19.4 61.6 24.2 115.6 29.8 240.2-4.8 240.2-65.8 0-38-54.8-64.4-128.8-63-43.6 0.6-63.8 5.6-80.4 20.8-16.6 13.8-16 20 4.8 33.2 16 10.4 17.4 9.6 31.8-3.4 28.4-26.4 117-15.2 117 13.8 0 18.6-23.6 28.4-68.6 28.4-50.6 0.6-87.2-9.6-164.2-47-91.6-45.2-171.2-45.8-217-3zM70.6 691.8c27.8-23.6 79.6-42.2 166.2-59.6 102.4-20 157.2-24.2 315-23.6 196.6 0.6 338.6 22.8 425.2 65.8 53.4 27 58.8 65 13.2 92-20 11.8-20.8 11.8-16.6-1.4 6.2-20-1.4-34.6-27-50.6-25-15.2-108.8-38.8-160.6-45-18.8-2-40.8-5.6-50.6-7.6-36.8-9-329-7.6-398.2 1.4-115.6 15.2-195.2 40.8-218.2 70.6-13.2 16-13.2 18.6-3.4 34 12.4 18.6 7.6 19.4-20.8 4.2-50.6-26.2-58.2-51.8-24.2-80.2zM999.8 628c-37.4-25-97-44.4-171.8-56-13.8-2-31.8-5.6-40.2-7-66.4-13.2-340.6-18.6-437-7.6-137.8 15.2-241.6 43.6-279.8 76.8l-16 14.6 4.6-29c2-16 10.4-52.6 18.6-81l15.2-52-35.4-38c-76-83.8-76-191.2 0.2-257 45-38 120.4-46.4 169-18.6 11.8 7 11 7.6-6.2 8.4-37.4 0-95.6 40.2-123.2 83-14.6 22.2-25.6 73.4-22.2 99.8 3.4 22.8 27.8 73.4 35.4 73.4 2.8 0 11.8-15.2 20-33.2 9-18.6 39.4-67.8 69.2-109.4 47.8-67.2 84.4-136.4 85.2-160 0-17.4 54-51.2 106-67.8 45.8-14.6 67.2-17.4 144.8-17.4 167.6 0 245.8 36 270.8 124.6 6.2 20.8 25 56.8 41.6 79.6 85.2 117.8 101.8 146 131.6 228.6 9.6 27 22.2 70.6 29 97 6.2 27 12.4 52.6 13.8 56.8 1.8 4.6-8.6 1.2-23.2-8.6z" />
<glyph unicode="&#xe904;" glyph-name="c-plus-plus" data-tags="c-plus-plus" d="M431.2 392.4l166-50.2c-11.2-46.6-28.8-85.4-52.6-116.6-24-31.2-53.8-54.8-89.2-70.6-35.6-15.8-80.8-23.8-135.6-23.8-66.6 0-121 9.6-163.2 29s-78.6 53.4-109.4 102.2c-30.6 48.8-46 111.2-46 187.2 0 101.4 27 179.2 80.8 233.8 54 54.4 130.2 81.6 229 81.6 77.2 0 137.8-15.6 182-46.8s77-79.2 98.4-143.8l-167.4-37.4c-5.8 18.6-12 32.4-18.4 41-10.6 14.4-23.6 25.6-38.8 33.4-15.4 7.8-32.4 11.8-51.4 11.8-43 0-75.8-17.2-98.6-51.8-17.2-25.6-26-65.8-26-120.6 0-68 10.4-114.4 31-139.6s49.6-37.8 87-37.8c36.2 0 63.6 10.2 82.2 30.6 18.4 20 31.8 49.6 40.2 88.4zM927 488v96h-80.6v-96h-115.6v96h-80.6v-96h-95.6v-80.6h95.6v-95.6h80.6v95.6h115.6v-95.6h80.6v95.6h96v80.6h-96z" />
<glyph unicode="&#xe905;" glyph-name="csharp" data-tags="csharp" d="M466.6 387.8l179.6-54.2c-12-50.4-31-92.4-57-126.2s-58.2-59.2-96.6-76.4c-38.4-17.2-87.4-25.8-146.8-25.8-72 0-131 10.4-176.6 31.4-45.8 20.8-85.2 57.6-118.4 110.4s-49.8 120.2-49.8 202.6c0 109.8 29.2 194 87.6 253s141 88.4 247.8 88.4c83.6 0 149.2-17 197-50.6 47.8-33.8 83.4-85.6 106.6-155.6l-181-40.2c-6.4 20.2-13 35-19.8 44.4-11.4 15.6-25.4 27.8-42 36.2s-35.2 12.6-55.6 12.6c-46.4 0-82-18.6-106.8-56-18.6-27.8-28-71.2-28-130.6 0-73.6 11.2-123.8 33.4-151.2 22.4-27.2 53.6-40.8 94.2-40.8 39.2 0 68.8 11 88.8 33 19.8 21.6 34.4 53.6 43.4 95.6zM970.6 481.4l-13.8-68.6h66v-74.6h-80.8l-19-95h-76.8l19 95h-59.6l-19.2-95h-76.2l19 95h-37.2v74.6h52l13.8 68.6h-65.8v74.6h80.8l19.4 96.6h76.8l-19.6-96.6h59.2l19.4 96.6h76.6l-19.4-96.6h37.4v-74.6h-52zM894 481.4h-59.4l-13.8-68.6h59.4l13.8 68.6z" />
<glyph unicode="&#xe906;" glyph-name="css" data-tags="css" d="M965.656 960l-85.439-924.472-369.753-99.528-369.753 99.528-85.439 924.472h910.383zM829.641 813.327h-643.409l15.534-125.539h326.401l-315.021-131.319 9.935-122.829 442.186-1.445-9.935-163.652-144.505-40.642v0.181l-1.264-0.361-139.448 35.223-8.49 101.696h-130.235l16.979-196.166 262.999-77.672 261.013 76.226 33.778 389.442h-296.055l0.723 0.361 306.17 130.958 12.644 125.539z" />
<glyph unicode="&#xe907;" glyph-name="css3" data-tags="css3" d="M408.92 863.443v-43.7h-111.745v135.358h111.745v-47.892h-63.853v-43.766h63.853zM523.791 907.209h44.641v47.892h-111.757c0 0 0-24.039 0-47.892 14.951-14.951 22.747-22.108 44.371-43.732-12.641 0-44.371-0.041-44.371-0.041v-43.692h111.757v43.7l-44.641 43.766zM682.185 907.209h44.637v47.892h-111.753c0 0 0-24.039 0-47.892 14.947-14.951 22.747-22.108 44.369-43.732-12.633 0-44.369-0.041-44.369-0.041v-43.692h111.755v43.7l-44.639 43.766zM874.009 755.413l-67.884-735.323-294.126-79.192-294.132 79.192-67.875 735.323h724.018zM737.224 605.898h-454.969l10.974-88.796h230.777l-222.79-92.789 6.982-86.793 312.622-1.008-6.988-115.733-102.937-28.886-98.61 24.893-5.984 71.838h-92.115l11.972-138.687 185.908-54.876 184.582 53.878 23.95 275.372h-209.381l0.516 0.222 216.509 92.567 8.983 88.798z" />
<glyph unicode="&#xe908;" glyph-name="dart" data-tags="dart" d="M1 405.4l181.6 268.4-2.2-477-177.2 177.2-2.2 31.4zM809.2-12c-1-0.4-22.4-7.6-44.4-11.2-24.8-4-47.6 2.2-51.8 3.4l-1.6 0.6-443.6 155 172.6-198.8 410.2 7.2 25.4 76-64.6-31.4-2.2-0.8zM586 956.6l-31.6 2.4-268.4-181.8 477 2.2-177 177.2zM824.2 692.2l155.2-444.4 0.2-0.8c1.2-4.2 7.4-27 3.4-51.8-3.6-22-10.8-43.6-11-44.4l-0.8-2-31.6-64.6 76 25.4 7.2 410.2-198.6 172.4zM215.4 191l507.4-177.2c0 0 18.2-5.4 36.4-2.4 19.4 3.2 38.8 9.8 38.8 9.8l78 38-658.2 658.4-2.4-526.6zM946.2 237.2l-177.2 507.4-526.4-2.4 658.2-658.4 38 78c0 0 6.6 19.4 9.8 38.8 2.8 18.4-2.4 36.6-2.4 36.6z" />
<glyph unicode="&#xe909;" glyph-name="git" data-tags="git" d="M14 428.4c45.2 11.2 106.6 26.6 214.2 29.6-3 6-5.6 12.2-8 18.4-41.8 0.4-170.8-5.6-215-16.6-0.2 0-0.6 0-0.8 0-1.4 0-2.8 1-3.2 2.6-0.4 1.8 0.6 3.6 2.4 4 43.8 10.8 169.6 16.8 214.2 16.8-10 29.6-14.4 63.4-14.4 101 0 67 20.8 92.4 49 128-21.4 76.4 7.6 128.6 7.6 128.6s45 9.4 130.2-51.6c46.2 19.8 169.2 21.4 227.6 4.4 35.8 23.6 101.2 57.2 127.6 47.8 7.2-11.6 22.6-45 9.4-118.6 9-16.2 55.6-50.6 55.8-147.8-0.8-35.8-4.4-66.2-11.4-91.8 111 1 176.4-8.2 221.4-16.6 1.8-0.4 3-2 2.6-3.8-0.4-1.6-1.6-2.8-3.2-2.8-0.2 0-0.4 0-0.6 0-45 8.4-110.4 17.4-222.2 16.4-2-6.6-4.2-12.6-6.6-18.6 38-1.2 142.4-5.4 227.6-31.4 1.8-0.6 2.8-2.4 2.2-4.2-0.4-1.4-1.8-2.4-3.2-2.4-0.4 0-0.6 0-1 0.2-86.4 26.4-193 30-228.6 31.2-30.8-67.8-94.2-93.2-196.6-103.8 33.2-20.8 42.8-47 42.8-118s-1-80.4-0.8-96.8c0.4-26.8 39.6-39.6 38.2-48.2s-32.8-7.2-47.4-2c-41.6 14.4-37.4 49-37.4 49l-1.4 94.8c0 0 2.8 51-16 51 0-10.2 0-118.4 0-155.2 0-33.8 23.6-44 23.6-56.4 0-21.4-43.2 2-56.4 15.4-20.2 20.4-18 63.4-17.4 97.6 0.4 33-0.4 105-0.4 105l-13.8-0.2c0 0 5.6-157.4-7.2-186-16.6-36.8-67-49.4-67-32.8 0 11.2 12.4 7.6 19.2 33 5.8 21.6 3.8 182 3.8 182s-16.2-9.6-16.2-39.6c0-13.8-0.4-92.4-0.4-115.8 0-29.4-41.8-46.2-61.8-46.2-10.2 0-22.8 0.4-22.8 5.8 0 13.6 38.2 21.6 38.2 49.8 0 24.6-0.6 87.6-0.6 87.6s-19.2-3.2-46.8-3.2c-69.2 0-91.2 44.2-101.6 69-13.6 32.2-31.2 47.4-49.8 59.4-11.4 7.4-14.2 16.2-0.8 18.6 61.4 11.6 77-69.6 118-82.4 29.2-9.2 66.8-5.2 85.4 6.8 2.4 24.8 20.4 46.2 35.2 57.4-104.2 10-165.8 46.2-197.8 104.2-109-2.6-170.8-18-216-29.4-3.2-0.8-6.6-1.6-9.6-2.4-0.2 0-0.6 0-0.8 0-1.4 0-2.8 1-3.2 2.4-0.4 1.8 0.6 3.6 2.4 4 3 1.2 6.2 2 9.6 2.8z" />
<glyph unicode="&#xe90a;" glyph-name="hasksel" data-tags="hasksel" d="M421.8 808.6l481-721.4h-180.4l-150.2 225.4-150.2-225.4h-180.6l240.6 360.8-240.6 360.6h180.4zM181.4 808.6h-180.4l240.4-360.6-240.4-360.8h180.4l240.4 360.8-240.4 360.6zM622.2 598.2l80.2-120.2h320.6v120.2h-400.8zM822.6 297.6h200.4v120.2h-280.6l80.2-120.2z" />
<glyph unicode="&#xe90b;" glyph-name="html" data-tags="html" d="M60.512 960l82.187-921.763 368.669-102.418 369.753 102.418 82.368 921.763h-902.977zM792.069 741.255l-5.058-57.26-2.348-25.469h-432.432l10.296-115.785h412.020l-2.709-30.346-26.553-297.681-1.626-19.147-231.931-64.305-231.75 64.485-15.896 177.561h113.437l8.128-90.135 126.081-33.959 126.081 33.959 13.186 146.673h-391.97l-30.527 341.755h566.28l-2.709-30.346z" />
<glyph unicode="&#xe90c;" glyph-name="html5" data-tags="html5" d="M219.229 955.72h45.768v-45.22h41.868v45.22h45.772v-136.934h-45.768v45.856h-41.868v-45.856h-45.768v136.934h-0.004zM412.823 910.309h-40.29v45.411h126.372v-45.411h-40.31v-91.523h-45.768v91.523h-0.004zM518.96 955.72h47.732l29.352-48.115 29.329 48.115h47.738v-136.934h-45.582v67.87l-31.487-48.686h-0.785l-31.509 48.686v-67.87h-44.789v136.934zM695.894 955.72h45.78v-91.674h64.366v-45.26h-110.147v136.934zM152.298 756.158l65.469-734.325 293.791-81.553 294.606 81.671 65.539 734.209h-719.405zM735.138 581.895l-4.1-45.659-1.8-20.245h-344.643l8.231-92.219h328.213l-2.198-24.188-22.519-252.315-184.735-51.221-184.487 51.217-12.621 141.409h90.41l6.413-71.828 100.384-27.055 100.453 27.105 10.447 116.808h-312.129l-24.291 272.349h451.127l-2.156-24.158z" />
<glyph unicode="&#xe90d;" glyph-name="java" data-tags="java" d="M387.8 543.2c-9.4 21-13.6 45.4-6.4 67.4 7.2 22.6 23.4 40.8 39.6 57.8 45 45 100.6 78.2 144.6 124 24.4 25.2 44.6 55.2 51.6 89.8 5.8 25.4 3 51.6-2.2 76.6 23.2-26.4 31-64.6 24.2-99-7.2-38.6-28.6-72.6-53.8-102-20.2-23.6-43.4-44.6-67.4-64-28.2-22.6-55.8-47-73.4-79-15-25.8-18.4-57.8-8.2-85.8 16.6-48.2 55.6-84.2 76.6-129.6-23.4 20.6-46.4 42-67.8 64.8-22.2 23.8-43.4 49.2-57.4 79zM514.8 581c-4.2-39.6 16.4-77 41-106.4 12-13.2 22.2-29.4 22.6-47.8 0.6-24.6-13.4-47.6-31.4-63.8 4.2 0.4 7.2 4.2 10.8 6.2 26.8 17.2 52.8 38.8 66 68.4 8.8 20.2 6.8 44-4.8 62.8-13.4 22-31.2 41.4-41.6 65.2-5.8 13.4-7.8 29.2-3 43.4 6.2 19.2 19.6 34.8 33.8 48.6 39 37 86.4 63.4 131.6 92.4-57.2-16.4-113.8-39-162-74.6-30.4-23-58.8-54.8-63-94.4zM786.8 393.8c27.2-1.4 53.8-21.4 58.8-48.8 4.8-23.6-6.8-47-21.4-65-24.2-28.8-56.8-49.6-89.6-67.2-3.2-2-6-4.4-8.4-7.2 43.4 11 86.6 27.4 121.8 55.6 19.4 16.2 36.6 37.6 40.4 63.2 3.4 22.2-5.8 45-22.2 59.8-20 18.2-48 24.8-74.4 21.4-15.2-2-31.8-5.2-42.4-18 12.4 2.4 24.6 7.4 37.4 6.2zM246.4 322.6c32.6-8.8 66.2-11.2 99.6-13.4 29.8-2 59.8-2.4 89.8-2.2 77.6 1.2 155.8 6.4 232 23.4 7.2 1.8 15.2 3 21.6 7.4 12.6 8.2 26.6 14.6 40.4 21.2-62-10-124.2-18.4-187-22.4-63.4-4-127.4-6.4-191.2-2.2-18.2 1.8-36.8 2.8-53.8 9.8-4 1.8-9.4 5.2-7.4 10.4 3.8 6.8 11.2 10 17.6 13.4 27.4 13 57.2 20.2 86.4 28.6-50 0.8-99.8-12-145.6-31.6-10.2-5-21.6-9-29.8-17.4-3.2-3.4-3.2-9.4 0.4-12.4 7.6-6.8 17.6-9.8 27-12.6zM649.8 254.2c-43.6-7.8-87.4-15-131.4-17.2-48.2-3.2-96.6-0.4-144.4 4.4-9.2 1.2-18.4 2.8-26.6 7-4.2 2.4-8.4 6.4-8.2 11.8 0.4 8.2 7.4 14 12.4 20-15.4-5.4-30.8-11.2-43.8-21.4-5.4-4.2-11-11-9.4-18.4 2.2-8.8 10.8-14 18.2-18 18.4-9.4 39-13.6 59.2-17.4 51-8.2 103-8.4 154.4-5 54.2 4.2 108.2 13.2 160.8 28.6-15.2 6.6-29.4 14.4-41.2 25.6zM376.2 168c-14-4-28.2-8.8-39.6-18-5.8-4.4-10.2-12.2-7.4-19.4 3.4-9.2 12.2-14.6 20.4-19.4 21.4-11.8 45.6-17.2 69.2-21.4 53.6-8.4 108.6-7.2 161.8 2.2 31.6 6 63.2 14.4 92.6 27.6-19.2 8-37.8 17-55.8 27.4-31.2-5.4-62.4-11.2-94.4-13.2-42-3.2-84.6 0.2-126.8 5.4-10 2.2-22.4 3.2-29.2 12-3.4 7.4 4.6 12.6 9.2 16.8zM716.6 8c34.8 7.2 70 15.4 101.8 31.6 10 5.8 22.2 12 25.4 24 1.8 11.4-10.2 17.4-18.6 22.2 5.2-6 8.8-14.6 3.4-21.6-8.8-11.8-23.6-16.2-36.8-20.6-41.4-11.8-84.2-16.4-126.8-21.2-112.8-10.2-226.2-12.6-339-3.2-37.8 4-76.4 8.2-112.6 21.6-5.8 2.4-14.4 5-14.4 12.8 2.2 6.8 8.8 10.4 14.4 13.6 25.8 13.2 54.8 20.4 83.6 22.2-8.4 5-18.4 5.4-28.2 5.2-24.2-0.8-47.8-7-70.6-14.6-19.6-7.2-39.8-15.2-55.6-29.6-6.2-5.4-12-16-5.4-23.4 10-10.8 25.4-13.4 39-16.6 76.6-13.2 154.4-20.6 232-23.4 103.4-3.4 207.2 1 308.4 21zM818.8-5.4c-46.8-15-95.4-23.2-143.6-29.8-83.4-10.4-167.6-13.6-251.4-11.2-51 2-102 5.4-152.4 14 11.8-8 26.2-10.4 39.6-14.2 56.6-12 114.6-14.2 172-16 84.4-1.4 168.8 1.8 252 15 39.4 7 79 15.4 114.2 33.8 18.4 9.8 37.2 24.6 40.4 46.4-18.8-20.2-45.6-29.4-70.8-38z" />
<glyph unicode="&#xe90e;" glyph-name="javascript" data-tags="javascript" d="M60.2 960l83.4-919.4 369.8-105.2 365.4 105.2 83.4 919.4h-902zM511.8 129.6l-230.8 66-17.4 181.2 114 1.4 8.8-86.2 125.6-40.8v-121.6zM744.4 197l-232.4-67.2v121.4l124.2 35 35 371.2h-431l-14.8 111h570.2l-51.2-571.4z" />
<glyph unicode="&#xe90f;" glyph-name="jquery" data-tags="jquery" d="M998.4 230.6c0 0-127.2-342.8-564.8-263-6.8 1.2-13.4 3.6-20.2 5.6-1.6 0.4-3.2 1-4.8 1.4-6.6 2-13 4.2-19.6 6.4-0.8 0.2-1.4 0.6-2.2 0.8-5.8 2-11.8 4.2-17.6 6.4-1.6 0.6-3 1.2-4.6 1.8-6.2 2.4-12.4 5-18.6 7.8-1.2 0.4-2.2 1-3.4 1.6-5.4 2.4-10.6 4.8-16 7.4-1.4 0.6-2.8 1.4-4.2 2-0.8 0.4-1.6 0.8-2.4 1.2-3.4 1.6-6.8 3.4-10 5.2-2.6 1.4-5.2 2.6-7.8 4-4.8 2.6-9.4 5.2-14 7.8-1.8 1-3.4 2-5.2 3-6.4 3.8-12.6 7.6-18.6 11.4-1.8 1.2-3.4 2.2-5.2 3.4-4 2.6-8 5.2-12 8-0.4 0.2-0.8 0.6-1.2 0.8-1.6 1-3 2-4.4 3.2-4.2 2.8-8.2 5.8-12.4 8.8-2 1.4-4 3-5.8 4.4-3.6 2.8-7.4 5.6-11 8.6-1.8 1.4-3.6 2.8-5.4 4.4-4.4 3.6-8.8 7.4-13.2 11-0.8 0.8-1.6 1.4-2.6 2.2 0 0-0.2 0-0.2 0.2-4.8 4.2-9.8 8.6-14.4 13.2-1.4 1.4-2.8 2.8-4.4 4-3.6 3.4-7 6.8-10.6 10.4-1.4 1.4-2.8 2.8-4.2 4.2-4.4 4.6-9 9.2-13.2 14-0.2 0.2-0.4 0.4-0.6 0.6 0 0-0.2 0.2-0.2 0.2-4.4 4.8-8.8 9.8-13 14.8-1.2 1.4-2.4 2.8-3.6 4.2-3.2 3.8-6.2 7.6-9.4 11.4-1.2 1.6-2.6 3.2-3.8 4.8-3.4 4.4-6.8 9-10.2 13.4-0.6 0.8-1.2 1.6-1.8 2.6-0.2 0.2-0.2 0.2-0.4 0.4-3.8 5.2-7.4 10.6-11 16-1.2 1.6-2.2 3.4-3.2 5-2.6 4-5.2 8-7.6 12-1.2 2-2.6 4.2-3.8 6.2-2.2 3.8-4.4 7.6-6.6 11.4-1.2 2.2-2.4 4.2-3.6 6.4-0.6 1.2-1.4 2.4-2 3.6-1.2 2-2.2 4.2-3.2 6.2-1.6 3.2-3.4 6.6-5 9.8-69.2 138.2-80.4 307.4 10 437.4l70.6 89.6c-79.6-154-43.8-341.6 55.8-477.6 3.6-5 7.2-9.8 11-14.8 1.2-1.4 2.4-3 3.6-4.4 3.2-4 6.4-8 9.6-11.8 1.2-1.4 2.4-2.8 3.4-4.2 4.4-5.2 8.8-10.2 13.2-15.2 0.2-0.2 0.4-0.4 0.6-0.6 4.2-4.6 8.6-9.4 13.2-13.8 1.4-1.4 2.8-2.8 4.2-4.2 3.4-3.6 7-7 10.6-10.4 1.4-1.4 2.8-2.6 4.2-4 4.8-4.6 9.8-9 14.8-13.6 0.6-0.4 1-0.8 1.6-1.4 4.6-4 9.4-8 14.2-12 1.6-1.4 3.4-2.8 5-4 3.8-3 7.6-6 11.4-8.8 1.8-1.4 3.6-2.8 5.6-4.2 4.2-3 8.4-6.2 12.6-9 1.4-1 2.8-2 4.2-3 4.4-3 8.8-6 13.4-8.8 1.6-1.2 3.4-2.2 5-3.4 6.2-4 12.4-7.8 18.8-11.4 1.6-1 3.2-1.8 4.8-2.8 4.8-2.8 9.6-5.4 14.4-8 2.6-1.4 5.4-2.8 8-4.2 4-2 8-4.2 12-6 1.6-0.8 3-1.4 4.4-2.2 5.2-2.4 10.2-4.8 15.4-7.2 1.2-0.6 2.4-1 3.6-1.6 6-2.6 12.2-5.2 18.4-7.6 1.6-0.6 3.2-1.2 4.8-1.8 5.6-2.2 11.2-4.2 17-6.4 0.8-0.4 1.8-0.6 2.6-1 6.4-2.2 12.8-4.2 19.2-6.2 1.6-0.6 3.4-1 5-1.6 6.6-2 13.2-4 20-5.6 180.6-40.6 370.2-3.8 477 135.2zM364.8 450.4c9.8-14 20.6-30.8 33.6-42 4.8-5.2 9.6-10.2 14.6-15.2 1.2-1.2 2.6-2.6 3.8-3.8 4.8-4.8 9.8-9.4 15-14 0.2-0.2 0.4-0.4 0.6-0.6 0 0 0.2 0 0.2-0.2 5.6-5 11.6-9.8 17.6-14.4 1.4-1 2.6-2 4-3.2 6-4.6 12-9 18.4-13.4 0.2-0.2 0.4-0.2 0.6-0.4 2.8-2 5.6-3.6 8.4-5.6 1.4-0.8 2.6-1.8 4-2.6 4.4-2.8 9-5.6 13.6-8.4 0.6-0.4 1.2-0.8 2-1.2 4-2.2 8-4.6 12-6.8 1.4-0.8 2.8-1.4 4.2-2.2 2.8-1.4 5.6-3 8.4-4.4 0.4-0.2 0.8-0.4 1.2-0.6 5.8-2.8 11.6-5.6 17.6-8.2 1.2-0.6 2.6-1 3.8-1.6 4.8-2 9.6-4 14.4-5.8 2-0.8 4.2-1.6 6.2-2.2 4.4-1.6 8.8-3.2 13.2-4.6 2-0.6 4-1.2 6-2 6.2-2 12.6-4.4 19-5.6 337.8-56 415.8 204.2 415.8 204.2-70.4-101.2-206.4-149.6-351.8-111.8-6.4 1.6-12.8 3.6-19.2 5.6-2 0.6-3.8 1.2-5.8 1.8-4.4 1.4-9 3-13.4 4.6-2 0.8-4 1.4-6 2.2-4.8 1.8-9.6 3.8-14.4 5.8-1.4 0.6-2.6 1-3.8 1.6-6 2.6-11.8 5.4-17.6 8.2-3 1.4-6 3-8.8 4.6-1.6 0.8-3.4 1.8-5 2.6-3.8 2-7.6 4.2-11.2 6.4-0.8 0.6-1.8 1-2.6 1.6-4.6 2.6-9 5.4-13.6 8.2-1.4 0.8-2.8 1.8-4 2.8-3 2-5.8 3.8-8.8 5.8-6.2 4.2-12.2 8.8-18.2 13.4-1.4 1-2.8 2.2-4.2 3.2-63.6 50.2-114 118.8-138 196.6-25.2 80.8-19.6 171.2 23.8 244.8l-53.4-75.4c-65.4-94.2-61.8-220.2-10.8-319.8 8.4-16.4 18-32.6 28.6-48zM721 567c2.8-1 5.6-2 8.4-3 1.2-0.4 2.4-0.8 3.8-1.2 4-1.2 8-2.8 12-3.4 186.6-36 237.2 95.8 250.6 115.2-44.4-63.8-118.8-79.2-210.2-57-7.2 1.8-15.2 4.4-22.2 6.8-9 3.2-17.6 6.8-26.2 11-16.2 7.8-31.6 17.2-46 28-81.8 62-132.6 180.4-79.2 276.8l-28.8-39.8c-38.6-56.8-42.4-127.2-15.6-190 28-66.6 85.8-118.8 153.4-143.4z" />
<glyph unicode="&#xe910;" glyph-name="js2" data-tags="js2" d="M128.4 806.8l71-782.2 314.6-89.6 310.8 89.6 71 782.2h-767.4zM512.6 100.6l-196.4 56-14.8 154.2 97 1.2 7.4-73.4 106.8-34.8v-103.2zM710.2 157.8l-197.8-57.2v103.2l105.8 29.8 29.8 315.8h-366.6l-12.6 94.4h485l-43.6-486zM263.6 959.4h-26l-28.4-76.2h24l3.8 12.6h26.6l4-12.6h24.4l-28.4 76.2zM258.8 912.2h-16.8l8.4 27.4 8.4-27.4zM310.6 959.4h-24.6l28.8-76.2h25.4l28.4 76.2h-24l-17-55-17 55zM166 904.4c-0.6 1.6-1 4.2-1 7.6l-22.4-3c0.4-6 1.8-11 4-15s5.6-7 9.8-9c4.2-2.2 10.2-3.2 17.8-3.2 7.2 0 13.2 1.6 17.8 4.8s7.8 7 9.4 11.6c1.6 4.6 2.2 11.2 2.2 19.8v41.4h-23.4v-47c0-4.6-0.6-8-2-9.8-1.2-2-3.2-3-5.8-3-1.8 0-3.2 0.4-4 1.2-1 0.8-1.8 2-2.4 3.6zM600.4 937c-2.6 8-6.8 14-12.4 17.8-5.4 4-13 5.8-22.6 5.8-12.2 0-21.8-3.4-28.4-10.2-6.8-6.8-10-16.4-10-29 0-9.4 2-17.2 5.8-23.2s8.4-10.4 13.4-12.8c5.4-2.4 12.2-3.6 20.4-3.6 6.8 0 12.4 1 17 3 4.4 2 8 4.8 11 8.8s5.2 8.8 6.4 14.4l-20.6 6.2c-1-4.8-2.6-8.4-5-11s-5.8-3.8-10.2-3.8c-4.6 0-8.2 1.6-10.8 4.8s-3.8 9-3.8 17.4c0 6.8 1 11.8 3.2 15 2.8 4.4 6.8 6.4 12.2 6.4 2.4 0 4.6-0.6 6.4-1.6 2-0.8 3.4-2.2 4.8-4.2 0.8-1 1.6-2.6 2.2-5l21 4.8zM417 959.4h-25.8l-28.6-76.2h24l3.8 12.6h26.6l4-12.6h24.6l-28.6 76.2zM412.2 912.2h-16.8l8.4 27.4 8.4-27.4zM455.2 949.4c-2.4-3.6-3.6-7.2-3.6-11.2 0-6 2.2-10.8 6.6-14.6s11.8-7 22.2-9.4c6.2-1.4 10.2-2.8 12-4.4s2.6-3.2 2.6-5.4c0-2-0.8-3.8-2.6-5.6-2-1.6-4.6-2.2-7.8-2.2-4.6 0-8 1.6-10.4 4.6-1.6 2-2.6 4.6-3 8.4l-22.4-1.4c0.8-7.8 3.6-14 8.6-19s14-7.6 27-7.6c7.4 0 13.4 1 18.2 3.2s8.6 5.2 11.4 9.4c2.6 4.2 4 8.6 4 13.4 0 4.2-1 8-3 11.4-2 3.2-5.2 6-9.6 8.4-4.4 2.2-11.8 4.6-22 6.8-4.2 0.8-6.8 1.6-8 2.6s-1.8 2.2-1.8 3.4c0 1.6 0.6 3 2 4.2s3.4 1.8 6.2 1.8c3.2 0 5.8-0.8 7.8-2.2 2-1.6 3.2-4.2 3.6-7.6l22.2 1.4c-1 8-4 13.8-9.2 17.4-5 3.6-12.4 5.6-22.2 5.6-8 0-14.2-1-18.8-3-4.6-2.2-7.8-5-10-8.4zM681.4 938.2c0 4.8-1.2 8.8-3.4 12.2-2.4 3.4-5.6 5.8-9.4 7s-9.4 2-16.8 2h-39.2v-76.2h23.6v30.8h2c2.2 0 4-0.6 5.8-2 1.2-0.8 2.8-2.8 4.4-5.8l12.6-23.2h26.6l-11.4 22-3.2 4.8-3.8 4c-1.2 1-3.2 2-6 2.8 3.4 0.8 6.2 1.8 8.2 3 3.2 2 5.6 4.4 7.4 7.4 1.8 3.2 2.6 7 2.6 11.2zM636.4 944h10.2c4.4 0 7.2-0.6 9-2 1.6-1.4 2.2-3.2 2.2-5.8 0-1.6-0.6-3.2-1.6-4.6-1-1.2-2.2-2-3.8-2.2l-6.2-1.2h-9.8v15.8zM719.6 959.4h-23.6v-76.2h23.6v76.2zM801 936c0 7.4-2.2 13.2-6.4 17.4-4.2 4-10.6 6-19.2 6h-39.2v-76.2h23.8v28.2h13c9.6 0 16.6 2.2 21 6.4 4.6 4.4 7 10.4 7 18.2zM775.4 941.2c1.6-1.6 2.4-3.6 2.4-6s-0.8-4.4-2.6-6c-2-1.6-5.2-2.2-9.6-2.2h-5.6v16.8h6.6c4.4 0 7.4-0.8 8.8-2.6zM807.8 959.4v-18.8h24v-57.4h23.6v57.4h24v18.8h-71.6z" />
<glyph unicode="&#xe911;" glyph-name="linux" data-tags="linux" d="M485.8 687c4.6 0 9-1.2 12.8-3.4 4-2.2 7.4-5.4 10.4-9.4s5.4-8.8 7-14.2c1.6-5.4 2.6-11.4 2.6-17.8s-1-12.4-2.6-17.8c-1.6-5.4-4-10.4-7-14.4s-6.6-7.4-10.6-9.6-8.4-3.6-13-3.6c-4.6 0-9 1.2-13 3.6-4 2.2-7.6 5.6-10.4 9.6-3 4-5.4 9-7 14.4s-2.4 11.4-2.4 17.8c0 6.4 1 12.4 2.8 17.8 1.6 5.4 4.2 10.2 7.2 14.2s6.6 7.2 10.4 9.4c3.8 2.2 8.2 3.4 12.8 3.4zM541 681c-4.4 0-8.6-1.2-12.4-3.2s-7.2-5-10.2-8.6c-2.8-3.6-5.2-8-6.8-12.8s-2.4-10.2-2.4-15.8c0-5.6 1-11 2.6-15.8s4-9.2 6.8-13c3-3.8 6.4-6.8 10.2-8.8s8.2-3.2 12.6-3.2c4.4 0 8.6 1.2 12.4 3.2s7.2 5.2 10 8.8c2.8 3.8 5.2 8.2 6.8 13s2.4 10.2 2.4 15.8c0 5.6-1 10.8-2.6 15.6s-4 9.2-7 12.8c-3 3.6-6.4 6.6-10.2 8.6-3.8 2.2-7.8 3.4-12.2 3.4zM242.4 184.6c3.8 0.8 7.8 1.4 11.8 2s7.8 1.2 11.8 1.6c4 0.4 8 0.8 11.8 1 4 0.2 8 0.4 11.8 0.4 34.8 0 64.8-3.6 90.2-9.6 25.4-6.2 46.2-15 62.6-25.4 16.6-10.6 28.6-23 36.8-36.2 8-13.4 12-27.6 12-41.8 0-2.4-0.2-4.8-0.2-7-0.2-2.2-0.4-4.4-0.8-6.4s-0.8-4-1.4-5.8c-0.6-1.8-1.2-3.6-2-5.2 2-0.2 4.2-0.2 6.2-0.4 2 0 4.2-0.2 6.2-0.2s4.2 0 6.2-0.2c2 0 4.2 0 6.2 0 0.6 0 1 0 1.4 0s0.8 0 1 0c0.4 0 0.6 0 1 0s0.8 0 1.2 0c1.8 0 3.8 0 5.6 0s3.8 0 5.6 0c1.8 0 3.6 0 5.6 0.2 1.8 0 3.8 0.2 5.6 0.2-0.8 1.6-1.4 3.4-2 5.2s-1 3.8-1.4 5.8c-0.4 2-0.8 4.2-1 6.4s-0.4 4.6-0.4 7.2c0 14.2 3.8 28.4 12 41.8 8 13.2 20.2 25.6 36.8 36.2 16.4 10.6 37.2 19.4 62.6 25.4 25.4 6.2 55.4 9.6 90.2 9.6 4.2 0 8.4-0.2 12.6-0.4s8.4-0.6 12.4-1c4.2-0.6 8.2-1 12.4-1.8s8.2-1.6 12.2-2.4c3.8 7.8 7 16.2 9.8 24.8s5 17.4 6.8 26.8c1.8 9.2 3 18.8 3.6 28.8s0.8 20.2 0.4 30.8c-1 23.2-4.8 48.4-11.8 73.8s-17 51.2-30.2 75.6c-13.2 24.4-29.8 47.4-49.8 67.8-20 20.2-43.4 37.8-70.6 51.2 10.6 2.4 20.4 6 29.2 11 8.8 4.8 16.6 10.6 22.8 17.4 6.4 6.6 11.4 14.2 14.6 22.4 3.4 8 5 16.8 4.8 25.6-0.4 10.8-3.4 21-8.8 30.4-5.4 9.2-13 17.6-22.2 24.6s-20.2 12.6-32.2 16.6c-12 3.8-25.2 6-38.8 6-12 0-23.4-1.6-34-4.6s-20.4-7.4-29-12.8c-8.6-5.6-16-12-21.8-19.6-5.8-7.4-10.2-15.8-12.6-24.6-1.2 13.2-4.8 25.8-10 37-5.4 11.2-12.6 21.2-21.2 29.6s-18.6 15-29.6 19.6c-11 4.6-23 7.2-35.6 7.2 0 0 0 0 0 0s0 0 0 0 0 0 0 0 0 0 0 0c-13.4 0-26.2-2.8-37.8-8-11.8-5.2-22.4-12.8-31.4-22-9-9.4-16.4-20.6-21.8-33s-8.4-26.2-8.8-40.8v-0.2c-0.2-9.6 0.6-19.2 2.8-28.2 2-9 5.2-17.6 9.4-25.4 4.2-8 9.2-15.2 15-21.8 5.8-6.4 12.6-12.2 19.8-16.8-24-14.4-44.6-32.2-62.2-52.2-17.8-20-32.4-42.4-44-65.4-11.8-23.4-20.8-47.6-26.8-71.4-6.2-24-9.6-47.6-10.6-69.4-0.4-10.6-0.4-20.8 0.4-30.6 0.6-10 2-19.4 3.6-28.6 1.8-9.2 4-18 6.8-26.6 2.2-8.2 5.4-16.4 9.2-24.2zM515.4 873.6c17.6-0.2 35-1.8 52.2-4.6 17-2.8 33.8-6.8 50-11.8 16.2-5.2 31.8-11.6 46.8-19s29.2-16 42.4-25.8c12.2-9 23.6-18.6 33.8-29s19.4-21.2 27.2-32.6c7.8-11.4 14.6-23.2 19.8-35.2s9-24.4 11.4-36.6c1.4-7.6 2.8-14.8 3.8-21.6 1.2-6.8 2.2-13 3-19s1.8-11.6 2.6-17.2c0.8-5.4 1.4-10.6 2.2-15.6 0.8-5.4 1.4-10.4 2.2-15.2s1.4-9.6 2.2-14.2c0.8-4.6 1.6-9.2 2.4-13.8s1.8-9.2 3-13.8c7.2-12.6 14.4-22.8 21.8-31.2s14.6-15 21.8-20.6c7-5.6 14-10 20.4-14.2s12.4-8.2 17.8-12.4c8.2-6.6 17.6-13.6 27.2-20.4 9.6-7 19.8-14 29.4-21.4 9.8-7.2 19.2-14.6 27.8-22.2s16.2-15.2 22.2-23c3.6-4.6 6.6-9.4 9-13.8 2.4-4.6 4.2-9 5-12.8 0.8-4 0.6-7.4-0.6-10-1.4-2.6-3.8-4.4-7.8-5-0.6 0-1-0.2-1.6-0.2s-1 0-1.6-0.2c-0.6 0-1 0-1.6 0s-1 0-1.6 0c-8.2 0-17.6 2.2-27.2 5.8-9.8 3.4-20 8.2-30.2 13.2s-20.4 10.2-30.4 14.8c-9.8 4.6-19.2 8.4-27.8 10.6-1.2 0.4-2.4 0.6-3.6 0.8s-2.4 0.4-3.6 0.6c-1.2 0.2-2.4 0.4-3.8 0.6-1.2 0.2-2.6 0.2-3.8 0.4 1.2-5.6 2-11.4 2.4-17.2 0.4-6 0.4-12.2 0-19s-1.2-14-2.4-22c-1.2-8-3-16.8-5-26.6-0.8-4.2-2.4-10.8-5-19s-6-18.2-10.8-29.4c-4.8-11.2-10.8-23.6-18.4-36.8s-16.8-27-27.6-40.8c13.6-4.6 26.4-10.2 38.4-16.6 11.8-6.4 22.6-13.8 32-21.6 9.4-8 17.2-16.4 23-25.4 5.8-8.8 9.8-18 11.4-27.4 0.8-5.2 1.2-10.2 1.2-14.8s-0.4-9-1.4-13.2c-0.8-4-2.2-7.8-3.8-11.2s-3.8-6.6-6.4-9.2c-2.2-2.4-5-4.6-7.8-6.6-3-1.8-6.2-3.4-9.8-4.8-3.6-1.2-7.4-2.2-11.6-2.8s-8.6-1-13.4-1c-13.2 0-26.6 0-39.8 0s-26.2 0-39 0c-12.8 0-25.4 0-37.8 0s-24.4 0-36.2-0.2c-9.2 0-18.2 0-27 0s-17.2 0-25.2 0-15.8 0-23.2 0c-7.4 0-14.4 0-21 0-7 0-13.8 0.2-20.8 0.6-6.8 0.6-13.4 1.4-19.6 3s-12 3.6-17.2 6.6c-5.2 3-9.6 6.8-13.2 11.8-2 0-4.2-0.2-6.2-0.2s-4.2-0.2-6.2-0.2c-2 0-4.2-0.2-6.2-0.2s-4.2 0-6.4 0h-9c-2.2 0-4.4 0-6.6 0s-4.4 0.2-6.6 0.2c-2.2 0-4.4 0.2-6.6 0.2-2.2 0.2-4.4 0.2-6.4 0.4-3.6-5-8-8.8-13.2-11.8s-11-5.2-17.2-6.6c-6.2-1.6-12.8-2.4-19.8-3-6.8-0.6-13.8-0.6-20.8-0.6-6.6 0-13.6 0-21 0s-15.2 0-23.2 0c-8.2 0-16.6 0-25.2 0s-17.8 0-27 0c-11.8 0-23.8 0-36.2 0.2-12.4 0-25 0-37.8 0s-25.8 0-39 0c-13.2 0-26.4 0-39.6 0-4.8 0-9.2 0.2-13.4 1-4.2 0.6-8 1.6-11.6 2.8s-6.8 2.8-9.8 4.8c-3 1.8-5.6 4-7.8 6.6-2.6 2.8-4.6 5.8-6.4 9.2-1.6 3.4-3 7.2-3.8 11.2-0.8 4.2-1.4 8.4-1.4 13.2 0 4.6 0.4 9.6 1.2 14.8 1.6 9.4 5.4 18.8 11.4 27.6 6 9 13.8 17.4 23.2 25.4s20.2 15.2 32.2 21.6c12 6.4 25 12 38.6 16.6-11 14-20 27.8-27.6 40.8s-13.6 25.4-18.2 36.6c-4.8 11.2-8.2 21.2-10.8 29.4s-4.2 14.8-5 19c-2.2 9.8-3.8 18.6-5 26.6s-2 15.4-2.4 22c-0.4 6.8-0.4 13 0 19s1.2 11.6 2.4 17.2c-1.4 0-2.8-0.2-4.2-0.4s-2.8-0.4-4.2-0.4c-1.4-0.2-2.8-0.4-4.2-0.8s-2.8-0.6-4.2-1c-8.6-2.2-18-6-27.8-10.6s-20-9.8-30.4-14.8c-10.2-5-20.4-9.8-30.2-13.2-9.8-3.6-19-5.8-27.2-5.8-0.6 0-1 0-1.6 0s-1 0-1.6 0c-0.6 0-1 0-1.6 0.2-0.6 0-1 0.2-1.6 0.2-4 0.6-6.4 2.4-7.8 5s-1.4 6-0.6 10c0.8 3.8 2.6 8.2 5 12.8s5.6 9.4 9 13.8c6 7.8 13.6 15.4 22.2 23s18 14.8 27.8 22.2c9.8 7.2 19.8 14.4 29.4 21.4s18.8 13.8 27.2 20.4c5.6 4.6 11.8 8.6 18.6 13s14 9.2 21.4 15c7.4 6 15 13 22.6 22.2s15.2 20.2 22.4 34.2c0.8 4.2 1.6 8.2 2.4 12.2s1.4 8.2 2 12.4c0.6 4.2 1.2 8.4 2 12.8 0.6 4.4 1.2 9 2 13.8 0.6 5 1.4 10.2 2.2 15.6s1.6 11.2 2.4 17.2c1 6 2 12.4 3 19 1.2 6.8 2.4 13.8 3.8 21.6 2.2 12.2 6.2 24.6 11.4 36.6s11.8 23.8 19.8 35.2c7.8 11.4 17 22.2 27.2 32.6s21.4 20 33.8 29c13.4 9.6 27.6 18.4 42.4 25.8s30.6 13.8 46.6 19c16.2 5.2 32.8 9.2 49.8 11.8 17 2.8 34.4 4.2 52 4.6l6-0.2zM514 627.8c-0.6-3.2-1.2-6.4-2-9.4s-1.8-6.2-2.8-9.2c-1-3-2.2-6-3.4-8.8s-2.6-5.6-4.2-8.4c-9.4-0.6-19-2.2-28-4.4s-17.6-5.2-25-8.2c-7.4-3.2-13.8-6.4-18.4-9.6s-7.8-6-8.6-8.4c-0.8-2.2-0.8-4.6-0.6-6.8 0.4-2.2 1.2-4.4 2.2-6.2 1-2 2.2-3.8 3.4-5.2 1.2-1.6 2.4-2.8 3.2-3.8s4.8-5 10.2-10.4c5.4-5.6 12.4-12.6 19.4-19.6s14.2-14.2 20-19.8c5.8-5.6 10-9.6 11.2-10.6 1.4-1 2.6-2 3.8-3s2.6-1.8 4-2.4c1.4-0.8 3-1.2 4.8-1.6s3.8-0.6 6.2-0.6h2.6c2.4 0 4.4 0.2 6 0.6 1.8 0.4 3.2 1 4.6 1.6 1.4 0.8 2.6 1.6 4 2.4 1.2 1 2.4 2 3.8 3s5.6 5 11.4 10.6c5.6 5.6 12.8 12.6 20 19.8 7 7 14 14 19.6 19.6 5.4 5.4 9.4 9.4 10.2 10.4 1 1 2 2.2 3.2 3.8s2.4 3.4 3.4 5.2c1 2 1.8 4 2.2 6.2s0.2 4.6-0.6 6.8c-0.8 2.2-3.4 5-7.6 8s-9.8 6-16.6 9c-6.8 3-14.4 5.8-22.6 8s-17 4.2-26 5.2c0.6 0 1.2 0 1.8-0.2 0.6 0 1.2 0 1.8-0.2 0.6 0 1.2 0 1.8-0.2 0.6 0 1.2 0 1.8-0.2-2.6 2.6-5.2 5.4-7.4 8.2s-4.2 5.8-6 9c-1.8 3-3.2 6.2-4.4 9.6-0.8 3.4-1.6 6.8-2.4 10.2z" />
<glyph unicode="&#xe912;" glyph-name="lua" data-tags="lua" d="M1022.8 828.4c0-72-58.4-130.4-130.6-130.4-72 0-130.4 58.4-130.4 130.4 0 72.2 58.4 130.6 130.4 130.6 72.2 0 130.6-58.4 130.6-130.6zM687.4 258.4l-36.8-5.6c-28-4-41-14.8-41-34.2 0-22.8 13.2-35.2 37-35.2 26.4 0 51.8 12.8 61.8 31.6 2.8 5.2 2.8 6.4 2.8 17v10l0.4 24v0.4c-0.4 0-2-1.2-3.2-2-2.6-2.4-9.8-4.4-21-6zM892.4 382.6c0-246.2-199.6-445.8-445.6-445.8-246.2 0-445.6 199.6-445.6 445.8s199.6 445.8 445.6 445.8c246 0 445.6-199.6 445.6-445.8zM328 194.8h-146v253h-39.8v-288h185.8v35zM531.8 369.6h-35.8v-123.2c0-11.2-6-29.2-13.6-40.6-8.8-13.6-25-21.6-42.6-21.6-28 0-42 14.8-42 45v140.4h-35.8v-156c0-35.2 28.6-59.8 69-59.8 30.8 0 51.6 11.6 66.6 36.6v-30.6h34.2v209.8zM770.8 185.8c-5.6-1.2-8.4-1.6-11.8-1.6-8 0-11.6 3.6-11.6 12.4v120c0 37-29.6 59-79.4 59-54.6 0-83-23.4-85-69.8h33c4 28.6 18.4 40.6 48.2 40.6 32.4 0 48.6-12 48.6-35.2 0-21.6-2.8-23.2-60.6-29.2-19.6-1.6-26-2.8-36-6-27.2-8.8-43.4-31.2-43.4-60.2 0-38.4 26.6-61.8 70.2-61.8 26.8 0 45.2 8.8 71.4 33.6 1.2-21.2 12.4-31.6 33.6-31.6 8 0 12 0.8 22.8 4v25.8zM761.8 567.2c0 72-58.4 130.6-130.6 130.6-72 0-130.6-58.6-130.6-130.6s58.4-130.6 130.6-130.6c72.2 0.2 130.6 58.6 130.6 130.6z" />
<glyph unicode="&#xe913;" glyph-name="mysql" data-tags="mysql" d="M505 386.6h94.6v-22.4h-96.2c-1 0-2.2-0.2-3.2-0.2-12-1-15.6-3-17.2-10-0.4-1-0.4-2-0.4-2.8v-15.4c0-1 0-2 0.4-3 1.6-9 8-13.2 21.6-13.2h40.8c10 0 20.4-1.8 28.8-5 15.8-6 24-15.2 24-24.8v-24.6c0-11.8-7.2-21-21.6-27.6-8.8-4.2-19.8-6.4-31-6.4h-96.8v22.4h93c1.2 0 2.2 0.2 3.6 0.2 6.4 0.4 11.4 2.2 14.2 4.8 3.2 2.6 4.8 5.6 4.8 8v19.6c0 2.2-0.6 4-2.6 6-3.2 3.8-7.8 5.8-18.4 6.6-1 0.2-2.2 0.2-3.6 0.2h-35c-3.2 0-6.4 0.2-9.8 0.4-28.8 3-46 16-46 31v19.6c0 17.2 8.8 27.2 28.8 33.4 6.6 2.2 13.6 3.2 27.2 3.2zM767.2 238l33.2-30h-39l-26.8 24.2-27-1.8h-36c-6.2 0-12.6 0.8-19.8 2.8-21.4 5.8-31.8 17-31.8 35.6v80c0 20.4 14.2 32.6 42.6 36.6 3 0.4 6.2 0.6 9 0.6h64c3.2 0 6.2-0.2 9.4-0.6 28.2-3.8 42.4-16.2 42.4-36.6v-80c-0.2-16.2-6.2-25.2-20.2-30.8zM755.6 347c0 0.8 0 2-0.4 3-2 8.6-10.8 13.6-23.6 13.6h-51c-15 0-24.6-6.4-24.6-16.6v-76.2c0-1 0.4-2.2 0.6-3.4 2-9.4 10.8-14.4 24-14.4h30.6l-28 25.4h39l24.6-22.2c4.6 2.4 7.4 6 8.6 10.8 0.4 1 0.4 2.2 0.4 3.2l-0.2 76.8zM218.6 386.2c-25.6 8-42.8 1-50.6-16.2l-51-114.2-49.6 114.4c-7.4 17.2-25 24.2-50.6 16.2-10.6-3.2-15.8-9.4-15.8-22.4v-132.8h33.6v133l52.2-116c6.2-14 14.6-19 31-19 16.6 0 24.6 5 30.8 19l52.2 116v-133h33.6v132.6c0 13-5.2 19.2-15.8 22.4zM389 339.6v-87.2c-0.6 0-63.8-0.2-73.2 0-18.4 0.2-20 9.6-19.8 13.6v73.2h-33.6c0.8-0.8 0-74 0-75.6 0.2-16.8 21.4-31.2 54.8-31.6h71.6v-8.8c0-3.6 2.6-14.4-19.2-16.6-0.2 0-106.4 0-106.4 0v-22.6h106.4c16.8 0.6 53.4 6.8 53.2 36.2 0 0.6 0.2 119.4 0 119.4h-33.8zM1002.2 252.4l8.2-12.4h-5.6l-7.4 12.2h-4.4v-12.2h-4.8v28.4h11c7 0 10.6-2.4 10.6-8.2 0.2-5.2-3.2-7.2-7.6-7.8zM998.2 256.2c3.6 0 6.6 0.4 6.6 4.2 0 3.4-3.4 3.8-6.2 3.8h-5.4v-8.2h5zM1023 254.2c0-14.8-11.8-24.8-24.8-24.8s-24.8 10-24.8 24.8c0 14.8 11.8 24.8 24.8 24.8s24.8-10 24.8-24.8zM1017.4 254.2c0 11.2-8.6 19.6-19.2 19.6-10.8 0-19.2-8.4-19.2-19.6s8.4-19.6 19.2-19.6c10.6 0 19.2 8.4 19.2 19.6zM724.2 648c-4.4 0-7.4-0.4-10.6-1.2 0-0.2 0-0.4 0-0.6 0.2 0 0.4 0 0.6 0 2-4.2 5.6-7 8.2-10.6 2-4.2 4-8.2 5.8-12.4 0.2 0.2 0.4 0.4 0.6 0.6 3.6 2.6 5.4 6.6 5.2 13-1.4 1.6-1.6 3.4-3 5.2-1.4 2.6-4.8 4-6.8 6zM1009 346c2.8-2 4.6-5.2 8.2-6.4 0 0.2 0 0.4 0 0.6-1.8 2.4-2.4 5.8-4.2 8.2-2.6 2.6-5.2 5-7.6 7.6-7.4 10-17 18.6-27 25.8-8 5.8-26 13.6-29.4 23-0.2 0.2-0.4 0.4-0.6 0.6 5.8 0.6 12.4 2.8 17.6 4.2 8.8 2.4 16.8 1.8 25.8 4.2 4.2 1.2 8.2 2.4 12.4 3.6 0 0.8 0 1.6 0 2.4-4.6 4.8-8 11-13 15.4-13.2 11.2-27.6 22.4-42.4 31.8-8.2 5.2-18.4 8.6-27 13-3 1.4-8 2.2-10 4.8-4.6 5.8-7 13.2-10.6 20-7.4 14.2-14.6 29.8-21.2 44.8-4.4 10.2-7.4 20.2-13 29.4-26.8 44-55.4 70.4-100 96.6-9.4 5.6-21 7.8-33 10.6-6.4 0.4-13 0.8-19.4 1.2-4 1.6-8 6.4-11.8 8.8-14.8 9.4-52.6 29.6-63.6 3-7-16.8 10.4-33.2 16.4-41.8 4.4-6 9.8-12.6 13-19.4 2-4.4 2.4-8.8 4.2-13.6 4.2-11.6 8-24 13.6-34.8 2.8-5.4 5.8-11 9.4-15.8 2.2-3 5.8-4.2 6.4-8.8-3.6-5-3.8-13-5.8-19.4-9.2-29-5.8-65 7.6-86.6 4-6.6 13.8-20.8 27-15.2 11.6 4.8 9 19.4 12.4 32.4 0.8 3 0.2 5.2 1.8 7 0-0.2 0-0.4 0-0.6 3.6-7 7-14.2 10.6-21.2 7.8-12.6 21.8-25.8 33.6-34.8 6.2-4.6 11-12.6 18.8-15.4 0 0.2 0 0.4 0 0.6-0.2 0-0.4 0-0.6 0-1.6 2.4-4 3.4-5.8 5.2-4.6 4.6-9.8 10.2-13.6 15.4-10.8 14.6-20.2 30.4-28.8 47-4.2 8-7.8 16.6-11.2 24.8-1.4 3.2-1.4 7.8-4.2 9.4-3.8-6-9.4-10.6-12.4-17.6-4.8-11.2-5.4-24.8-7-38.8-1-0.4-0.6-0.2-1.2-0.6-8.2 2-11 10.4-14.2 17.6-7.8 18.4-9.2 47.8-2.4 68.8 1.8 5.4 9.6 22.6 6.4 27.6-1.6 5-6.6 8-9.4 11.8-3.6 4.8-7 11-9.4 16.4-6.2 14.2-9.2 30.2-15.8 44.8-3.2 6.8-8.6 13.8-13 20-4.8 6.8-10.4 11.8-14.2 20-1.4 3-3.2 7.6-1.2 10.6 0.6 2 1.6 2.8 3.6 3.6 3.4 2.6 13-0.8 16.4-2.4 9.4-4 17.4-7.6 25.4-13 3.8-2.6 7.8-7.4 12.4-8.8 1.8 0 3.6 0 5.2 0 8.2-2 17.6-0.6 25.4-3 13.6-4.2 26-10.6 37-17.6 34-21.4 61.6-52 80.6-88.2 3-5.8 4.4-11.4 7-17.6 5.4-12.6 12.2-25.4 17.6-37.6s10.6-24.6 18.2-34.8c4-5.4 19.4-8.2 26.4-11.2 5-2 13-4.2 17.6-7 9-5.4 17.6-11.8 25.8-17.6 4.2-3 17-9.4 17.6-14.8-20.6 0.6-36.6-1.4-50-7-3.8-1.6-10-1.6-10.6-6.4 2.2-2.2 2.4-5.6 4.2-8.2 3.2-5.2 8.6-12.2 13.6-15.8 5.4-4 10.8-8.2 16.4-11.8 10.2-6.2 21.4-9.8 31.2-15.8 6.4-4.4 12.2-9 17.8-13.2zM842 270.4v116.2h-33.6v-116.4c0-23 17.2-36 51.8-38.6 3.2-0.2 6.4-0.4 9.8-0.4h87.8v22.4h-88.4c-20 0-27.4 5-27.4 16.8z" />
<glyph unicode="&#xe914;" glyph-name="node" data-tags="node" d="M231.8 656.2l-48.2 27.6c-3 1.8-5 5-5 8.4v58.6c0 3.4-1.8 6.8-4.8 8.4l-20.4 11.8c-1.4 0.8-3.2 1.4-4.8 1.4-1.8 0-3.4-0.4-5-1.4l-20.4-11.8c-3-1.8-4.8-5-4.8-8.4v-58.6c0-3.4-1.8-6.6-4.8-8.4l-48.4-27.6c-1.4-1-3.4-1-4.8 0-1.6 0.8-2.4 2.4-2.4 4.2l-0.2 125.4c0 3.6 1.8 6.8 4.8 8.4l81 46.6c1.4 0.8 3 1.2 4.4 1.2 0.2 0 0.8 0 0.8 0 1.6 0 3-0.4 4.4-1.2l81-46.6c3-1.8 4.8-5 4.8-8.4l-0.2-125.4c0-1.8-1-3.4-2.4-4.2-1.2-1-3.2-1-4.6 0zM543.2 689.8v93.6c0 3.4 1.8 6.8 4.8 8.4l81 46.8c3 1.8 6.8 1.8 9.8 0l20.2-11.6c1-0.6 2.4-0.6 3.4 0s1.8 1.8 1.8 3v124c0 1.8 1 3.4 2.4 4.2 1.6 0.8 3.4 0.8 4.8 0l48.2-26.8c3.2-1.8 5-5 5-8.6v-233c0-3.4-1.8-6.8-4.8-8.4l-81-46.8c-3-1.8-6.8-1.8-9.8 0l-81 46.8c-3 1.6-4.8 5-4.8 8.4zM603.6 720.6c0-0.8 0.4-1.6 1.2-2.2l27.8-16c0.8-0.4 1.6-0.4 2.4 0l27.8 16c0.8 0.4 1.2 1.2 1.2 2.2v32.2c0 0.8-0.4 1.6-1.2 2.2l-27.8 16c-0.8 0.4-1.6 0.4-2.4 0l-27.8-16c-0.8-0.4-1.2-1.2-1.2-2.2v-32.2zM961.4 793l-80.6 46.8c-3 1.8-6.8 1.8-9.8 0l-81-46.8c-3-1.8-4.8-5-4.8-8.4v-93.4c0-3.6 1.8-6.8 5-8.6l80.4-45.8c3-1.8 6.6-1.8 9.6 0l48.6 27c1.6 0.8 2.6 2.4 2.6 4.2s-1 3.4-2.4 4.2l-81.4 46.8c-1.6 0.8-2.4 2.4-2.4 4.2v29.2c0 1.8 1 3.4 2.4 4.2l25.4 14.6c1.6 0.8 3.4 0.8 4.8 0l25.4-14.6c1.6-0.8 2.4-2.6 2.4-4.2v-23c0-1.8 1-3.4 2.4-4.2 1.6-0.8 3.4-0.8 4.8 0l48.4 28.2c3 1.8 4.8 5 4.8 8.4v22.6c0.2 3.6-1.6 6.8-4.6 8.6zM305.6 683l81-46.8c3-1.8 6.8-1.8 9.8 0l81 46.8c3 1.8 4.8 5 4.8 8.4v93.6c0 3.4-1.8 6.8-4.8 8.4l-81 46.8c-3 1.8-6.8 1.8-9.8 0l-81-46.8c-3-1.8-4.8-5-4.8-8.4v-93.6c-0.2-3.4 1.8-6.6 4.8-8.4zM787.8 467.2l-249.6 144.2c-15.6 9-36.6 9-52.4 0l-249.8-144.2c-16.2-9.4-26.2-26.8-26.2-45.6v-288.2c0-18.8 10-36.2 26.2-45.6l65.4-37.8c31.8-15.6 43-15.6 57.6-15.6 47 0 74 28.4 74 78v284.8c0 4-3.2 7.2-7.2 7.2h-31.8c-4 0-7.2-3.2-7.2-7.2v-284.4c0-22-22.8-43.8-59.8-25.2l-68.4 39.6c-2.4 1.4-4 3.8-4 6.6v288c0 2.8 1.6 5.4 4 6.8l249.6 144c2.4 1.4 5.4 1.4 7.6 0l249.6-144c2.4-1.4 3.8-4 3.8-6.8v-288.2c0-2.8-1.4-5.4-3.8-6.8l-249.6-144.2c-2.2-1.4-5.4-1.4-7.8 0l-64 38c-2 1-4.4 1.6-6.2 0.4-17.8-10-21-11.4-37.6-17.2-4.2-1.4-10.2-3.8 2.2-10.8l83.4-49.4c8-4.6 17-7 26.2-7s18.4 2.4 26.2 7l249.6 144.2c16.2 9.4 26.2 26.8 26.2 45.6v288.4c0.2 18.8-10 36.2-26.2 45.4zM598.8 161.2c-74.6 0-90.8 18.8-96.4 55.8-0.6 4-4 7-8 7h-36.4c-4.6 0-8.2-3.6-8.2-8.2 0-47.4 25.8-104 149-104 89.2 0 140.4 35.2 140.4 96.4 0 60.8-41.2 77-127.6 88.4-87.4 11.6-96.4 17.6-96.4 38 0 16.8 7.6 39.4 72.2 39.4 57.8 0 79.2-12.4 88-51.4 0.8-3.6 4.2-6.4 7.8-6.4h36.8c2.2 0 4.4 1 6 2.6 1.6 1.8 2.4 4 2.2 6.2-5.6 67.2-50.2 98.4-140.4 98.4-80.2 0-128.2-33.8-128.2-90.6 0-61.6 47.6-78.6 124.6-86.2 92.2-9 99.4-22.6 99.4-40.6-0.2-31.4-25.4-44.8-84.8-44.8zM876.6 757.8c-0.6 0.4-1.2 0.4-1.8 0l-15.6-9c-0.6-0.4-1-1-1-1.6v-18c0-0.6 0.4-1.2 1-1.6l15.6-9c0.6-0.4 1.2-0.4 1.8 0l15.6 9c0.6 0.4 1 1 1 1.6v18c0 0.6-0.4 1.2-1 1.6l-15.6 9z" />
<glyph unicode="&#xe915;" glyph-name="objc" data-tags="objc" d="M1023 401c-6.8-28.2-17.4-51.6-31.8-70.4s-32.4-33-54-42.8c-21.4-9.6-48.8-14.4-82-14.4-40.2 0-73.2 5.8-98.6 17.6-25.6 11.8-47.6 32.2-66 61.8-18.6 29.4-27.8 67.2-27.8 113.2 0 61.2 16.2 108.4 48.8 141.2 32.6 33 78.8 49.4 138.4 49.4 46.6 0 83.4-9.4 110-28.2s46.6-47.8 59.4-87l-101-22.4c-3.6 11.2-7.2 19.6-11.2 24.8-6.4 8.8-14.2 15.6-23.4 20.2-9.2 4.8-19.6 7-31 7-26 0-45.8-10.4-59.6-31.2-10.4-15.4-15.6-39.8-15.6-73 0-41 6.2-69.2 18.6-84.4s30-22.8 52.6-22.8c21.8 0 38.4 6.2 49.6 18.4s19.4 30.2 24.4 53.6l100.2-30.6zM223.4 546.6c4.6-18.6 6.8-39.4 6.8-62.6 0-26.6-3.2-49.4-9.4-68.8-6.2-19.2-14.8-35.2-25.4-47.8s-23-22-37.4-28c-14.2-6-29.2-9.2-45-9.2-19 0-35.6 3.4-49.6 10.2s-25.8 16.8-35 29.8c-9.2 13-16.2 28.8-20.6 47.4s-6.8 39.6-6.8 63c0 26.2 3 49 9.2 68.2s14.6 35.2 25.2 47.8c10.6 12.6 23 22 37.2 28 14.2 6.2 29.2 9.2 45 9.2 19 0 35.6-3.4 49.6-10.4s25.8-16.8 35.2-29.8c9.4-12.8 16.4-28.4 21-47zM188.4 481c0 17.4-1.4 33.2-4 47.6s-7 26.8-12.8 37.2c-5.8 10.4-13.4 18.4-22.8 24.2-9.2 5.8-20.4 8.6-33.6 8.6-12.6 0-23.6-3-32.6-9.2-9.2-6.2-16.6-14.4-22.4-24.8s-10.2-22.8-13-36.8c-2.8-14-4.2-29-4.2-44.8 0-17.4 1.4-33.4 4-47.8 2.8-14.4 7-26.8 12.8-37 5.8-10.4 13.2-18.4 22.4-24 9.2-5.8 20.2-8.6 33.2-8.6 12.6 0 23.6 3 32.8 9.2s16.8 14.4 22.8 24.8c6 10.4 10.4 22.8 13.2 36.8 2.8 13.6 4.2 28.6 4.2 44.6zM452.2 451.8c0-18.8-2.6-35.6-7.8-50.6-5.2-14.8-12.6-27.4-22.2-37.8s-21.2-18.2-35-23.8c-13.8-5.6-29.2-8.2-46.4-8.2-13.4 0-27.2 1.2-41.2 3.8s-27.8 6.6-41.6 12.2v306.4h39.4v-88l-1.8-42c11.2 15.2 23.4 26 36.2 32.2s26.8 9.4 41.4 9.4c13 0 24.4-2.8 34.2-8.2s18-13 24.6-23 11.6-21.8 15-35.8c3.4-13.8 5.2-29.4 5.2-46.6zM412 450c0 11.8-0.8 22.8-2.6 32.8s-4.4 18.4-8.2 25.6c-3.8 7-8.6 12.6-14.4 16.6s-12.8 6-21 6c-5 0-10-0.8-15.2-2.4s-10.4-4.2-16-8c-5.4-3.6-11.4-8.6-17.4-14.6-6-6.2-12.6-13.6-19.6-22.8v-110c7.6-3 15.6-5.4 23.6-7.2s15.6-2.6 22.8-2.6c9 0 17.6 1.4 25.8 4.2s15.4 7.6 21.8 14.4c6.2 6.8 11.2 15.6 15 26.6 3.4 11.4 5.4 25 5.4 41.4zM460.4 528.8h111.2v-191.8c0-21-5-37-14.8-48-9.8-10.8-23.2-16.2-40.4-16.2-5.4 0-11 0.4-16.8 1s-11.4 1.6-17 3c-5.6 1.4-11.2 3-16.4 5-5.4 2-10.4 4.2-15 6.6v-37.6c8.6-3.6 18.2-6.4 28.8-8.4s21.6-3 32.6-3c15.4 0 29.2 2.2 41.4 6.6s22.6 10.8 31 19.2c8.4 8.4 15 18.8 19.4 31 4.6 12.2 6.8 26.4 6.8 42.2v223h-151v-32.6zM609.6 647.4c-2.8 2.8-6 5-9.8 6.6s-7.8 2.4-12.2 2.4c-4.4 0-8.4-0.8-12.2-2.4s-7-3.8-9.8-6.6c-2.8-2.8-5-6.2-6.6-10s-2.4-7.8-2.4-12c0-4.4 0.8-8.4 2.4-12s3.8-7 6.6-9.8c2.8-2.8 6-5 9.8-6.6s7.8-2.4 12.2-2.4c4.4 0 8.4 0.8 12.2 2.4s7 3.8 9.8 6.6c2.8 2.8 5 6.2 6.6 9.8s2.4 7.8 2.4 12c0 4.2-0.8 8.2-2.4 12s-3.8 7.2-6.6 10z" />
<glyph unicode="&#xe916;" glyph-name="perl" data-tags="perl" d="M905.2-19.4c-0.2 3.4-0.4 6.8-0.2 10.2 1.6 2.6-2.2 21-8.6 40.6-10.2 31.2-10.8 36.2-5.6 57.4 1 3.6 2.4 15.8 2.8 27.2 1 21.8 2 27.4 7.8 41.4 5.2 12.8 6.6 18.4 7.4 31.4 0.8 15.2-1 24-6.6 37-5.4 12.8-6.2 18.8-3.6 32.6 2.8 15 2.8 49.8 0 61s-4.2 51.4-3.6 103l5.6 63c8.8 34.2 14.2 46.4 21.2 46.4 6.4 0 12.6-10.6 16.6-29.8 2.6-17.8 1.2-36 4.4-53.8 4.2-24.4-2.4-48.8-15-70-7.4-13-10-22.4-8.2-29.4 1.6-5.4 7-11.6 11.4-12.6 1.8-0.4 4.2 0.2 7 1.6 3.4 1.6 6.6 5.8 18.4 23.2 7.8 11.8 15.4 24.2 16.6 27.6 10.8 47.4 11.2 82.6 5.2 129.4 0 30.4-4.2 41.8-25.2 64.6-39.4 49-62 92-84.6 149.8-7.8 13-19.2 28.6-27.6 38.2-13.2 15-21.2 29.8-28.4 52-10.4 26.6-19.4 58-35 81-14.6 16.4-28.4 34.4-49.6 42.8-27 12.6-48.6 10.6-79 9-22.6-4.8-43.4-15.2-65.2-22.8-33.4-12.8-65.6-35.2-79.4-69.2-3.4-7.6-18.6-32-26.4-43.2-14.6-17.2-33.4-31.2-52-43.6-23.2-13.8-42.2-32.2-65-62.6-23-31.8-25.2-59.4-36.6-95.2-17.8-18.8-31.8 7.2-27.2 25.2 10.8 43.8 30.4 83.4 27.6 129.8-6.8 61.2-32 143-104.6 147.6-16.2 0-20.8-2.6-39-19.2-12.2-11-20.4-14.8-40.2-20-23.8-5.8-49.2-1.8-71.6-12.2-11-6-23.8-25-26.8-38.8-2.4-11.4 3.4-22.8 14.6-28.8 22.8-10.8 61.8-2.8 66.8-34.6-7.8-33.8-28.8-57-27.6-90.8-1.6-36.8 3.2-67.2 5.6-103.4 3.4-44.2 35.2-67.6 57.4-104.6 33.4-42.6 92.4-87 149.4-69.6 19.8 6.4 27.6 5.2 35-5.2 5-7.2 5.8-13.8 2.8-29.6-3.4-19.4-3.4-56.2 0-77 2.6-15.4 4.4-38.6 4.4-51.6 0-10.6 2.2-24 4.8-35 1.8-7.2 2.2-14.6 2.8-39 0.4-16.4 1.4-32.6 2-35.8 2.2-11.2 1.8-20.2-3.2-55-2.2-14.6-9.6-41.6-14.6-52.8-2.8-6.2-9.8-20.4-15.8-32.2-0.6-1.4-1-2-1.6-3.2-7-0.8-10.6-1.6-11.2-2.4h-272v-45.6h940v45.6h-76.8zM558.4 225.4c4.6 4.4 14.4 14 21.6 21.6 15 15.4 15.4 16.2 19.2 38.2 3.4 20 3.4 20.2 17.4 40.6 5 7.4 7.4 14 13.4 36.6 5.6 21 8 26.2 12.6 28.4 2.2 1.2 3.6 1.8 5.2 1.6 1.6 0 3.2-1 4.8-2.4 5-4 6.2-8.4 9-38.2 1.4-15.6 3.4-35.2 4.4-43.6 5.2-37 6-48.6 4.4-61-0.8-6.4-1.6-19.8-2-29.2-1.4-27-5.2-39-20-64.2-4.4-7.8-10-17.8-12.2-22.4-4.4-9.2-9.2-15.4-13.8-18-4.6-2.4-10.6-2-16.6 1.2-8.2 4.4-23.2 16-30.6 23.6-7.8 8.2-11 12.4-20 28.4-10.2 18.2-11.4 22-11.4 30 0.4 11 4.2 18.8 14.6 28.8zM569.8 31c-5.6-5.4-9.4-8-20.4-13.4-15.2-7.4-20.8-12.2-22-18.4-0.4-2.4 0.4-4.4 1.2-6.6-51.4 0.4-103-1.4-154.6-5.2 3 14.6 5.8 30.2 6.6 41 0.6 10.2 2 22 3.6 30.2 1.6 7.4 3 19.6 3.6 27.2 1.4 18 2.8 23.2 11.4 41.4 3.8 8.2 8.2 19.2 9.8 24.4 2.6 9 2.6 10.8 2.4 37-0.2 24 0.4 28.8 2.4 41.4 4.2 25.2 6.2 32.6 14.2 49.2 11 22.4 12 26 13 46.4 1.2 23.8 5.2 36.2 13.4 44.8 4.6 4.8 8.6 7.4 16.2 8.2 2.6 0.2 5.6 0 9 0 14.4 0 20.8-2 25.2-7.8 4.2-5.4 4.6-12.2 1.2-26.8-1.6-6.6-3.4-18.6-4-26.4-1.4-17.4-4.4-27.4-12.2-41-9.8-17.6-10.2-19.2-10.2-48.4 0-23.6 0.2-26 2.4-33 1.4-4.2 4-9.8 6.2-12.6 4.6-6.2 18.4-18 33-28.4 14.2-10.2 30.2-25.8 39.8-38.6 10.2-13.6 25-27.2 26.8-44.8 0.2-12.8-7.2-29.2-18-39.8zM602.8-9.8c6 3.8 10.2 8.4 13.8 15.8 4.2 8.6 7.2 13 11.4 12.6 4-0.4 8.8-5.6 15-15 5.4-8.2 10.8-13.8 15.8-17-18.8 1.6-37.4 2.8-56 3.6zM871.6 92.8c-0.6-12.6-1-14.2-7.8-34.2-10-29.4-12.2-38-14.2-52.8-1.6-11.8-2.6-16.2-6.6-25.2h-122c-14 1.6-28.2 3.2-42.2 4.4 7 3.8 11.6 12.8 13.8 27.6 1 7.2 1 10.4-0.4 18.8-3.2 18.8-7.8 26.2-21.2 37.4-4.6 3.8-9.4 8.6-11 11-4 6-5.4 14.2-3.6 22 2 9.6 11.2 26.4 22 40.6 9.6 12.8 14.6 20.8 22.4 35.8 3 5.6 7.2 11.2 13.8 18 5.2 5.4 11 13 13 16.6l3.2 6.6v37c-0.2 26.4 1.4 52 4.8 78.2 2.8 31.4 14 56 29.2 83 8.8 18 12.8 23.2 20.4 23.2 10 0 16.2-11.2 19.2-34.6 3.4-23 14.6-42.8 21.6-64.6 4.2-15.6 7.2-22.6 17-42.4 9.2-18.6 17.2-39.4 19.6-52 1.2-6.8 1.6-16 1.6-35.4 0-28.6 1-40 4.4-54.6 2.8-11.2 4.2-43 3-64.4z" />
<glyph unicode="&#xe917;" glyph-name="php" data-tags="php" d="M343.4 551.4c-22.4 25.6-57.8 38.4-106.6 38.4h-161.8l-75-386.4h84.2l20 102.6h72c31.8 0 58 3.4 78.4 10 20.6 6.6 39.2 17.8 56 33.6 14.2 13 25.4 27.2 34.2 42.8s15 32.8 18.6 51.8c9 46 2.2 81.6-20 107.2zM276.6 450.2c-5.8-29.8-17-51.2-33.6-64s-41.8-19.2-75.8-19.2h-51.2l31.4 161.6h57.6c32 0 53.2-5.8 64-17.6 10.6-11.8 13.2-32 7.6-60.8zM676 485.8l-35-179.8h-84.8l33.2 170.8c3.8 19.4 2.4 32.8-4.2 39.8s-20.6 10.6-41.8 10.6h-66.8l-43-221.2h-83.4l75 386.2h83.4l-20-102.6h74.4c46.8 0 79-8.2 96.8-24.4 18-16.2 23.2-42.8 16.2-79.4zM1000 551.4c-22.4 25.6-57.8 38.4-106.4 38.4h-161.8l-75-386.2h84.2l20 102.6h72c31.8 0 58 3.4 78.4 10 20.6 6.6 39.2 17.8 56 33.6 14 13 25.6 27.2 34.2 42.8 8.8 15.6 15 32.8 18.6 51.8 8.8 45.8 2.2 81.4-20.2 107zM933.2 450.2c-5.8-29.8-17-51.2-33.6-64s-41.8-19.2-75.8-19.2h-51.2l31.4 161.6h57.6c32 0 53.2-5.8 64-17.6 10.6-11.8 13.2-32 7.6-60.8z" />
<glyph unicode="&#xe918;" glyph-name="php2" data-tags="php2" d="M802.2 512c7.4-8.2 9.2-22.4 5.4-42.4-4-20.8-11.8-35.8-23.4-44.6-11.6-9-29.2-13.4-52.8-13.4h-35.6l22 112.8h40.2c21.8-0.2 36.6-4.2 44.2-12.4zM299.6 524.2h-40.2l-22-112.8h35.6c23.6 0 41.2 4.4 52.8 13.4s19.4 23.8 23.4 44.6c3.8 20 2.2 34.2-5.4 42.4-7.2 8.4-22 12.4-44.2 12.4zM1023 448c0-148.4-228.8-268.8-511-268.8s-511 120.2-511 268.8c0 148.4 228.8 268.8 511 268.8s511-120.4 511-268.8zM397 429.4c6 10.8 10.4 23 13 36 6.2 32 1.6 56.8-14 74.6s-40.4 26.8-74.2 26.8h-113l-52.2-269.4h58.6l14 71.6h50.2c22.2 0 40.4 2.4 54.8 7s27.4 12.4 39 23.4c9.8 9.2 17.8 19 23.8 30zM603.6 369l24.4 125.4c5 25.4 1.2 44-11.2 55.4s-34.8 17-67.6 17h-51.8l14 71.6h-58.2l-52.4-269.4h58.2l30 154.4h46.6c14.8 0 24.6-2.4 29.2-7.4s5.6-14.2 3-27.8l-23.2-119.2h59zM854 540c-15.6 17.8-40.4 26.8-74.2 26.8h-112.8l-52.4-269.4h58.6l14 71.6h50.2c22.2 0 40.4 2.4 54.8 7s27.4 12.4 39 23.4c9.8 9 17.8 19 23.8 30 6 10.8 10.4 23 13 36 6.2 32 1.6 56.8-14 74.6z" />
<glyph unicode="&#xe919;" glyph-name="python" data-tags="python" d="M389.4 470.2h243.6c67.8 0 122 55.8 122 123.8v232.2c0 66-55.8 115.8-122 126.8-41.8 7-85.4 10.2-127 10s-81.4-3.8-116.6-10c-103.2-18.2-122-56.4-122-126.8v-93h243.8v-31h-335.2c-70.8 0-133-42.6-152.4-123.6-22.4-92.8-23.4-150.8 0-247.8 17.4-72.2 58.8-123.6 129.6-123.6h83.8v111.4c0.2 80.6 69.8 151.6 152.4 151.6zM374.2 795.2c-25.2 0-45.8 20.8-45.8 46.4s20.4 46.6 45.8 46.6c25.2 0 45.8-21 45.8-46.6-0.2-25.6-20.6-46.4-45.8-46.4zM998.8 578.8c-17.6 70.6-51 123.6-122 123.6h-91.6v-108.2c0-84-71.2-154.6-152.4-154.6h-243.4c-66.6 0-122-57-122-124v-232.2c0-66 57.4-105 122-123.8 77.2-22.8 151.2-26.8 243.6 0 61.4 17.8 122 53.6 122 123.8v93h-243.6v31h365.6c70.8 0 97.2 49.4 122 123.6 25.2 76.4 24 149.8-0.2 247.8zM648.4 114.4c25.2 0 45.8-20.8 45.8-46.4 0-25.8-20.4-46.6-45.8-46.6-25.2 0-45.8 21-45.8 46.6s20.6 46.4 45.8 46.4z" />
<glyph unicode="&#xe91a;" glyph-name="ruby" data-tags="ruby" d="M731 185.6l217.6-193.2-428.4 33.6c84 50.6 153.2 111.2 205 159.4 0.8-0.2 1.8-0.2 2.6-0.2 1.2 0 2.2 0.2 3.2 0.4zM972 70.2l40 525.2c-19.8-50.6-51.2-109.6-91.8-172.6l51.8-352.6zM745.6 197.4l217.2-192.8-58 394.6c-47.8-71.2-105.2-143.8-159.2-201.8zM491.8 9.6c-46.8-26-95-46.6-143.6-61.6l500.6 33.6-357 28zM73.8 262.4l131.2-306.4 108 357.4-239.2-51zM344.8 331.8l365-117.2-93.2 369.2-271.8-252zM637 620.2l340.4 22.8-266 217.4-74.4-240.2zM830.6 955l-223.4 1 99.2-69.6 124.2 68.6zM8.6 392.4l-7.4-217.8 53.6 97.6-46.2 120.2zM130.6 304.8c42.4-2.8 85.4 6.6 128.6 25.6 29.2 13.8 59.4 31.2 89.8 51.8 43.6 30.8 87.4 69.2 131.6 113 158.8 157.4 224.2 333.6 154.8 403.8-16.6 16.8-40.2 25.2-70.6 25.4-91.4 0.4-228.2-68.4-344.8-184-111.4-110.4-183.8-241.6-184-334-0.2-32.8 9-58.8 27-77 16-16.2 38.8-22.8 67.6-24.6zM462.2 14.8c5 2.6 10 5.2 14.8 7.8l-147 283.4-110.6-366.2c1 0.2 8.4 1 8.4 1 9.6 1.2 19.2 2.6 28.6 4.2 60.8 10.4 120.8 29.4 178.6 56.4 9.2 4.2 18.2 8.8 27.2 13.4zM762.2 248.6l3.4 4c2.4 2.8 4.8 5.8 7.4 8.6 0 0 7.6 9 10.4 12.6 5 6 9.8 12 14.8 18.2 4.6 5.6 9 11.4 13.6 17 4.8 6 9.4 12.2 14.2 18.4 10.6 14 21.4 28.6 32.8 44.8 12.2 17.2 23.8 34.4 35 51.2l-20 12.2c-52.8 32.4-159 97.4-228.8 140.2l90.4-357.8c8.2 9.2 17.2 19.4 26.8 30.6zM1017.4 824.8l-281 39.4 267.8-219c9.4 31 15.6 61.2 18.2 89.6 0.4 4 0.6 8 0.8 12 0.2 3.8 0.4 7.4 0.4 11.2 1 24.2-1.2 46.6-6.2 66.8zM909.4 440.4c0.6 1 1.4 2 2.4 3.2 5.4 7.6 13 20 21.4 34.8 23.6 41.6 52.6 100.8 64.6 144.2l-349.6-23.4c73-44.8 179.4-110 232.4-142.4l28.2-17.2c0.2 0.4 0.4 0.6 0.6 0.8zM490.4 26.8l1 0.6c76.4 42.4 144.6 94.4 220.8 168.6l-371.4 119.8 149.6-289zM0 135.4c1.6-48.4 12-88.4 30.6-119l17.4 206.6-48-87.6zM67.8 236.8l-20-238.4c28.6-37.4 66.6-54 123.2-54 5.8 0 11.6 0.2 18 0.4l-10 24.8c-21.8 53.8-83.6 207.4-111.2 267.2zM1013.2 839.4c-4.2 12.6-9.4 24.2-15.6 34.6-25.4 42.2-69 69-130 80.2l-136.2-75.2 281.8-39.6z" />
</font>
</defs>
</svg>
